<?xml version="1.0" encoding="utf-8"?>
<!-- Generator: Adobe Illustrator 25.0.1, SVG Export Plug-In . SVG Version: 6.00 Build 0)  -->
<svg version="1.1" id="Layer_1" xmlns="http://www.w3.org/2000/svg" xmlns:xlink="http://www.w3.org/1999/xlink" x="0px" y="0px"
	 viewBox="0 0 326.53 101.39" style="enable-background:new 0 0 326.53 101.39;" xml:space="preserve">
<style type="text/css">
	.st0{fill:#58595B;}
</style>
<path class="st0" d="M160.02,5.53c0.53,0.11,1.1,0.23,1.65,0.35c0.41,0.73,0.54,1.41,0.33,2.14c-0.29,0.97-0.53,1.96-0.92,2.89
	c-0.7,1.63-1.5,3.22-2.26,4.84c0.26,0.31,0.51,0.11,0.74-0.07c1.37-1.05,2.73-2.12,4.11-3.17c3.07-2.36,6.34-4.42,9.66-6.39
	c1.22-0.73,2.54-1.29,3.89-1.77c1.05-0.38,2.09-0.47,3.24-0.05c0.29,0.26,0.63,0.58,0.98,0.89c0.3,0.99,0.7,1.94,0.34,2.99
	c-0.61,1.79-1.08,3.62-2.16,5.25c-0.65,0.98-1.18,2.06-1.81,3.07c-1.3,2.08-2.84,3.96-4.32,5.9c-1.3,1.71-2.93,3.13-4.27,4.79
	c-0.63,0.79-1.61,1.23-2.12,2.15c-1.09,0.73-1.81,1.84-2.86,2.64c-1.04,0.79-1.89,1.81-2.85,2.7c-0.7,0.64-1.46,1.23-2.19,1.84
	c-0.22,0.19-0.48,0.36-0.43,0.79c0.2,0.03,0.43,0.13,0.63,0.09c1.99-0.37,4-0.49,6.02-0.57c3.59-0.15,7.09,0.13,10.47,1.52
	c1.06,0.44,2.05,0.93,2.95,1.6c0.37,0.28,0.68,0.65,1,0.99c0.17,0.17,0.28,0.44,0.48,0.51c1.01,0.36,1.39,1.32,1.85,2.1
	c1.09,1.86,1.96,3.82,1.79,6.08c-0.02,0.34,0.13,0.7,0.2,1.04c0.52,0.45,1.14,0.36,1.72,0.38c2.38,0.12,4.78,0.11,7.14,0.36
	c3.26,0.34,6.53,0.71,9.64,1.84c1.52,0.55,2.99,1.21,4.08,2.49c0.18,0.21,0.41,0.42,0.32,0.76c-0.11,0.01-0.25,0.08-0.31,0.03
	c-2.48-2.2-5.55-2.93-8.68-3.51c-3.06-0.57-6.16-0.68-9.25-0.91c-1.13-0.08-2.26-0.07-3.39-0.07c-0.41,0-0.82,0.07-1.25,0.11
	c-0.28,1.2-0.56,2.35-0.81,3.49c-0.56,2.53-1.55,4.9-2.82,7.12c-1.09,1.9-2.16,3.84-3.55,5.55c-1.39,1.71-2.7,3.47-4.2,5.09
	c-2.44,2.64-5.09,5.02-7.91,7.23s-5.79,4.19-8.88,6c-4.65,2.72-9.48,5.04-14.52,6.9c-1.56,0.58-3.2,0.94-4.76,1.53
	c-1.9,0.73-3.86,1.19-5.83,1.64c-3.85,0.9-7.75,1.35-11.71,1.23c-3.5-0.1-6.87-0.83-9.98-2.46c-3.11-1.63-5.48-4.02-6.63-7.42
	c-0.74-2.2-0.77-4.46-0.07-6.69c1.03-3.31,2.88-6.14,5.28-8.61c2.67-2.74,5.67-5.1,8.92-7.13c1.31-0.82,2.67-1.57,4.12-2.41
	c0.28-0.53,0.61-1.15,0.94-1.78c0.91-1.81,1.77-3.65,2.74-5.42c0.95-1.72,2.02-3.36,3.03-5.05c1.58-2.67,3.45-5.14,5.3-7.62
	c1.6-2.14,3.22-4.29,4.96-6.31c1.47-1.71,2.85-3.51,4.52-5.05c0.68-0.63,1.14-1.52,1.66-2.31c0.46-0.7,0.88-1.41,1.29-2.14
	c0.52-0.93,0.99-1.89,1.53-2.81c1.05-1.79,2.14-3.57,3.22-5.34c1.15-1.88,2.27-3.77,3.48-5.61c1.48-2.23,3.05-4.39,4.55-6.6
	C158.57,6.43,159.22,5.97,160.02,5.53z M181.14,52.16c-0.41-0.04-0.71-0.11-0.99-0.1c-3.39,0.15-6.79,0.26-10.18,0.47
	c-2.68,0.16-5.35,0.4-8.02,0.67c-2.67,0.27-5.33,0.55-7.99,0.94c-5.25,0.77-10.43,1.89-15.53,3.34c-2.86,0.81-5.68,1.76-8.52,2.94
	c-0.52,0.78-1.17,1.56-1.61,2.45c-1.3,2.63-3.05,4.97-4.69,7.38c-0.77,1.13-1.64,2.2-2.93,2.96c-0.41,0-0.88,0-1.44,0
	c-0.2-0.33-0.53-0.65-0.6-1.01c-0.11-0.51-0.12-1.07-0.03-1.59c0.23-1.47,0.59-2.92,1.14-4.32c0.12-0.31,0.37-0.63,0.05-1.06
	c-0.19,0.09-0.4,0.16-0.59,0.27c-1.11,0.71-2.2,1.42-3.3,2.14c-3.47,2.25-6.59,4.91-9.09,8.23c-1.78,2.36-3.15,4.9-3.31,7.95
	c-0.09,1.84,0.26,3.57,1.12,5.18c1.53,2.87,4,4.69,6.96,5.86c2,0.79,4.12,1.14,6.27,1.32c4.63,0.37,9.15-0.3,13.62-1.39
	c2.66-0.65,5.29-1.42,7.85-2.38c5.14-1.91,10.13-4.2,14.82-7.02c4.13-2.49,8.11-5.22,11.69-8.49c2.86-2.62,5.6-5.34,7.99-8.41
	c0.4-0.52,0.91-0.97,1.22-1.53c1.11-1.96,2.54-3.72,3.46-5.82c0.79-1.8,1.71-3.54,2.19-5.46C180.96,54.59,181.28,53.5,181.14,52.16z
	 M125.59,62.45c-0.79,0.15-1.5,0.41-2.15,0.79c-0.53,0.31-0.93,0.73-1.14,1.32c-0.27,0.78-0.59,1.56-0.84,2.35
	c-0.3,0.96-0.61,1.91-0.78,3.03c0.27-0.14,0.46-0.17,0.55-0.28C122.94,67.44,124.31,65.02,125.59,62.45z M138.3,39.33
	c-0.3,0.28-0.63,0.53-0.88,0.84c-1.21,1.54-2.44,3.07-3.59,4.65c-1.22,1.69-2.33,3.45-3.52,5.15c-2.15,3.07-3.96,6.35-5.74,9.63
	c-0.34,0.62-0.4,0.92-0.48,1.89c1.08-0.45,2.11-0.88,2.94-1.23c2.23-3.5,3.95-7.03,5.9-10.42C134.87,46.46,136.61,42.97,138.3,39.33
	z M149.11,27.56c-0.99,0.87-1.87,1.81-2.47,3.02c-0.58,1.17-1.28,2.29-1.94,3.42c-0.45,0.77-0.96,1.51-1.39,2.29
	c-0.58,1.04-1.07,2.12-1.65,3.16c-1.38,2.5-2.8,4.99-4.19,7.48c-0.96,1.72-1.87,3.45-2.83,5.16c-1.15,2.05-2.33,4.1-3.57,6.29
	c0.65,0,1.14-0.21,1.64-0.37c1.98-0.63,3.96-1.32,5.96-1.89c5.63-1.59,11.37-2.65,17.16-3.36c3.31-0.4,6.64-0.73,9.96-1.01
	c4.46-0.37,8.92-0.61,13.39-0.7c0.65-0.01,1.29-0.09,2.03-0.14c0.04-0.46,0.15-0.87,0.11-1.26c-0.05-0.53-0.22-1.05-0.34-1.57
	c-0.66-3.09-2.51-5.2-5.34-6.49c-2.55-1.17-5.27-1.4-8.03-1.42c-1.98-0.02-3.91,0.37-5.86,0.61c-1.53,0.18-3.06,0.44-4.52,0.99
	c-0.28,0.1-0.58,0.17-0.87,0.22c-0.7,0.13-1.39,0.26-2.05,0.6c-0.52,0.27-1.17,0.32-1.66,0.62c-0.56,0.35-1.19,0.05-1.68,0.3
	c-0.25,0.24-0.44,0.49-0.69,0.63c-1.59,0.94-3.18,1.86-4.78,2.77c-0.52,0.3-1.07,0.53-1.71,0.45c-1.19-0.43-1.68-1.42-2.07-2.56
	c0.43-0.64,0.86-1.27,1.26-1.86c2.03-1.24,3.92-2.57,5.75-4c2.81-2.19,5.66-4.32,8.37-6.63c2.16-1.85,4.42-3.6,6.48-5.59
	c1.16-1.12,2.39-2.15,3.53-3.29c1.22-1.21,2.39-2.49,3.56-3.75c1.81-1.96,3.59-3.95,5.07-6.18c0.13-0.19,0.28-0.38,0.43-0.56
	c1.29-1.51,1.96-3.36,2.79-5.13c0.17-0.36,0.25-0.79-0.04-1.22c-0.7-0.26-1.4-0.02-2.04,0.25c-1.31,0.56-2.63,1.13-3.85,1.87
	c-2.7,1.64-5.29,3.43-7.84,5.29c-1.11,0.8-2.19,1.65-3.28,2.49c-1.45,1.12-2.91,2.25-4.34,3.39 M151.53,22.45
	c0.97-0.48,1.11-1.14,1.24-2.02C152.11,21,151.79,21.56,151.53,22.45z"/>
<g>
	<path class="st0" d="M4.59,45.55V34.26h2.77c1.26,0,2.18,0.23,2.76,0.7c0.58,0.47,0.87,1.17,0.87,2.12c0,0.11,0,0.19,0,0.25
		s-0.01,0.17-0.03,0.33c-0.02,0.16-0.05,0.3-0.09,0.41c-0.04,0.11-0.1,0.25-0.18,0.41s-0.18,0.31-0.3,0.43
		c-0.12,0.12-0.27,0.24-0.45,0.37c-0.19,0.12-0.4,0.23-0.63,0.31c0.71,0.12,1.25,0.43,1.63,0.95c0.38,0.52,0.57,1.13,0.57,1.83
		c0,1-0.28,1.78-0.85,2.34c-0.57,0.56-1.44,0.84-2.62,0.84H4.59z M5.46,39.29h2.33c0.36,0,0.67-0.03,0.93-0.09
		c0.26-0.06,0.5-0.17,0.71-0.32c0.21-0.15,0.37-0.37,0.48-0.66s0.16-0.64,0.16-1.07c0-0.79-0.22-1.34-0.66-1.64
		c-0.44-0.31-1.13-0.46-2.09-0.46H5.46V39.29z M5.46,44.79H7.8c1.84,0,2.77-0.81,2.77-2.42c0-0.87-0.25-1.48-0.76-1.82
		s-1.31-0.51-2.4-0.51H5.46V44.79z"/>
	<path class="st0" d="M17.14,45.55V34.26h0.88v10.43h4.57l-0.04,0.86H17.14z"/>
	<path class="st0" d="M27.87,45.55V34.26h5.66l-0.03,0.8h-4.75v4.25h4.52v0.83h-4.52v4.6h4.9l-0.08,0.81H27.87z"/>
	<path class="st0" d="M42.83,45.72c-0.86,0-1.62-0.1-2.28-0.3c-0.66-0.2-1.17-0.42-1.54-0.67l0.33-0.69
		c0.96,0.58,2.15,0.86,3.56,0.86c0.78,0,1.38-0.23,1.8-0.68c0.42-0.45,0.63-1.08,0.63-1.9c0-0.3-0.03-0.56-0.08-0.77
		c-0.05-0.21-0.14-0.41-0.28-0.6c-0.14-0.19-0.34-0.35-0.6-0.48c-0.26-0.13-0.6-0.24-1-0.33l-1.64-0.36
		c-0.91-0.2-1.6-0.52-2.06-0.96C39.23,38.42,39,37.8,39,37c0-0.52,0.09-0.97,0.27-1.35c0.18-0.38,0.44-0.69,0.79-0.91
		c0.34-0.23,0.74-0.4,1.19-0.5c0.45-0.11,0.97-0.16,1.55-0.16c0.57,0,1.13,0.08,1.68,0.23c0.55,0.16,1,0.33,1.35,0.53l-0.23,0.74
		c-0.27-0.17-0.67-0.32-1.19-0.47c-0.53-0.15-1.07-0.22-1.64-0.22c-0.96,0-1.68,0.18-2.16,0.53c-0.48,0.36-0.72,0.92-0.72,1.69
		c0,0.48,0.15,0.87,0.46,1.16c0.3,0.29,0.76,0.51,1.35,0.65l1.83,0.42c0.46,0.11,0.84,0.23,1.16,0.38s0.6,0.34,0.84,0.57
		c0.24,0.23,0.42,0.52,0.54,0.87c0.12,0.35,0.18,0.76,0.18,1.23c0,1.06-0.31,1.89-0.94,2.47C44.68,45.43,43.86,45.72,42.83,45.72z"
		/>
	<path class="st0" d="M55.26,45.72c-0.86,0-1.62-0.1-2.28-0.3c-0.66-0.2-1.17-0.42-1.54-0.67l0.33-0.69
		c0.96,0.58,2.15,0.86,3.56,0.86c0.78,0,1.38-0.23,1.8-0.68c0.42-0.45,0.63-1.08,0.63-1.9c0-0.3-0.03-0.56-0.08-0.77
		c-0.05-0.21-0.14-0.41-0.28-0.6c-0.14-0.19-0.34-0.35-0.6-0.48c-0.26-0.13-0.6-0.24-1-0.33l-1.64-0.36
		c-0.91-0.2-1.6-0.52-2.06-0.96c-0.46-0.43-0.69-1.05-0.69-1.86c0-0.52,0.09-0.97,0.27-1.35c0.18-0.38,0.44-0.69,0.79-0.91
		c0.34-0.23,0.74-0.4,1.19-0.5c0.45-0.11,0.97-0.16,1.55-0.16c0.57,0,1.13,0.08,1.68,0.23c0.55,0.16,1,0.33,1.35,0.53l-0.23,0.74
		c-0.27-0.17-0.67-0.32-1.19-0.47c-0.53-0.15-1.07-0.22-1.64-0.22c-0.96,0-1.68,0.18-2.16,0.53c-0.48,0.36-0.72,0.92-0.72,1.69
		c0,0.48,0.15,0.87,0.46,1.16c0.3,0.29,0.76,0.51,1.35,0.65l1.83,0.42c0.46,0.11,0.84,0.23,1.16,0.38s0.6,0.34,0.84,0.57
		c0.24,0.23,0.42,0.52,0.54,0.87c0.12,0.35,0.18,0.76,0.18,1.23c0,1.06-0.31,1.89-0.94,2.47C57.11,45.43,56.28,45.72,55.26,45.72z"
		/>
	<path class="st0" d="M64.51,45.55V34.26h0.87v11.29H64.51z"/>
	<path class="st0" d="M71.86,45.55V34.26h1.02l5.59,9.52l0.36,0.55c-0.03-1.56-0.05-2.53-0.05-2.91v-7.17h0.83v11.29h-1.04
		l-5.58-9.5l-0.35-0.55c0.04,1.14,0.05,2.12,0.05,2.94v7.12H71.86z"/>
	<path class="st0" d="M90.37,45.72c-0.62,0-1.19-0.1-1.71-0.29c-0.52-0.19-0.97-0.47-1.35-0.82c-0.38-0.35-0.7-0.76-0.96-1.25
		c-0.26-0.48-0.46-1.01-0.59-1.59c-0.13-0.58-0.19-1.19-0.19-1.84c0-1.14,0.19-2.15,0.57-3.02c0.38-0.88,0.95-1.57,1.71-2.08
		s1.66-0.77,2.69-0.77c1.14,0,2.15,0.29,3.03,0.87l-0.39,0.78c-0.37-0.25-0.8-0.46-1.27-0.61c-0.47-0.15-0.93-0.23-1.37-0.23
		c-0.66,0-1.26,0.13-1.78,0.39c-0.52,0.26-0.94,0.63-1.27,1.09c-0.32,0.46-0.57,1-0.73,1.6c-0.17,0.6-0.25,1.26-0.25,1.96
		c0,0.75,0.08,1.43,0.25,2.04c0.17,0.61,0.42,1.13,0.76,1.57c0.34,0.44,0.77,0.78,1.3,1.02c0.53,0.24,1.14,0.36,1.83,0.36
		c0.71,0,1.5-0.19,2.36-0.57v-3.61h-2.52l0.05-0.84h3.28v4.98c-0.56,0.32-1.09,0.54-1.61,0.66C91.7,45.66,91.08,45.72,90.37,45.72z"
		/>
	<path class="st0" d="M99.95,45.55V34.26h5.66l-0.03,0.8h-4.75v4.25h4.52v0.83h-4.52v4.6h4.9l-0.08,0.81H99.95z"/>
	<path class="st0" d="M111.66,45.55V34.26h2.89c0.37,0,0.69,0.01,0.96,0.02c0.27,0.02,0.55,0.05,0.83,0.1
		c0.28,0.05,0.52,0.12,0.72,0.2c0.2,0.08,0.39,0.2,0.57,0.34s0.32,0.31,0.43,0.51s0.19,0.44,0.26,0.72
		c0.06,0.28,0.09,0.59,0.09,0.95c0,0.69-0.15,1.29-0.46,1.78c-0.3,0.5-0.77,0.83-1.4,1.01c0.27,0.62,0.48,1.1,0.61,1.42l1.67,4.24
		h-1.02l-1.43-3.86c-0.1-0.25-0.31-0.8-0.64-1.64c-0.09,0.02-0.43,0.02-1.01,0.02l-2.2-0.05v5.52H111.66z M115.11,39.27
		c0.91,0,1.54-0.18,1.9-0.53c0.36-0.35,0.54-0.89,0.54-1.63c0-0.66-0.16-1.16-0.49-1.51c-0.33-0.35-0.88-0.53-1.66-0.53h-2.86v4.17
		C113.61,39.26,114.47,39.27,115.11,39.27z"/>
	<path class="st0" d="M194.24,45.55l3.97-11.29h0.84l3.82,11.29h-0.9l-1.3-3.83h-4.21l-1.35,3.83H194.24z M196.79,41.01h3.56
		c-1.02-3.27-1.6-5.19-1.74-5.77c-0.05,0.22-0.23,0.81-0.54,1.77c-0.31,0.96-0.6,1.87-0.87,2.72L196.79,41.01z"/>
	<path class="st0" d="M208.07,45.55V34.26h2.89c0.37,0,0.69,0.01,0.96,0.02s0.55,0.05,0.83,0.1c0.28,0.05,0.52,0.12,0.72,0.2
		s0.39,0.2,0.57,0.34s0.32,0.31,0.43,0.51s0.2,0.44,0.26,0.72c0.06,0.28,0.09,0.59,0.09,0.95c0,0.69-0.15,1.29-0.46,1.78
		c-0.3,0.5-0.77,0.83-1.4,1.01c0.27,0.62,0.48,1.1,0.61,1.42l1.67,4.24h-1.02l-1.43-3.86c-0.09-0.25-0.31-0.8-0.64-1.64
		c-0.09,0.02-0.43,0.02-1.01,0.02l-2.2-0.05v5.52H208.07z M211.51,39.27c0.91,0,1.54-0.18,1.9-0.53c0.36-0.35,0.54-0.89,0.54-1.63
		c0-0.66-0.16-1.16-0.49-1.51s-0.88-0.53-1.66-0.53h-2.86v4.17C210.01,39.26,210.87,39.27,211.51,39.27z"/>
	<path class="st0" d="M223.09,45.55V35.1h-3.2v-0.83h7.28v0.83h-3.2v10.45H223.09z"/>
	<path class="st0" d="M238.66,45.72c-0.61,0-1.13-0.08-1.58-0.24c-0.45-0.16-0.8-0.38-1.06-0.66c-0.26-0.28-0.45-0.6-0.57-0.96
		c-0.12-0.36-0.18-0.75-0.18-1.19c0-0.42,0.05-0.81,0.16-1.16c0.11-0.35,0.27-0.67,0.48-0.96s0.46-0.54,0.73-0.77
		s0.6-0.45,0.99-0.68c-0.17-0.22-0.29-0.39-0.37-0.5c-0.08-0.11-0.18-0.25-0.3-0.43c-0.12-0.18-0.21-0.33-0.26-0.45
		c-0.05-0.12-0.11-0.26-0.17-0.42s-0.11-0.32-0.13-0.47s-0.03-0.32-0.03-0.49c0-0.67,0.22-1.22,0.67-1.65s1.08-0.64,1.89-0.64
		c0.69,0,1.26,0.21,1.71,0.62s0.67,0.99,0.67,1.72c0,0.31-0.06,0.61-0.18,0.89c-0.12,0.28-0.3,0.54-0.54,0.78
		c-0.24,0.24-0.5,0.45-0.78,0.65c-0.28,0.19-0.62,0.39-1.01,0.6l3.47,4.04c0.32-0.38,0.58-0.84,0.79-1.39l0.49,0.43
		c-0.19,0.5-0.47,1-0.83,1.5l1.06,1.17l-0.51,0.52l-1.05-1.16c-0.48,0.4-1.01,0.72-1.59,0.94C240.07,45.6,239.4,45.72,238.66,45.72z
		 M238.58,44.99c0.6,0,1.19-0.1,1.78-0.3c0.58-0.2,1.04-0.47,1.39-0.8l-3.58-4.2c-1.38,0.83-2.06,1.84-2.06,3.01
		c0,0.39,0.07,0.74,0.2,1.04c0.13,0.3,0.32,0.54,0.55,0.72s0.5,0.31,0.79,0.4C237.93,44.94,238.24,44.99,238.58,44.99z
		 M238.41,38.79c0.16-0.09,0.29-0.16,0.38-0.21c0.09-0.05,0.21-0.12,0.35-0.21c0.15-0.09,0.26-0.17,0.34-0.23
		c0.08-0.06,0.18-0.14,0.3-0.23c0.12-0.09,0.21-0.18,0.27-0.26c0.07-0.08,0.14-0.17,0.21-0.28c0.08-0.11,0.14-0.21,0.17-0.31
		c0.04-0.1,0.07-0.22,0.1-0.35s0.04-0.26,0.04-0.39c0-0.48-0.15-0.84-0.45-1.1c-0.3-0.26-0.67-0.39-1.11-0.39
		c-0.67,0-1.15,0.14-1.45,0.41c-0.3,0.27-0.44,0.64-0.44,1.11c0,0.38,0.13,0.8,0.4,1.26C237.78,38.07,238.08,38.46,238.41,38.79z"/>
	<path class="st0" d="M253.95,45.55V34.26h2.75c0.83,0,1.57,0.11,2.22,0.33s1.22,0.55,1.7,1c0.48,0.45,0.85,1.04,1.11,1.77
		c0.26,0.73,0.39,1.58,0.39,2.56c0,1.85-0.46,3.25-1.37,4.2c-0.92,0.96-2.2,1.43-3.84,1.43H253.95z M254.83,44.74h1.99
		c1.41,0,2.49-0.4,3.23-1.2c0.74-0.8,1.11-2,1.11-3.58c0-0.87-0.1-1.62-0.31-2.25c-0.21-0.63-0.51-1.14-0.91-1.52
		c-0.4-0.38-0.87-0.66-1.42-0.84s-1.18-0.27-1.89-0.27h-1.8V44.74z"/>
	<path class="st0" d="M268.1,45.55V34.26h5.66l-0.03,0.8h-4.75v4.25h4.52v0.83h-4.52v4.6h4.9l-0.08,0.81H268.1z"/>
	<path class="st0" d="M283.06,45.72c-0.86,0-1.62-0.1-2.28-0.3c-0.66-0.2-1.17-0.42-1.54-0.67l0.33-0.69
		c0.96,0.58,2.15,0.86,3.56,0.86c0.78,0,1.38-0.23,1.8-0.68c0.42-0.45,0.63-1.08,0.63-1.9c0-0.3-0.03-0.56-0.08-0.77
		s-0.14-0.41-0.28-0.6c-0.14-0.19-0.34-0.35-0.6-0.48c-0.26-0.13-0.6-0.24-1-0.33l-1.64-0.36c-0.92-0.2-1.6-0.52-2.06-0.96
		c-0.46-0.43-0.69-1.05-0.69-1.86c0-0.52,0.09-0.97,0.27-1.35s0.45-0.69,0.79-0.91c0.34-0.23,0.74-0.4,1.19-0.5s0.97-0.16,1.55-0.16
		c0.57,0,1.13,0.08,1.68,0.23c0.55,0.16,1,0.33,1.35,0.53l-0.23,0.74c-0.27-0.17-0.67-0.32-1.19-0.47
		c-0.53-0.15-1.07-0.22-1.64-0.22c-0.96,0-1.68,0.18-2.16,0.53c-0.48,0.36-0.72,0.92-0.72,1.69c0,0.48,0.15,0.87,0.46,1.16
		c0.3,0.29,0.75,0.51,1.35,0.65l1.83,0.42c0.46,0.11,0.84,0.23,1.16,0.38s0.6,0.34,0.84,0.57c0.24,0.23,0.42,0.52,0.54,0.87
		s0.18,0.76,0.18,1.23c0,1.06-0.31,1.89-0.94,2.47C284.91,45.43,284.09,45.72,283.06,45.72z"/>
	<path class="st0" d="M292.31,45.55V34.26h0.87v11.29H292.31z"/>
	<path class="st0" d="M304.02,45.72c-0.62,0-1.19-0.1-1.71-0.29c-0.52-0.19-0.97-0.47-1.35-0.82c-0.38-0.35-0.7-0.76-0.96-1.25
		c-0.26-0.48-0.46-1.01-0.59-1.59s-0.19-1.19-0.19-1.84c0-1.14,0.19-2.15,0.57-3.02c0.38-0.88,0.95-1.57,1.71-2.08
		s1.66-0.77,2.69-0.77c1.14,0,2.15,0.29,3.03,0.87l-0.39,0.78c-0.37-0.25-0.79-0.46-1.27-0.61c-0.47-0.15-0.93-0.23-1.37-0.23
		c-0.67,0-1.26,0.13-1.78,0.39c-0.52,0.26-0.94,0.63-1.27,1.09c-0.32,0.46-0.57,1-0.73,1.6c-0.17,0.6-0.25,1.26-0.25,1.96
		c0,0.75,0.08,1.43,0.25,2.04c0.17,0.61,0.42,1.13,0.76,1.57c0.34,0.44,0.77,0.78,1.3,1.02c0.53,0.24,1.14,0.36,1.83,0.36
		c0.71,0,1.5-0.19,2.36-0.57v-3.61h-2.52l0.05-0.84h3.28v4.98c-0.55,0.32-1.09,0.54-1.61,0.66
		C305.36,45.66,304.74,45.72,304.02,45.72z"/>
	<path class="st0" d="M313.6,45.55V34.26h1.02l5.59,9.52l0.36,0.55c-0.03-1.56-0.05-2.53-0.05-2.91v-7.17h0.83v11.29h-1.04
		l-5.58-9.5l-0.35-0.55c0.04,1.14,0.05,2.12,0.05,2.94v7.12H313.6z"/>
</g>
</svg>
