<?xml version="1.0" encoding="UTF-8" standalone="no"?>
<!DOCTYPE svg PUBLIC "-//W3C//DTD SVG 1.1//EN" "http://www.w3.org/Graphics/SVG/1.1/DTD/svg11.dtd">
<svg width="100%" height="100%" viewBox="0 0 620 200" version="1.1" xmlns="http://www.w3.org/2000/svg" xmlns:xlink="http://www.w3.org/1999/xlink" xml:space="preserve" xmlns:serif="http://www.serif.com/" style="fill-rule:evenodd;clip-rule:evenodd;stroke-linejoin:round;stroke-miterlimit:2;">
    <g transform="matrix(1.41417,0,0,1.41417,288.132,153.569)">
        <path d="M0,-76.366C1.299,-77.012 1.482,-77.894 1.659,-79.069C0.778,-78.305 0.352,-77.555 0,-76.366M-3.239,-69.528C-4.565,-68.366 -5.746,-67.099 -6.543,-65.479C-7.321,-63.906 -8.254,-62.411 -9.143,-60.895C-9.742,-59.864 -10.429,-58.878 -11.003,-57.834C-11.774,-56.442 -12.441,-54.993 -13.211,-53.601C-15.065,-50.251 -16.959,-46.922 -18.826,-43.577C-20.106,-41.279 -21.335,-38.953 -22.621,-36.661C-24.156,-33.92 -25.736,-31.164 -27.401,-28.231C-26.526,-28.237 -25.873,-28.518 -25.207,-28.728C-22.549,-29.576 -19.904,-30.491 -17.221,-31.255C-9.685,-33.39 -1.997,-34.807 5.767,-35.761C10.201,-36.303 14.654,-36.733 19.108,-37.112C25.077,-37.614 31.051,-37.934 37.046,-38.053C37.915,-38.072 38.777,-38.171 39.764,-38.236C39.823,-38.856 39.966,-39.398 39.914,-39.921C39.842,-40.632 39.612,-41.325 39.463,-42.023C38.581,-46.163 36.099,-48.984 32.306,-50.721C28.89,-52.282 25.253,-52.595 21.55,-52.628C18.899,-52.655 16.312,-52.126 13.701,-51.805C11.65,-51.558 9.607,-51.211 7.654,-50.48C7.281,-50.343 6.883,-50.258 6.492,-50.179C5.551,-50.003 4.624,-49.827 3.742,-49.376C3.043,-49.017 2.182,-48.952 1.522,-48.547C0.771,-48.077 -0.072,-48.475 -0.732,-48.148C-1.071,-47.828 -1.318,-47.495 -1.651,-47.3C-3.774,-46.046 -5.91,-44.811 -8.051,-43.584C-8.751,-43.185 -9.489,-42.873 -10.343,-42.976C-11.931,-43.552 -12.59,-44.877 -13.12,-46.411C-12.544,-47.267 -11.963,-48.115 -11.435,-48.899C-8.711,-50.558 -6.191,-52.341 -3.735,-54.255C0.027,-57.186 3.853,-60.041 7.477,-63.135C10.377,-65.617 13.4,-67.955 16.15,-70.62C17.697,-72.115 19.349,-73.505 20.877,-75.02C22.517,-76.646 24.084,-78.35 25.651,-80.05C28.074,-82.675 30.457,-85.339 32.443,-88.33C32.62,-88.59 32.814,-88.839 33.024,-89.081C34.754,-91.105 35.656,-93.587 36.766,-95.951C36.995,-96.433 37.099,-97.015 36.707,-97.59C35.766,-97.935 34.832,-97.623 33.978,-97.257C32.221,-96.506 30.451,-95.742 28.825,-94.756C25.214,-92.56 21.733,-90.158 18.317,-87.677C16.835,-86.599 15.386,-85.47 13.929,-84.345C11.983,-82.844 10.037,-81.336 8.111,-79.807M-17.71,-53.758C-18.109,-53.387 -18.558,-53.054 -18.891,-52.628C-20.517,-50.571 -22.164,-48.52 -23.699,-46.398C-25.331,-44.138 -26.813,-41.781 -28.407,-39.495C-31.286,-35.382 -33.709,-30.993 -36.093,-26.593C-36.543,-25.756 -36.635,-25.365 -36.739,-24.058C-35.296,-24.665 -33.918,-25.241 -32.802,-25.704C-29.81,-30.392 -27.505,-35.114 -24.9,-39.659C-22.314,-44.204 -19.975,-48.881 -17.71,-53.758M-34.741,-22.791C-35.798,-22.589 -36.745,-22.243 -37.62,-21.734C-38.326,-21.323 -38.868,-20.761 -39.149,-19.964C-39.515,-18.913 -39.939,-17.88 -40.272,-16.816C-40.671,-15.537 -41.095,-14.263 -41.317,-12.761C-40.951,-12.943 -40.696,-12.983 -40.585,-13.134C-38.293,-16.111 -36.445,-19.349 -34.741,-22.791M39.665,-36.57C39.11,-36.63 38.718,-36.72 38.333,-36.708C33.788,-36.512 29.242,-36.355 24.704,-36.081C21.12,-35.864 17.541,-35.539 13.963,-35.178C10.389,-34.82 6.817,-34.441 3.266,-33.926C-3.768,-32.899 -10.703,-31.398 -17.54,-29.459C-21.373,-28.368 -25.154,-27.107 -28.949,-25.514C-29.641,-24.475 -30.522,-23.426 -31.11,-22.229C-32.848,-18.704 -35.191,-15.575 -37.386,-12.349C-38.411,-10.841 -39.587,-9.405 -41.304,-8.385L-43.237,-8.385C-43.511,-8.823 -43.942,-9.254 -44.047,-9.744C-44.197,-10.424 -44.203,-11.175 -44.093,-11.873C-43.779,-13.845 -43.309,-15.784 -42.564,-17.652C-42.4,-18.07 -42.075,-18.502 -42.499,-19.069C-42.754,-18.951 -43.041,-18.86 -43.296,-18.704C-44.778,-17.757 -46.248,-16.803 -47.723,-15.843C-52.373,-12.826 -56.545,-9.267 -59.895,-4.821C-62.28,-1.66 -64.121,1.737 -64.33,5.825C-64.454,8.286 -63.977,10.612 -62.828,12.76C-60.777,16.6 -57.473,19.042 -53.509,20.609C-50.826,21.674 -47.984,22.137 -45.112,22.372C-38.914,22.869 -32.854,21.967 -26.872,20.505C-23.313,19.636 -19.787,18.597 -16.352,17.318C-9.468,14.758 -2.788,11.696 3.494,7.914C9.025,4.583 14.36,0.927 19.154,-3.455C22.987,-6.962 26.657,-10.613 29.857,-14.713C30.393,-15.406 31.072,-16.013 31.496,-16.764C32.985,-19.395 34.898,-21.747 36.126,-24.555C37.183,-26.964 38.412,-29.302 39.058,-31.868C39.431,-33.312 39.848,-34.774 39.665,-36.57M11.382,-99.033C12.095,-98.882 12.858,-98.72 13.596,-98.563C14.145,-97.59 14.321,-96.676 14.034,-95.702C13.649,-94.403 13.328,-93.077 12.799,-91.837C11.865,-89.648 10.794,-87.52 9.776,-85.351C10.122,-84.94 10.462,-85.208 10.769,-85.443C12.603,-86.854 14.432,-88.277 16.268,-89.688C20.375,-92.855 24.757,-95.604 29.21,-98.243C30.843,-99.216 32.612,-99.972 34.421,-100.619C35.832,-101.123 37.217,-101.246 38.758,-100.691C39.142,-100.339 39.606,-99.915 40.07,-99.496C40.475,-98.165 41.004,-96.891 40.527,-95.493C39.711,-93.09 39.085,-90.641 37.628,-88.468C36.753,-87.16 36.047,-85.705 35.205,-84.353C33.468,-81.57 31.405,-79.044 29.426,-76.444C27.682,-74.152 25.508,-72.259 23.711,-70.025C22.863,-68.973 21.556,-68.373 20.877,-67.151C19.422,-66.173 18.448,-64.682 17.044,-63.619C15.654,-62.567 14.517,-61.19 13.225,-60.001C12.284,-59.138 11.272,-58.355 10.292,-57.532C9.992,-57.277 9.645,-57.05 9.71,-56.468C9.978,-56.423 10.286,-56.292 10.56,-56.345C13.225,-56.841 15.915,-57.003 18.625,-57.115C23.437,-57.31 28.12,-56.937 32.652,-55.078C34.075,-54.489 35.401,-53.836 36.609,-52.929C37.112,-52.556 37.516,-52.054 37.955,-51.602C38.176,-51.382 38.333,-51.014 38.594,-50.924C39.952,-50.441 40.456,-49.154 41.069,-48.109C42.526,-45.621 43.688,-42.989 43.473,-39.971C43.439,-39.515 43.642,-39.039 43.734,-38.582C44.426,-37.974 45.255,-38.105 46.039,-38.072C49.232,-37.916 52.439,-37.928 55.606,-37.595C59.968,-37.137 64.35,-36.648 68.517,-35.135C70.547,-34.396 72.519,-33.507 73.976,-31.803C74.223,-31.516 74.531,-31.235 74.406,-30.784C74.263,-30.765 74.067,-30.68 73.995,-30.745C70.678,-33.697 66.564,-34.671 62.371,-35.447C58.277,-36.205 54.123,-36.361 49.983,-36.661C48.475,-36.773 46.953,-36.754 45.438,-36.76C44.89,-36.76 44.341,-36.661 43.76,-36.61C43.381,-35.004 43.009,-33.469 42.669,-31.933C41.919,-28.552 40.593,-25.365 38.889,-22.392C37.432,-19.846 36.002,-17.254 34.128,-14.955C32.266,-12.67 30.509,-10.305 28.498,-8.132C25.233,-4.597 21.674,-1.411 17.906,1.547C14.138,4.505 10.155,7.156 6.014,9.579C-0.209,13.216 -6.68,16.324 -13.432,18.826C-15.522,19.603 -17.723,20.079 -19.806,20.876C-22.347,21.857 -24.979,22.464 -27.61,23.077C-32.762,24.28 -37.987,24.88 -43.29,24.73C-47.978,24.592 -52.496,23.613 -56.656,21.438C-60.817,19.257 -63.997,16.05 -65.531,11.499C-66.524,8.554 -66.563,5.53 -65.629,2.533C-64.245,-1.901 -61.776,-5.694 -58.563,-9C-54.984,-12.676 -50.963,-15.83 -46.613,-18.553C-44.857,-19.65 -43.041,-20.65 -41.089,-21.785C-40.716,-22.491 -40.266,-23.326 -39.834,-24.176C-38.613,-26.598 -37.464,-29.06 -36.158,-31.438C-34.891,-33.736 -33.447,-35.944 -32.102,-38.203C-29.98,-41.774 -27.486,-45.093 -25.004,-48.41C-22.856,-51.282 -20.694,-54.15 -18.356,-56.866C-16.384,-59.158 -14.543,-61.568 -12.302,-63.632C-11.389,-64.473 -10.775,-65.663 -10.075,-66.727C-9.462,-67.662 -8.901,-68.621 -8.352,-69.594C-7.653,-70.842 -7.026,-72.128 -6.301,-73.362C-4.89,-75.759 -3.435,-78.141 -1.985,-80.512C-0.443,-83.027 1.052,-85.568 2.678,-88.022C4.656,-91.007 6.766,-93.899 8.778,-96.864C9.43,-97.817 10.305,-98.439 11.382,-99.033" style="fill:white;fill-rule:nonzero;"/>
    </g>
    <g transform="matrix(1.41417,0,0,1.41417,11.4659,69.3834)">
        <path d="M0,13.087L3.137,13.087C5.606,13.087 6.84,12.007 6.84,9.846C6.84,8.674 6.499,7.859 5.816,7.402C5.133,6.945 4.063,6.716 2.606,6.716L0,6.716L0,13.087ZM0,5.721L3.118,5.721C3.6,5.721 4.015,5.68 4.362,5.599C4.709,5.518 5.025,5.373 5.308,5.167C5.592,4.96 5.805,4.666 5.949,4.283C6.092,3.9 6.164,3.425 6.164,2.856C6.164,1.799 5.87,1.066 5.281,0.655C4.693,0.246 3.762,0.041 2.488,0.041L0,0.041L0,5.721ZM-1.17,14.103L-1.17,-1.016L2.543,-1.016C4.231,-1.016 5.464,-0.704 6.241,-0.081C7.019,0.542 7.407,1.49 7.407,2.764C7.407,2.913 7.406,3.024 7.403,3.1C7.399,3.174 7.385,3.321 7.361,3.541C7.337,3.761 7.299,3.946 7.247,4.095C7.195,4.244 7.115,4.429 7.005,4.649C6.895,4.869 6.762,5.06 6.607,5.223C6.452,5.385 6.249,5.55 5.999,5.715C5.749,5.882 5.465,6.019 5.149,6.127C6.1,6.283 6.828,6.706 7.334,7.397C7.84,8.088 8.093,8.904 8.093,9.846C8.093,11.18 7.712,12.224 6.95,12.976C6.188,13.727 5.017,14.103 3.439,14.103L-1.17,14.103Z" style="fill:white;fill-rule:nonzero;"/>
    </g>
    <g transform="matrix(1.41417,0,0,1.41417,33.5856,67.9475)">
        <path d="M0,15.118L0,0L1.179,0L1.179,13.97L7.297,13.97L7.242,15.118L0,15.118Z" style="fill:white;fill-rule:nonzero;"/>
    </g>
    <g transform="matrix(1.41417,0,0,1.41417,53.9067,67.9475)">
        <path d="M0,15.118L0,0L7.58,0L7.535,1.076L1.17,1.076L1.17,6.766L7.224,6.766L7.224,7.874L1.17,7.874L1.17,14.031L7.736,14.031L7.635,15.118L0,15.118Z" style="fill:white;fill-rule:nonzero;"/>
    </g>
    <g transform="matrix(1.41417,0,0,1.41417,82.2444,67.5733)">
        <path d="M0,15.616C-1.152,15.616 -2.17,15.481 -3.054,15.21C-3.938,14.939 -4.624,14.641 -5.112,14.316L-4.673,13.391C-3.386,14.164 -1.795,14.55 0.101,14.55C1.143,14.55 1.946,14.248 2.51,13.645C3.074,13.043 3.356,12.193 3.356,11.095C3.356,10.688 3.322,10.347 3.256,10.069C3.188,9.791 3.063,9.526 2.881,9.271C2.698,9.017 2.431,8.804 2.08,8.631C1.73,8.459 1.283,8.311 0.741,8.189L-1.454,7.702C-2.679,7.431 -3.598,7.004 -4.211,6.422C-4.823,5.839 -5.13,5.01 -5.13,3.932C-5.13,3.234 -5.008,2.63 -4.764,2.119C-4.52,1.607 -4.168,1.199 -3.707,0.894C-3.248,0.59 -2.714,0.365 -2.108,0.219C-1.501,0.073 -0.811,0 -0.037,0C0.732,0 1.483,0.105 2.218,0.315C2.952,0.525 3.554,0.762 4.024,1.026L3.722,2.022C3.362,1.799 2.831,1.587 2.126,1.387C1.422,1.187 0.692,1.088 -0.064,1.088C-1.35,1.088 -2.316,1.326 -2.963,1.803C-3.609,2.281 -3.932,3.035 -3.932,4.064C-3.932,4.708 -3.728,5.224 -3.319,5.613C-2.911,6.004 -2.307,6.293 -1.509,6.482L0.942,7.041C1.551,7.183 2.068,7.353 2.492,7.55C2.916,7.746 3.291,8 3.617,8.311C3.943,8.623 4.185,9.011 4.344,9.474C4.502,9.938 4.581,10.489 4.581,11.126C4.581,12.549 4.162,13.652 3.324,14.438C2.486,15.224 1.378,15.616 0,15.616" style="fill:white;fill-rule:nonzero;"/>
    </g>
    <g transform="matrix(1.41417,0,0,1.41417,105.786,67.5733)">
        <path d="M0,15.616C-1.152,15.616 -2.17,15.481 -3.054,15.21C-3.938,14.939 -4.624,14.641 -5.112,14.316L-4.673,13.391C-3.386,14.164 -1.795,14.55 0.101,14.55C1.143,14.55 1.946,14.248 2.51,13.645C3.074,13.043 3.356,12.193 3.356,11.095C3.356,10.688 3.322,10.347 3.256,10.069C3.188,9.791 3.063,9.526 2.881,9.271C2.698,9.017 2.431,8.804 2.08,8.631C1.73,8.459 1.283,8.311 0.741,8.189L-1.454,7.702C-2.679,7.431 -3.598,7.004 -4.211,6.422C-4.823,5.839 -5.13,5.01 -5.13,3.932C-5.13,3.234 -5.008,2.63 -4.764,2.119C-4.52,1.607 -4.168,1.199 -3.707,0.894C-3.248,0.59 -2.714,0.365 -2.108,0.219C-1.501,0.073 -0.811,0 -0.037,0C0.732,0 1.483,0.105 2.218,0.315C2.952,0.525 3.555,0.762 4.024,1.026L3.722,2.022C3.362,1.799 2.831,1.587 2.126,1.387C1.422,1.187 0.692,1.088 -0.064,1.088C-1.35,1.088 -2.316,1.326 -2.963,1.803C-3.609,2.281 -3.932,3.035 -3.932,4.064C-3.932,4.708 -3.728,5.224 -3.319,5.613C-2.911,6.004 -2.307,6.293 -1.509,6.482L0.942,7.041C1.551,7.183 2.068,7.353 2.492,7.55C2.916,7.746 3.291,8 3.617,8.311C3.943,8.623 4.185,9.011 4.344,9.474C4.502,9.938 4.581,10.489 4.581,11.126C4.581,12.549 4.162,13.652 3.324,14.438C2.486,15.224 1.378,15.616 0,15.616" style="fill:white;fill-rule:nonzero;"/>
    </g>
    <g transform="matrix(1.41417,0,0,1.41417,-220.152,-708.959)">
        <rect x="242.875" y="549.372" width="1.17" height="15.118" style="fill:white;"/>
    </g>
    <g transform="matrix(1.41417,0,0,1.41417,137.235,67.9475)">
        <path d="M0,15.118L0,0L1.362,0L8.852,12.751L9.336,13.492C9.293,11.406 9.272,10.109 9.272,9.601L9.272,0L10.379,0L10.379,15.118L8.989,15.118L1.518,2.388L1.052,1.645C1.1,3.17 1.125,4.483 1.125,5.588L1.125,15.118L0,15.118Z" style="fill:white;fill-rule:nonzero;"/>
    </g>
    <g transform="matrix(1.41417,0,0,1.41417,172.297,67.5733)">
        <path d="M0,15.616C-0.829,15.616 -1.592,15.486 -2.29,15.225C-2.989,14.965 -3.59,14.6 -4.097,14.133C-4.602,13.666 -5.031,13.109 -5.381,12.462C-5.732,11.814 -5.994,11.103 -6.168,10.328C-6.341,9.553 -6.428,8.731 -6.428,7.864C-6.428,6.34 -6.172,4.991 -5.66,3.815C-5.148,2.64 -4.384,1.711 -3.369,1.026C-2.354,0.343 -1.152,0 0.238,0C1.762,0 3.116,0.389 4.298,1.169L3.777,2.216C3.277,1.877 2.711,1.604 2.08,1.397C1.45,1.19 0.838,1.088 0.247,1.088C-0.643,1.088 -1.437,1.263 -2.135,1.616C-2.833,1.969 -3.398,2.454 -3.831,3.073C-4.264,3.693 -4.592,4.406 -4.814,5.213C-5.037,6.018 -5.148,6.895 -5.148,7.844C-5.148,8.853 -5.035,9.764 -4.81,10.577C-4.584,11.389 -4.246,12.093 -3.794,12.685C-3.343,13.278 -2.764,13.735 -2.057,14.057C-1.35,14.379 -0.533,14.54 0.394,14.54C1.35,14.54 2.405,14.286 3.558,13.777L3.558,8.941L0.183,8.941L0.256,7.813L4.645,7.813L4.645,14.478C3.902,14.905 3.181,15.202 2.483,15.368C1.785,15.533 0.957,15.616 0,15.616" style="fill:white;fill-rule:nonzero;"/>
    </g>
    <g transform="matrix(1.41417,0,0,1.41417,190.446,67.9475)">
        <path d="M0,15.118L0,0L7.58,0L7.535,1.076L1.17,1.076L1.17,6.766L7.224,6.766L7.224,7.874L1.17,7.874L1.17,14.031L7.736,14.031L7.635,15.118L0,15.118Z" style="fill:white;fill-rule:nonzero;"/>
    </g>
    <g transform="matrix(1.41417,0,0,1.41417,219.161,79.8447)">
        <path d="M0,-1.708C1.213,-1.708 2.06,-1.942 2.542,-2.413C3.023,-2.884 3.264,-3.61 3.264,-4.593C3.264,-5.474 3.046,-6.148 2.611,-6.62C2.174,-7.091 1.432,-7.326 0.384,-7.326L-3.448,-7.326L-3.448,-1.737C-2.015,-1.718 -0.866,-1.708 0,-1.708M-4.618,6.705L-4.618,-8.413L-0.741,-8.413C-0.247,-8.413 0.181,-8.403 0.544,-8.383C0.906,-8.362 1.277,-8.318 1.655,-8.251C2.033,-8.183 2.354,-8.093 2.62,-7.981C2.885,-7.869 3.138,-7.719 3.379,-7.529C3.619,-7.34 3.813,-7.111 3.959,-6.844C4.106,-6.576 4.22,-6.256 4.302,-5.884C4.384,-5.511 4.426,-5.088 4.426,-4.613C4.426,-3.686 4.221,-2.89 3.813,-2.226C3.405,-1.562 2.779,-1.111 1.938,-0.874C2.304,-0.041 2.579,0.593 2.761,1.025L4.993,6.705L3.63,6.705L1.71,1.533C1.582,1.194 1.295,0.464 0.85,-0.66C0.729,-0.641 0.277,-0.631 -0.503,-0.631L-3.448,-0.691L-3.448,6.705L-4.618,6.705Z" style="fill:white;fill-rule:nonzero;"/>
    </g>
    <g transform="matrix(1.41417,0,0,1.41417,373.872,76.5542)">
        <path d="M0,2.946L4.773,2.946C3.402,-1.43 2.624,-4.003 2.442,-4.776C2.369,-4.478 2.127,-3.686 1.719,-2.399C1.311,-1.112 0.921,0.101 0.549,1.239L0,2.946ZM-3.42,9.032L1.893,-6.086L3.018,-6.086L8.138,9.032L6.932,9.032L5.194,3.901L-0.448,3.901L-2.258,9.032L-3.42,9.032Z" style="fill:white;fill-rule:nonzero;"/>
    </g>
    <g transform="matrix(1.41417,0,0,1.41417,401.758,79.8447)">
        <path d="M0,-1.708C1.213,-1.708 2.06,-1.942 2.542,-2.413C3.023,-2.884 3.264,-3.61 3.264,-4.593C3.264,-5.474 3.046,-6.148 2.611,-6.62C2.175,-7.091 1.432,-7.326 0.384,-7.326L-3.448,-7.326L-3.448,-1.737C-2.015,-1.718 -0.866,-1.708 0,-1.708M-4.618,6.705L-4.618,-8.413L-0.741,-8.413C-0.247,-8.413 0.181,-8.403 0.544,-8.383C0.906,-8.362 1.277,-8.318 1.655,-8.251C2.033,-8.183 2.354,-8.093 2.62,-7.981C2.885,-7.869 3.138,-7.719 3.379,-7.529C3.619,-7.34 3.813,-7.111 3.959,-6.844C4.106,-6.576 4.22,-6.256 4.302,-5.884C4.384,-5.511 4.426,-5.088 4.426,-4.613C4.426,-3.686 4.222,-2.89 3.813,-2.226C3.405,-1.562 2.779,-1.111 1.938,-0.874C2.304,-0.041 2.579,0.593 2.761,1.025L4.993,6.705L3.63,6.705L1.71,1.533C1.582,1.194 1.295,0.464 0.85,-0.66C0.729,-0.641 0.277,-0.631 -0.503,-0.631L-3.448,-0.691L-3.448,6.705L-4.618,6.705Z" style="fill:white;fill-rule:nonzero;"/>
    </g>
    <g transform="matrix(1.41417,0,0,1.41417,423.684,67.9475)">
        <path d="M0,15.118L0,1.118L-4.28,1.118L-4.28,0L5.468,0L5.468,1.118L1.188,1.118L1.188,15.118L0,15.118Z" style="fill:white;fill-rule:nonzero;"/>
    </g>
    <g transform="matrix(1.41417,0,0,1.41417,452.694,80.691)">
        <path d="M0,-2.946C0.22,-3.068 0.389,-3.163 0.507,-3.23C0.626,-3.299 0.783,-3.393 0.978,-3.514C1.174,-3.636 1.326,-3.738 1.436,-3.82C1.545,-3.901 1.678,-4.005 1.834,-4.13C1.989,-4.255 2.111,-4.37 2.199,-4.475C2.288,-4.58 2.384,-4.704 2.488,-4.846C2.591,-4.988 2.669,-5.129 2.721,-5.267C2.772,-5.407 2.817,-5.56 2.853,-5.729C2.89,-5.899 2.908,-6.075 2.908,-6.259C2.908,-6.895 2.707,-7.387 2.305,-7.737C1.902,-8.086 1.405,-8.259 0.814,-8.259C-0.082,-8.259 -0.729,-8.077 -1.124,-7.712C-1.521,-7.345 -1.719,-6.85 -1.719,-6.227C-1.719,-5.719 -1.542,-5.155 -1.188,-4.536C-0.835,-3.916 -0.439,-3.386 0,-2.946M0.229,5.355C1.033,5.355 1.826,5.222 2.606,4.954C3.386,4.687 4.006,4.328 4.463,3.882L-0.338,-1.747C-2.179,-0.63 -3.1,0.715 -3.1,2.287C-3.1,2.815 -3.01,3.282 -2.83,3.684C-2.65,4.087 -2.403,4.407 -2.089,4.644C-1.776,4.881 -1.423,5.059 -1.033,5.177C-0.643,5.296 -0.222,5.355 0.229,5.355M0.339,6.33C-0.472,6.33 -1.178,6.224 -1.778,6.01C-2.379,5.797 -2.853,5.5 -3.2,5.121C-3.548,4.742 -3.802,4.314 -3.964,3.836C-4.125,3.359 -4.207,2.828 -4.207,2.245C-4.207,1.684 -4.135,1.167 -3.991,0.697C-3.848,0.226 -3.633,-0.201 -3.347,-0.584C-3.06,-0.966 -2.732,-1.31 -2.364,-1.615C-1.995,-1.92 -1.555,-2.221 -1.042,-2.519C-1.268,-2.817 -1.432,-3.039 -1.536,-3.185C-1.64,-3.33 -1.772,-3.523 -1.934,-3.763C-2.095,-4.005 -2.211,-4.204 -2.281,-4.363C-2.352,-4.522 -2.429,-4.709 -2.515,-4.922C-2.6,-5.135 -2.658,-5.347 -2.688,-5.557C-2.719,-5.767 -2.734,-5.987 -2.734,-6.217C-2.734,-7.118 -2.434,-7.853 -1.833,-8.423C-1.233,-8.991 -0.387,-9.276 0.704,-9.276C1.631,-9.276 2.394,-8.998 2.995,-8.442C3.596,-7.887 3.896,-7.118 3.896,-6.136C3.896,-5.716 3.815,-5.318 3.653,-4.942C3.492,-4.566 3.252,-4.219 2.936,-3.901C2.619,-3.583 2.269,-3.293 1.889,-3.032C1.507,-2.771 1.055,-2.506 0.53,-2.235L5.185,3.181C5.612,2.673 5.965,2.053 6.246,1.322L6.904,1.901C6.648,2.572 6.279,3.241 5.798,3.912L7.215,5.477L6.529,6.168L5.121,4.614C4.475,5.156 3.766,5.577 2.995,5.878C2.224,6.18 1.338,6.33 0.339,6.33" style="fill:white;fill-rule:nonzero;"/>
    </g>
    <g transform="matrix(1.41417,0,0,1.41417,483.798,69.4848)">
        <path d="M0,12.944L2.67,12.944C4.56,12.944 6,12.407 6.991,11.334C7.982,10.26 8.477,8.66 8.477,6.533C8.477,5.368 8.339,4.362 8.061,3.515C7.784,2.669 7.376,1.99 6.84,1.478C6.304,0.967 5.67,0.59 4.938,0.35C4.207,0.11 3.362,-0.011 2.405,-0.011L0,-0.011L0,12.944ZM-1.17,14.031L-1.17,-1.087L2.515,-1.087C3.625,-1.087 4.617,-0.942 5.492,-0.651C6.366,-0.36 7.127,0.086 7.773,0.686C8.419,1.285 8.916,2.074 9.264,3.053C9.611,4.032 9.785,5.174 9.785,6.482C9.785,8.954 9.172,10.831 7.947,12.111C6.721,13.391 5.005,14.031 2.798,14.031L-1.17,14.031Z" style="fill:white;fill-rule:nonzero;"/>
    </g>
    <g transform="matrix(1.41417,0,0,1.41417,508.931,67.9475)">
        <path d="M0,15.118L0,0L7.58,0L7.535,1.076L1.17,1.076L1.17,6.766L7.224,6.766L7.224,7.874L1.17,7.874L1.17,14.031L7.736,14.031L7.635,15.118L0,15.118Z" style="fill:white;fill-rule:nonzero;"/>
    </g>
    <g transform="matrix(1.41417,0,0,1.41417,537.269,67.5733)">
        <path d="M0,15.616C-1.152,15.616 -2.17,15.481 -3.054,15.21C-3.938,14.939 -4.624,14.641 -5.112,14.316L-4.673,13.391C-3.386,14.164 -1.795,14.55 0.101,14.55C1.143,14.55 1.946,14.248 2.51,13.645C3.074,13.043 3.356,12.193 3.356,11.095C3.356,10.688 3.322,10.347 3.256,10.069C3.188,9.791 3.063,9.526 2.881,9.271C2.698,9.017 2.431,8.804 2.08,8.631C1.73,8.459 1.283,8.311 0.741,8.189L-1.454,7.702C-2.679,7.431 -3.598,7.004 -4.211,6.422C-4.823,5.839 -5.13,5.01 -5.13,3.932C-5.13,3.234 -5.008,2.63 -4.764,2.119C-4.52,1.607 -4.168,1.199 -3.708,0.894C-3.248,0.59 -2.714,0.365 -2.108,0.219C-1.501,0.073 -0.811,0 -0.037,0C0.732,0 1.483,0.105 2.218,0.315C2.952,0.525 3.554,0.762 4.024,1.026L3.722,2.022C3.362,1.799 2.83,1.587 2.126,1.387C1.422,1.187 0.692,1.088 -0.064,1.088C-1.35,1.088 -2.316,1.326 -2.963,1.803C-3.609,2.281 -3.932,3.035 -3.932,4.064C-3.932,4.708 -3.728,5.224 -3.319,5.613C-2.911,6.004 -2.307,6.293 -1.509,6.482L0.942,7.041C1.551,7.183 2.068,7.353 2.492,7.55C2.916,7.746 3.291,8 3.617,8.311C3.943,8.623 4.185,9.011 4.344,9.474C4.502,9.938 4.581,10.489 4.581,11.126C4.581,12.549 4.162,13.652 3.324,14.438C2.486,15.224 1.378,15.616 0,15.616" style="fill:white;fill-rule:nonzero;"/>
    </g>
    <g transform="matrix(1.41417,0,0,1.41417,-220.152,-708.959)">
        <rect x="547.988" y="549.372" width="1.17" height="15.118" style="fill:white;"/>
    </g>
    <g transform="matrix(1.41417,0,0,1.41417,576.98,67.5733)">
        <path d="M0,15.616C-0.828,15.616 -1.592,15.486 -2.29,15.225C-2.988,14.965 -3.59,14.6 -4.096,14.133C-4.602,13.666 -5.03,13.109 -5.38,12.462C-5.731,11.814 -5.993,11.103 -6.167,10.328C-6.34,9.553 -6.427,8.731 -6.427,7.864C-6.427,6.34 -6.172,4.991 -5.66,3.815C-5.148,2.64 -4.384,1.711 -3.369,1.026C-2.354,0.343 -1.151,0 0.238,0C1.763,0 3.116,0.389 4.299,1.169L3.777,2.216C3.278,1.877 2.713,1.604 2.081,1.397C1.451,1.19 0.838,1.088 0.249,1.088C-0.642,1.088 -1.436,1.263 -2.134,1.616C-2.833,1.969 -3.398,2.454 -3.83,3.073C-4.263,3.693 -4.591,4.406 -4.813,5.213C-5.036,6.018 -5.148,6.895 -5.148,7.844C-5.148,8.853 -5.034,9.764 -4.809,10.577C-4.583,11.389 -4.245,12.093 -3.794,12.685C-3.343,13.278 -2.764,13.735 -2.057,14.057C-1.349,14.379 -0.532,14.54 0.395,14.54C1.351,14.54 2.405,14.286 3.558,13.777L3.558,8.941L0.183,8.941L0.256,7.813L4.646,7.813L4.646,14.478C3.903,14.905 3.181,15.202 2.484,15.368C1.785,15.533 0.957,15.616 0,15.616" style="fill:white;fill-rule:nonzero;"/>
    </g>
    <g transform="matrix(1.41417,0,0,1.41417,595.129,67.9475)">
        <path d="M0,15.118L0,0L1.363,0L8.852,12.751L9.336,13.492C9.295,11.406 9.272,10.109 9.272,9.601L9.272,0L10.379,0L10.379,15.118L8.99,15.118L1.519,2.388L1.052,1.645C1.101,3.17 1.125,4.483 1.125,5.588L1.125,15.118L0,15.118Z" style="fill:white;fill-rule:nonzero;"/>
    </g>
</svg>
