<?xml version="1.0" encoding="utf-8"?>
<!-- Generator: Adobe Illustrator 25.0.1, SVG Export Plug-In . SVG Version: 6.00 Build 0)  -->
<svg version="1.1" id="Layer_1" xmlns="http://www.w3.org/2000/svg" xmlns:xlink="http://www.w3.org/1999/xlink" x="0px" y="0px"
	 viewBox="0 0 178 66" style="enable-background:new 0 0 178 66;" xml:space="preserve">
<style type="text/css">
	.st0{fill:#5F6062;}
</style>
<g>
	<path class="st0" d="M75.26,20.37c0.02,0.13,0.03,0.25,0.05,0.38c-1.08,1.17-2.19,2.32-3.24,3.52c-1.09,1.25-2.15,2.54-3.18,3.84
		c-1.21,1.53-2.26,3.21-3.6,4.62c-1.7,1.79-3.65,3.35-5.45,5.06c-3.97,3.76-7.93,7.53-11.88,11.31c-1.79,1.71-3.77,3.29-5.25,5.24
		c-2.1,2.76-3.85,4.8-5.66,7.77c-0.21,0.35,0.08,1.01,0.14,1.52c0.49-0.06,1.2,0.05,1.43-0.22c1.37-1.66,2.67-3.39,3.92-5.15
		c0.81-1.13,1.34-1.5,2.28-2.49c2.42-2.55,4.98-4.97,7.52-7.41c4.22-4.05,8.77-7.74,12.78-12.03c2.4-2.58,5.02-4.91,7.09-7.83
		c1.77-2.49,4.19-4.51,6.2-6.85c1.14-1.33,2.42-1.49,4.02-1.31c1.21,0.14,2.46-0.14,3.69-0.12c2.58,0.04,5.16,0.16,7.75,0.24
		c-1.38,1.47-2.79,2.62-4.21,3.74c-1.42,1.12-2.95,2.12-4.26,3.36c-2.98,2.82-5.87,5.73-8.74,8.67c-1.1,1.13-2.1,2.38-2.99,3.68
		c-0.34,0.5-0.56,1.57-0.27,1.91c0.44,0.52,1.4,0.94,2.07,0.85c1.41-0.18,2.89-0.5,4.14-1.15c2.21-1.17,4.32-2.56,6.38-4
		c1.34-0.94,2.5-2.15,3.74-3.23c-0.47,1.71-1.22,3.22-1.81,4.81c-0.2,0.55-0.18,1.38,0.12,1.83c0.24,0.35,1.12,0.54,1.62,0.41
		c1.35-0.35,2.76-0.72,3.94-1.42c2.56-1.53,5.01-3.23,7.47-4.93c1.9-1.32,3.74-2.74,5.6-4.12c-0.09,0.76-0.44,1.34-0.75,1.93
		c-0.73,1.38,0.36,3.23,1.92,3.35c3.08,0.25,5.82-0.84,8.57-1.99c1.88-0.79,3.8-1.47,6.03-2.33c-0.43,0.54-0.67,0.79-0.86,1.08
		c-0.97,1.41-1.96,2.8-2.87,4.25c-0.19,0.3-0.2,0.94,0,1.18c0.33,0.41,0.94,0.93,1.35,0.87c1.01-0.16,2.06-0.49,2.95-0.99
		c2.48-1.41,4.97-2.82,7.3-4.46c2.85-2,5.55-4.23,8.27-6.33c-0.42,2.95-1.05,5.73-1.17,8.53c-0.14,3.38,1.61,5.89,4.46,7.72
		c2.2,1.4,4.73,1.3,7.07,1.38c3.41,0.12,6.88-0.26,10.25-0.85c3.67-0.63,7.27-1.73,10.89-2.65c1.88-0.48,3.75-0.97,5.61-1.54
		c0.71-0.22,1.51-0.59,1.22-1.58c-0.26-0.9-0.95-0.69-1.63-0.49c-3.21,0.95-6.39,2.02-9.64,2.79c-3.54,0.83-7.14,1.56-10.75,1.99
		c-2.59,0.31-5.25-0.02-7.87,0.09c-4.99,0.2-8.23-3.87-7.64-8.55c0.14-1.12,0.4-2.23,0.66-3.33c0.42-1.74,0.92-3.46,1.32-5.2
		c0.13-0.55,0.07-1.15,0.12-2.07c-0.9,0.42-1.54,0.6-2.04,0.96c-4.07,2.99-8.11,6.03-12.16,9.04c-1.67,1.24-3.5,1.87-5.13,1.62
		c1.7-1.76,3.21-3.42,4.82-4.96c2.41-2.3,4.3-5.18,7.53-6.55c0.23-0.1,0.41-0.33,0.6-0.52c0.56-0.59,0.47-1.1-0.23-1.5
		c-1.09-0.61-1.81,0.22-2.56,0.73c-3.47,2.38-6.84,4.92-10.39,7.18c-3.84,2.44-8.11,3.83-12.64,4.38c-0.35,0.04-0.79-0.06-1.06-0.26
		c-0.12-0.09,0-0.65,0.14-0.92c1.38-2.54,2.81-5.05,4.17-7.6c0.17-0.31,0.24-0.96,0.06-1.12c-0.3-0.27-0.9-0.44-1.27-0.33
		c-0.46,0.14-0.85,0.58-1.22,0.95c-1.96,1.91-3.78,3.97-5.87,5.72c-2.43,2.04-5.01,3.92-7.67,5.65c-1.83,1.19-3.91,1.99-5.87,2.96
		c-0.12-0.14-0.25-0.28-0.37-0.42c1.37-2.43,2.72-4.86,4.11-7.28c1.11-1.94,2.3-3.83,3.36-5.8c0.17-0.32-0.06-1.19-0.33-1.31
		c-0.41-0.19-1.03-0.01-1.52,0.16c-0.23,0.08-0.33,0.5-0.52,0.75c-1.12,1.46-2.14,3-3.39,4.33c-1.53,1.64-3.22,3.14-4.91,4.63
		c-3,2.65-6.18,5.02-10.4,5.58c0.91-1.21,1.84-2.41,2.95-3.43c3.82-3.53,7.41-7.3,11.69-10.35c2.72-1.94,5.17-4.24,8.58-5.02
		c0.52-0.12,1.23-0.91,1.24-1.41c0.02-0.98-0.94-0.92-1.7-0.96c-2.55-0.13-5.09-0.32-7.64-0.42c-1.79-0.07-3.58-0.05-5.36-0.05
		c-1.55-0.01-3.1,0-4.65,0c-0.05-0.12-0.09-0.25-0.14-0.37c0.99-1.12,1.96-2.25,2.96-3.35c1.64-1.79,3.27-3.6,4.98-5.33
		c1.92-1.94,3.24-4.53,6.04-5.55c0.43-0.16,0.89-0.72,0.99-1.18c0.11-0.47-0.05-1.22-0.38-1.51c-0.31-0.27-1.11-0.31-1.51-0.1
		c-2.73,1.39-4.66,3.73-6.69,5.91c-1.52,1.64-2.85,3.45-4.34,5.13c-1.23,1.38-2.63,2.61-3.82,4.03c-1.27,1.52-2.46,3-4.76,2.34
		c-0.16-0.05-0.35,0.04-0.53,0.04c-4.03,0.07-8.07,0.16-12.1,0.2c-2.06,0.02-4.11-0.07-6.17-0.07c-4.48-0.01-8.97,0.01-13.45-0.02
		c-1.81-0.01-3.62-0.1-5.42-0.16c-4.65-0.15-9.3-0.3-13.95-0.46c-2.34-0.08-4.71-0.46-7.01-0.21c-2.68,0.29-5.26-0.08-7.89-0.27
		c-2.52-0.19-5.04-0.97-7.72-0.06c0.4,0.58-0.55,1.36,0.99,1.79c3.23,0.9,6.5,0.72,9.74,0.92c3.26,0.2,6.55-0.02,9.82,0.05
		c3.95,0.08,7.9,0.34,11.85,0.41c3.56,0.07,7.12-0.06,10.68,0c3.52,0.06,7.03,0.29,10.55,0.36c3.02,0.07,6.05,0.02,9.08,0.04
		c2.46,0.01,4.93,0.09,7.39,0.05C72.42,20.71,73.84,20.5,75.26,20.37z"/>
	<path class="st0" d="M75.29,20.37c-1.43,0.13-2.86,0.34-4.29,0.36c-2.46,0.04-4.93-0.03-7.39-0.05c-3.03-0.02-6.05,0.03-9.08-0.04
		c-3.52-0.08-7.03-0.31-10.55-0.36c-3.56-0.06-7.12,0.07-10.68,0c-3.95-0.07-7.9-0.33-11.85-0.41c-3.27-0.07-6.56,0.15-9.82-0.05
		c-3.25-0.2-6.51-0.02-9.74-0.92C0.34,18.48,0,18,0.89,17.12c2.68-0.91,5.2-0.13,7.72,0.06c2.63,0.2,5.21,0.56,7.89,0.27
		c2.3-0.25,4.67,0.13,7.01,0.21c4.65,0.16,9.3,0.31,13.95,0.46c1.81,0.06,3.62,0.15,5.42,0.16c4.48,0.02,8.97,0,13.45,0.02
		c2.06,0.01,4.11,0.09,6.17,0.07c4.03-0.04,8.07-0.13,12.1-0.2c0.18,0,0.36-0.03,0.53-0.04C77,18,78.62,17.3,79.89,15.78
		c1.19-1.42,2.59-2.65,3.82-4.03c1.49-1.67,2.81-3.49,4.34-5.13c2.04-2.18,3.97-4.52,6.69-5.91c0.41-0.21,1.21-0.17,1.51,0.1
		c0.33,0.29,0.49,1.04,0.38,1.51c-0.1,0.45-0.56,1.02-0.99,1.18c-2.8,1.02-4.12,3.61-6.04,5.55c-1.71,1.73-3.34,3.54-4.98,5.33
		c-1.04,1.14-2.04,2.31-3.06,3.46c-0.09,0.1-0.02,0.26,0.12,0.26c1.59,0,3.18-0.01,4.77,0c1.79,0.01,3.58-0.02,5.36,0.05
		c2.55,0.1,5.09,0.29,7.64,0.42c0.76,0.04,1.72-0.02,1.7,0.96c-0.01,0.49-0.72,1.29-1.24,1.41c-3.41,0.78-5.85,3.07-8.58,5.02
		c-4.28,3.05-7.86,6.83-11.69,10.35c-1.01,0.93-1.88,2.01-2.71,3.12c-0.08,0.11,0.02,0.28,0.15,0.25c4.03-0.66,7.11-2.96,10.01-5.53
		c1.69-1.49,3.37-2.99,4.91-4.63c1.25-1.33,2.27-2.88,3.39-4.33c0.19-0.25,0.29-0.67,0.52-0.75c0.48-0.17,1.11-0.35,1.52-0.16
		c0.27,0.12,0.5,1,0.33,1.31c-1.06,1.97-2.25,3.86-3.36,5.8c-1.44,2.51-2.85,5.04-4.27,7.57c-0.15,0.26-0.14,0.29-0.01,0.43
		c2.05-1.04,4.5-2.02,6.42-3.26c2.66-1.73,5.24-3.61,7.67-5.65c2.09-1.75,3.91-3.81,5.87-5.72c0.37-0.36,0.76-0.81,1.22-0.95
		c0.37-0.11,0.97,0.07,1.27,0.33c0.18,0.16,0.11,0.8-0.06,1.12c-1.37,2.55-2.79,5.06-4.17,7.6c-0.15,0.27-0.26,0.82-0.14,0.92
		c0.27,0.2,0.71,0.31,1.06,0.26c4.53-0.55,8.8-1.94,12.64-4.38c3.55-2.26,6.92-4.8,10.39-7.18c0.74-0.51,1.47-1.34,2.56-0.73
		c0.7,0.39,0.79,0.91,0.23,1.5c-0.18,0.19-0.36,0.43-0.6,0.52c-3.23,1.36-5.12,4.25-7.53,6.55c-1.54,1.47-2.99,3.06-4.6,4.73
		c-0.09,0.09-0.04,0.26,0.09,0.27c1.55,0.13,3.25-0.5,4.81-1.66c4.06-3.01,8.1-6.05,12.16-9.04c0.46-0.34,0.79-0.46,1.57-0.8
		c0.1-0.05,0.52,0.03,0.52,0.41c0,0.78-0.06,0.99-0.18,1.5c-0.41,1.74-0.91,3.46-1.32,5.2c-0.27,1.1-0.52,2.21-0.66,3.33
		c-0.6,4.69,2.65,8.75,7.64,8.55c2.62-0.1,5.28,0.22,7.87-0.09c3.61-0.43,7.2-1.16,10.75-1.99c3.25-0.77,6.44-1.83,9.64-2.79
		c0.68-0.2,1.37-0.41,1.63,0.49c0.29,0.99-0.51,1.36-1.22,1.58c-3.82,1.17-7.75,2.04-11.59,3.06c-1.71,0.46-3.43,0.88-5.18,1.17
		c-3.29,0.56-6.67,0.92-9.98,0.8c-3.53-0.13-7.5,0.18-10.09-4.92c-1.14-2.24-1.49-4.8-1.14-7.28c0.23-1.65,0.55-3.32,0.81-5.04
		c0.02-0.14-0.14-0.24-0.25-0.15c-2.61,2.03-5.21,4.17-7.96,6.09c-2.33,1.64-4.82,3.05-7.3,4.46c-0.89,0.51-1.94,0.83-2.95,0.99
		c-0.41,0.06-1.02-0.46-1.35-0.87c-0.2-0.25-0.19-0.89,0-1.18c0.91-1.45,1.9-2.84,2.87-4.25c0.19-0.28,0.43-0.54,0.86-1.08
		c-2.22,0.85-4.15,1.54-6.03,2.33c-2.83,1.19-5.66,2.31-8.86,1.97c-1.53-0.17-2.4-1.86-1.69-3.23c0.27-0.52,0.58-1.03,0.73-1.64
		c0.03-0.14-0.13-0.24-0.25-0.16c-1.75,1.3-3.49,2.64-5.28,3.88c-2.45,1.7-4.91,3.41-7.47,4.93c-1.18,0.7-2.59,1.07-3.94,1.42
		c-0.5,0.13-1.38-0.05-1.62-0.41c-0.3-0.45-0.32-1.29-0.12-1.83c0.52-1.41,1.18-2.77,1.65-4.27c0.05-0.15-0.14-0.27-0.26-0.17
		c-1.09,0.98-2.13,2.02-3.32,2.86c-2.05,1.44-4.16,2.83-6.38,4c-1.24,0.66-2.73,0.97-4.14,1.15c-0.67,0.09-1.63-0.33-2.07-0.85
		c-0.29-0.34-0.07-1.4,0.27-1.91c0.89-1.3,1.89-2.55,2.99-3.68c2.86-2.94,5.76-5.84,8.74-8.67c1.31-1.24,2.84-2.23,4.26-3.36
		c1.34-1.06,2.66-2.14,3.96-3.48c0.09-0.1,0.03-0.27-0.11-0.27c-2.46-0.08-4.93-0.19-7.39-0.23c-1.23-0.02-2.48,0.26-3.69,0.12
		c-1.6-0.18-2.88-0.02-4.02,1.31c-2.01,2.33-4.43,4.36-6.2,6.85c-2.07,2.92-4.69,5.25-7.09,7.83c-4,4.29-8.56,7.98-12.78,12.03
		c-2.54,2.44-5.1,4.86-7.52,7.41c-0.94,0.99-1.38,1.52-2.19,2.65c-1.25,1.76-2.52,3.11-4.03,4.65c-0.39,0.4-0.96,0.31-1.52,0.18
		c-0.49-0.55-0.48-1.35-0.27-1.7c1.82-2.97,3.4-4.65,5.91-7.21c1.72-1.75,3.46-3.52,5.25-5.24c3.95-3.78,7.9-7.56,11.88-11.31
		c1.8-1.7,3.75-3.26,5.45-5.06c1.34-1.41,2.39-3.09,3.6-4.62c1.03-1.3,2.09-2.59,3.18-3.84c1.08-1.24,2.23-2.43,3.35-3.64
		C75.51,20.53,75.43,20.36,75.29,20.37z"/>
</g>
</svg>
