<?xml version="1.0" encoding="UTF-8" standalone="no"?>
<!DOCTYPE svg PUBLIC "-//W3C//DTD SVG 1.1//EN" "http://www.w3.org/Graphics/SVG/1.1/DTD/svg11.dtd">
<svg width="100%" height="100%" viewBox="0 0 1262 1185" version="1.1" xmlns="http://www.w3.org/2000/svg" xmlns:xlink="http://www.w3.org/1999/xlink" xml:space="preserve" xmlns:serif="http://www.serif.com/" style="fill-rule:evenodd;clip-rule:evenodd;stroke-linejoin:round;stroke-miterlimit:2;">
    <g transform="matrix(1,0,0,1,-2611.49,-1000.55)">
        <g transform="matrix(2.65902,0,0,2.65902,290.998,-355.902)">
            <g transform="matrix(1,0,0,1,1010.98,701.587)">
                <path d="M0,125.689L-5.78,130.63C-5.78,130.63 -15.61,121.979 -22.834,130.691C-30.057,139.403 -30.768,136.226 -30.768,136.226L-52.524,143.837L-79.691,143.453L-98.282,127.588L-113.002,108.118L-125.213,82.575L-137.717,52.834L-138.294,30.984C-138.294,30.984 -138.386,27.505 -134.693,21.71C-131.388,16.522 -141.526,26.993 -122.515,10.112C-103.504,-6.769 -115.582,4.199 -115.582,4.199L-108.067,-1.978L-96.198,-6.004C-96.198,-6.004 -98.357,-7.618 -87.752,-8.669C-57.067,-11.712 -73.44,-9.954 -73.44,-9.954L-69.523,-10.754L-57.829,-8.945L-46.271,-18.148L-37.925,-14.811L-30.386,-10.392" style="fill:rgb(166,89,45);fill-rule:nonzero;"/>
            </g>
        </g>
        <g transform="matrix(2.65902,0,0,2.65902,290.998,-355.902)">
            <g transform="matrix(1,0,0,1,1204.71,932.768)">
                <path d="M0,-91.564L3.56,-83.543C3.56,-83.543 -14,-76.754 -6.04,-65.711C1.919,-54.668 -2.883,-55.203 -2.883,-55.203L-4.699,-29.426L-20.655,-1.214L-53.173,11.823L-88.485,19.368L-130.778,21.854L-179.05,22.957L-209.625,14.78C-209.625,14.78 -218.527,15.109 -223.57,8.494C-243.382,-17.501 -212.521,13.941 -229.561,-10.084C-233.559,-15.719 -233.81,-19.699 -233.81,-19.699L-238.094,-30.027L-236.93,-44.039C-236.93,-44.039 -239.139,-43.88 -235.823,-53.928C-229.634,-72.69 -229.665,-70.743 -229.665,-70.743L-228.36,-73.8L-219.215,-85.285L-225.393,-101.051L-216.034,-108.424L-205.636,-114.521" style="fill:rgb(166,89,45);fill-rule:nonzero;"/>
            </g>
        </g>
        <g transform="matrix(2.65902,0,0,2.65902,290.998,-355.902)">
            <g transform="matrix(1,0,0,1,1150.58,762.402)">
                <path d="M0,-137.146C-0.12,-137.382 -0.217,-137.638 -0.377,-137.843C-0.422,-137.901 -0.777,-137.828 -0.784,-137.783C-0.823,-137.528 -0.8,-137.263 -0.797,-137.001C-0.532,-137.048 -0.267,-137.095 0,-137.146M-36.781,-247.157C-37.045,-247.136 -37.421,-247.21 -37.543,-247.068C-37.682,-246.906 -37.594,-246.549 -37.604,-246.277C-37.259,-246.316 -36.913,-246.356 -36.567,-246.395C-36.639,-246.649 -36.709,-246.902 -36.781,-247.157M-7.32,-157.87C-7.375,-158.256 -7.433,-158.658 -7.489,-159.06C-7.728,-158.998 -8.159,-158.962 -8.172,-158.87C-8.228,-158.465 -8.162,-158.044 -8.14,-157.63C-7.905,-157.699 -7.671,-157.767 -7.32,-157.87M-40.455,-172.664C-40.531,-173.27 -40.441,-173.842 -40.675,-174.046C-40.888,-174.233 -41.638,-174.167 -41.81,-173.945C-42.021,-173.675 -42.034,-173.008 -41.832,-172.739C-41.678,-172.534 -41.056,-172.679 -40.455,-172.664M114.785,-25.458C114.986,-25.806 115.187,-26.155 115.387,-26.502C114.672,-26.802 113.957,-27.103 113.242,-27.404C113.119,-27.162 112.996,-26.92 112.873,-26.679C113.511,-26.272 114.148,-25.866 114.785,-25.458M76.186,9.141C76.384,8.936 76.582,8.73 76.78,8.525C76.259,8.026 75.748,7.514 75.192,7.055C75.156,7.025 74.782,7.403 74.566,7.59C75.105,8.108 75.646,8.625 76.186,9.141M105.651,-45.939C106.159,-45.987 106.68,-46.035 107.201,-46.083C107.162,-46.355 107.17,-46.843 107.077,-46.863C106.563,-46.974 106.024,-46.971 105.494,-47.007C105.533,-46.743 105.572,-46.479 105.651,-45.939M80.953,-41.244C81.204,-41.322 81.455,-41.401 81.706,-41.48C81.546,-41.694 81.406,-41.93 81.213,-42.109C81.157,-42.161 80.827,-42.041 80.829,-42.01C80.843,-41.753 80.904,-41.5 80.953,-41.244M-64.092,104.457C-64.155,103.603 -64.039,102.923 -64.25,102.799C-64.686,102.542 -65.295,102.583 -65.833,102.5C-65.86,102.934 -66.075,103.572 -65.873,103.758C-65.507,104.098 -64.892,104.169 -64.092,104.457M-63.458,-90.413C-63.038,-90.41 -62.783,-90.408 -62.528,-90.406C-62.53,-90.688 -62.438,-91.029 -62.563,-91.237C-62.678,-91.427 -63.029,-91.476 -63.276,-91.588C-63.335,-91.205 -63.395,-90.822 -63.458,-90.413M0.896,-116.984C1.615,-117.08 2.184,-117.047 2.619,-117.271C2.771,-117.349 2.726,-118.343 2.541,-118.43C2.101,-118.637 1.509,-118.625 1.014,-118.528C0.907,-118.506 0.946,-117.747 0.896,-116.984M-112.11,-29.615C-112.621,-30.449 -112.766,-30.999 -113.086,-31.134C-113.555,-31.332 -114.162,-31.303 -114.68,-31.206C-114.794,-31.184 -114.911,-30.177 -114.798,-30.125C-114.337,-29.914 -113.786,-29.898 -112.11,-29.615M-72.594,-166.268C-72.311,-165.724 -72.209,-165.208 -71.935,-165.087C-71.632,-164.955 -71.17,-165.185 -70.777,-165.257C-70.899,-165.619 -70.92,-166.152 -71.169,-166.297C-71.459,-166.468 -71.947,-166.301 -72.594,-166.268M-61.744,-168.928C-61.672,-168.539 -61.599,-168.148 -61.526,-167.758C-61.28,-167.81 -60.83,-167.839 -60.821,-167.918C-60.777,-168.307 -60.851,-168.709 -60.882,-169.106C-61.127,-169.055 -61.371,-169.005 -61.744,-168.928M4.307,-235.99C4.609,-235.306 4.758,-234.759 5.089,-234.364C5.179,-234.257 6.127,-234.579 6.146,-234.761C6.199,-235.254 6.033,-235.815 5.793,-236.263C5.736,-236.369 5.046,-236.135 4.307,-235.99M-14.07,-212.5C-14.466,-212.523 -14.862,-212.544 -15.258,-212.567C-15.212,-211.625 -15.166,-210.683 -15.12,-209.742C-14.881,-209.742 -14.642,-209.741 -14.402,-209.741C-14.292,-210.661 -14.181,-211.581 -14.07,-212.5M1.622,-63.786C2.565,-64.088 3.354,-64.116 3.527,-64.456C3.73,-64.857 3.578,-65.74 3.247,-66.018C2.972,-66.249 2.03,-66.082 1.727,-65.763C1.453,-65.478 1.646,-64.748 1.622,-63.786M-5.154,-203.315C-5.374,-203.403 -5.594,-203.49 -5.813,-203.578C-6.096,-202.842 -6.377,-202.106 -6.659,-201.371C-6.462,-201.294 -6.265,-201.217 -6.068,-201.141L-5.154,-203.315ZM-8.409,-190.456C-8.156,-190.351 -7.903,-190.246 -7.65,-190.141C-7.407,-190.714 -7.147,-191.282 -6.956,-191.872C-6.942,-191.911 -7.442,-192.118 -7.704,-192.246C-7.939,-191.649 -8.174,-191.052 -8.409,-190.456M-75.199,-149.62C-75.293,-150 -75.392,-150.399 -75.49,-150.798C-75.806,-150.658 -76.382,-150.522 -76.385,-150.375C-76.393,-149.993 -76.148,-149.606 -76.004,-149.221C-75.768,-149.338 -75.53,-149.456 -75.199,-149.62M45.836,-65.366C44.764,-66.875 43.557,-67.804 40.908,-66.625C43.15,-66.052 44.493,-65.709 45.836,-65.366M-27.761,11.421C-28.089,11.507 -28.418,11.592 -28.747,11.678C-28.365,12.872 -27.984,14.066 -27.604,15.259C-27.355,15.196 -27.108,15.131 -26.86,15.067C-27.16,13.852 -27.46,12.637 -27.761,11.421M-23.302,-155.685C-25.704,-155.996 -26.975,-155.347 -26.268,-152.623C-25.379,-153.276 -24.722,-153.648 -24.216,-154.167C-23.814,-154.58 -23.6,-155.172 -23.302,-155.685M102.984,-13.627L103.166,-12.801C103.962,-12.908 104.757,-13.014 105.552,-13.121C105.473,-13.541 105.394,-13.961 105.315,-14.381C104.538,-14.129 103.761,-13.878 102.984,-13.627M20.135,-154.688C20.481,-154.578 20.827,-154.466 21.174,-154.355C21.551,-155.273 21.98,-156.174 22.258,-157.122C22.309,-157.295 21.737,-157.651 21.126,-158.237C20.731,-156.826 20.434,-155.757 20.135,-154.688M11.706,-144.115C10.919,-142.304 10.496,-141.331 10.073,-140.358C12.285,-140.577 12.854,-141.489 11.706,-144.115M168.098,25.558C167.622,24.471 167.501,23.711 167.056,23.338C166.736,23.071 165.983,23.322 165.425,23.342C165.468,24.032 165.272,24.92 165.629,25.349C165.917,25.696 166.871,25.488 168.098,25.558M-79.342,-173.905C-79.275,-172.712 -79.209,-171.52 -79.111,-169.75C-76.541,-171.74 -77.953,-172.819 -79.342,-173.905M-14.76,-214.876C-14.263,-215.072 -13.765,-215.267 -13.267,-215.463C-13.789,-216.459 -12.526,-218.325 -15.883,-218.42C-15.438,-217.017 -15.1,-215.947 -14.76,-214.876M-15.62,-236.507C-16.196,-236.5 -16.773,-236.493 -17.35,-236.486C-17.851,-234.935 -18.602,-233.36 -15.854,-231.249C-15.752,-233.538 -15.686,-235.022 -15.62,-236.507M92.22,-38.685C90.656,-38.707 89.601,-38.721 88.545,-38.735C88.642,-38.061 88.494,-37.078 88.881,-36.772C90.032,-35.862 91.117,-36.118 92.22,-38.685M9.077,-146.083C9.484,-145.85 9.892,-145.617 10.3,-145.384C11.622,-146.162 12.271,-147.182 10.967,-149.89C10.084,-148.113 9.58,-147.098 9.077,-146.083M53.267,-187.652C53.12,-185.741 53.98,-184.791 55.937,-185.092C56.344,-185.155 56.647,-185.891 56.999,-186.317C56.069,-186.91 55.156,-187.531 54.194,-188.065C54.042,-188.15 53.671,-187.841 53.267,-187.652M-172.883,30.451C-171.944,30.321 -170.87,30.262 -170.866,30.159C-170.826,29.208 -170.972,28.249 -171.062,27.291C-171.626,27.384 -172.603,27.352 -172.676,27.592C-172.916,28.389 -172.83,29.285 -172.883,30.451M36.658,-56.548C34.351,-58.101 32.797,-56.559 30.916,-55.438C34.714,-53.777 34.714,-53.777 36.658,-56.548M-104.135,-58.294C-102.656,-57.141 -102.139,-56.504 -101.479,-56.274C-100.37,-55.887 -99.055,-55.905 -99.039,-57.458C-99.033,-57.996 -100.141,-58.784 -100.879,-59.017C-101.482,-59.208 -102.293,-58.742 -104.135,-58.294M-118.199,-9.574C-114.923,-9.218 -114.923,-9.218 -112.34,-11.17C-114.675,-12.923 -116.348,-12.243 -118.199,-9.574M83.252,-4.386C84.954,-2.824 86.893,-2.071 89.255,-2.676C87.398,-3.71 85.961,-5.833 83.252,-4.386M-51.118,38.838C-52.453,40.232 -53.521,41.347 -54.722,42.601C-51.266,42.495 -51.266,42.495 -51.118,38.838M102.557,28.188C102.049,32.318 102.931,33.064 106.738,32.122C106.656,29.673 104.646,29.302 102.557,28.188M22.85,-37.008C24.861,-33.78 26.602,-36.626 28.496,-37.158C25.611,-39.498 25.611,-39.498 22.85,-37.008M92.392,-52.13C93.854,-51.48 95.297,-51.181 96.268,-50.338C98.708,-48.219 99.628,-49.768 100.865,-51.669C98.199,-52.481 95.892,-53.184 93.335,-53.961C93.063,-53.433 92.733,-52.794 92.392,-52.13M71.321,-99.138C74.012,-96.048 74.683,-95.979 77.99,-98.455C75.682,-101.371 74.768,-101.464 71.321,-99.138M18.852,-59.676C21.653,-59.981 23.315,-60.162 25.439,-60.393C25.446,-62.235 25.452,-63.819 25.462,-66.58C22.975,-63.982 21.328,-62.262 18.852,-59.676M56.069,70.985C54.995,68.5 53.459,69.194 51.965,69.625C50.021,70.187 48.581,71.129 48.721,73.723C51.707,74.251 53.865,73.007 56.069,70.985M-34.735,96.972C-32.531,97.479 -31.474,97.035 -31.184,95.466C-30.813,93.463 -32.191,91.656 -35.334,90.221C-35.124,92.583 -34.936,94.719 -34.735,96.972M11.284,-32.719C14.939,-31.002 18.201,-32.381 19.536,-35.908C16.202,-36.71 13.856,-35.213 11.284,-32.719M32.394,91.036C30.118,91.406 28.542,91.402 27.211,91.973C26.39,92.326 25.433,93.573 25.467,94.38C25.501,95.216 26.565,96.541 27.35,96.679C28.329,96.85 29.81,96.317 30.479,95.56C31.321,94.607 31.562,93.122 32.394,91.036M60.382,-166.73C63.562,-165.997 65.28,-166.816 66.151,-169.061C66.874,-170.923 67.678,-172.908 64.915,-174.979C63.365,-172.159 61.973,-169.625 60.382,-166.73M-78.727,-167.839C-81.494,-165.768 -81.8,-163.887 -80.079,-160.667C-79.331,-159.265 -78.399,-158.171 -76.723,-158.901C-75.028,-159.639 -75.132,-161.228 -75.756,-162.579C-76.598,-164.397 -77.721,-166.087 -78.727,-167.839M3.47,-121.356C5.602,-121.342 5.682,-122.572 5.967,-123.875C6.494,-126.284 6.905,-128.824 8.02,-130.969C9.236,-133.313 9.072,-135.301 7.899,-138.341C6.564,-135.3 5.896,-132.68 4.411,-130.658C2.218,-127.669 2.348,-124.766 3.47,-121.356M184.761,-44.384C181.166,-43.375 181.166,-43.375 181.69,-37.727C180.178,-37.316 178.637,-36.897 176.653,-36.358C179.052,-35.087 180.878,-34.121 182.673,-33.169C186.896,-40.026 186.896,-40.026 184.761,-44.384M-61.163,-189.123C-62.289,-186.603 -64.343,-184.412 -62.813,-181.385C-62.453,-180.67 -62.707,-179.51 -62.967,-178.641C-63.862,-175.64 -62.324,-174.027 -59.459,-172.253C-59.229,-173.719 -58.601,-175.114 -59.008,-175.556C-61.378,-178.136 -60.104,-181.122 -59.589,-183.604C-59.103,-185.956 -59.734,-187.427 -61.163,-189.123M-59.951,-161.906C-61.561,-157.624 -61.374,-154.25 -60.074,-150.895C-59.524,-149.475 -58.575,-148.061 -56.95,-148.781C-56.094,-149.161 -55.246,-150.768 -55.298,-151.775C-55.483,-155.417 -56.765,-158.7 -59.951,-161.906M-66.21,-93.753C-64.702,-95.107 -63.457,-96.223 -62.344,-97.222C-63.796,-100.026 -65.143,-102.625 -66.478,-105.202C-71.978,-102.865 -71.918,-99.904 -66.21,-93.753M-60.108,-211.663C-60.353,-211.657 -60.596,-211.652 -60.839,-211.646C-61.325,-207.405 -61.811,-203.164 -62.32,-198.718C-60.984,-198.316 -59.852,-197.976 -58.458,-197.556C-57.496,-200.005 -56.644,-202.177 -55.965,-203.906C-57.473,-206.727 -58.79,-209.195 -60.108,-211.663M-71.278,-74.945C-72.589,-75.469 -73.533,-74.35 -73.691,-72.841C-74.121,-68.757 -74.382,-64.649 -74.487,-60.543C-74.504,-59.885 -73.218,-58.552 -72.817,-58.654C-71.929,-58.878 -70.597,-59.772 -70.548,-60.468C-70.354,-63.279 -70.525,-66.122 -70.668,-68.947C-70.761,-70.799 -71.036,-72.643 -71.278,-74.945M-67.369,-201.155C-67.497,-201.659 -67.507,-202.161 -67.735,-202.526C-69.893,-205.968 -71.025,-209.576 -70.433,-213.747C-70.077,-216.242 -70.304,-218.826 -70.336,-221.37C-70.383,-225.068 -70.397,-225.008 -74.048,-224.328C-74.781,-224.191 -75.896,-224.447 -76.377,-224.955C-77.407,-226.042 -78.498,-227.486 -79.851,-226.275C-80.606,-225.599 -80.451,-223.747 -80.436,-222.427C-80.428,-221.699 -80.009,-220.853 -79.523,-220.272C-75.558,-215.525 -74.482,-209.851 -74.137,-203.924C-74.109,-203.449 -74.115,-202.943 -73.953,-202.508C-73.283,-200.71 -72.406,-199.35 -70.109,-200.534C-69.335,-200.932 -68.36,-200.943 -67.369,-201.155M-68.563,20.462C-65.149,19.668 -62.209,23.205 -58.994,20.687C-57.285,21.861 -55.644,22.988 -53.845,24.223C-51.317,20.94 -48.299,19.549 -44.771,20.071C-42.954,17.986 -43.758,15.916 -44.017,13.905C-44.822,7.649 -43.079,6.228 -37.272,8.349C-36.441,8.652 -35.491,8.631 -34.487,8.776C-32.756,5.599 -33.635,1.616 -30.718,-0.891C-30.429,-1.138 -30.972,-2.667 -31.44,-3.403C-32.024,-4.321 -33.073,-4.939 -33.673,-5.851C-35.53,-8.671 -34.845,-11.18 -31.704,-12.328C-28.962,-13.329 -26.218,-14.657 -23.188,-12.376C-21.818,-11.344 -19.695,-10.847 -17.87,-12.437C-16.055,-14.018 -16.667,-15.736 -17.031,-17.667C-17.677,-21.084 -18.271,-24.554 -18.395,-28.02C-18.576,-33.135 -20.796,-35.088 -25.759,-33.929C-30.793,-32.753 -34.897,-35.816 -35.272,-40.974C-35.338,-41.877 -35.354,-43.249 -35.895,-43.576C-38.652,-45.247 -41.01,-48.064 -44.817,-47.181C-47.9,-46.466 -50.689,-47.073 -52.803,-49.299C-56.406,-47.595 -55.405,-42.229 -60.04,-41.652C-63.791,-44.937 -70.507,-44.739 -71.488,-51.458C-74.081,-50.672 -76.26,-50.013 -78.615,-49.3C-79.712,-44.292 -83.266,-41.285 -88.781,-41.117C-92.065,-41.016 -95.252,-40.644 -98.838,-38.928C-96.76,-36.939 -95.062,-35.333 -93.386,-33.704C-90.148,-30.558 -90.137,-28.925 -93.338,-25.892C-95.247,-24.083 -97.184,-22.301 -99.294,-20.333C-97.182,-17.394 -95.101,-14.498 -92.913,-11.452C-96.332,-7.398 -92.469,-3.551 -93.238,1.118C-92.091,0.788 -91.635,0.616 -91.164,0.528C-84.896,-0.642 -84.232,-0.278 -81.428,5.675C-81.102,6.368 -80.554,7.546 -80.17,7.522C-77.792,7.371 -77.595,9.591 -76.382,10.673C-75.535,11.429 -74.569,12.051 -73.488,12.859C-73.058,11.497 -72.84,10.806 -72.539,9.854C-69.412,12.782 -69.273,16.357 -68.563,20.462M93.593,12.775C92.143,11.982 90.897,11.861 89.989,13.834C91.837,14.673 92.761,13.775 93.585,12.599C94.65,14.478 95.729,16.341 98.564,16.657C98.14,13.392 95.798,13.168 93.593,12.775M-63.663,-191.83C-63.088,-191.853 -62.513,-191.877 -61.938,-191.901C-61.993,-192.179 -62.049,-192.459 -62.105,-192.737C-62.621,-192.372 -63.137,-192.007 -63.652,-191.642C-64.287,-191.129 -64.921,-190.616 -65.556,-190.103C-65.228,-189.857 -64.899,-189.61 -64.572,-189.364C-64.285,-190.024 -63.99,-190.68 -63.717,-191.345C-63.66,-191.484 -63.678,-191.654 -63.663,-191.83M65.929,-154.78C67.211,-151.775 68.042,-148.815 69.619,-146.33C73.582,-140.087 71.905,-134.058 67.479,-128.813C65.527,-126.5 64.634,-124.541 65.481,-121.534C65.914,-119.999 65.36,-118.134 65.048,-116.457C64.825,-115.259 64.264,-114.125 63.878,-113.031C64.34,-112.699 64.634,-112.325 64.829,-112.371C70.203,-113.633 75.137,-112.182 80.136,-110.325C82.277,-109.529 84.975,-109.181 87.146,-109.722C92.658,-111.094 98.016,-113.084 103.433,-114.833C103.733,-114.93 104.063,-115.04 104.291,-115.244C109.131,-119.574 114.782,-119.802 120.862,-118.953C125.231,-118.341 129.276,-117.279 132.73,-114.46C138.795,-109.511 145.354,-109.181 152.312,-112.289C154.479,-113.256 156.76,-114.001 158.835,-115.129C162.532,-117.139 166.099,-116.706 169.087,-114.178C173.522,-110.427 178.503,-107.027 180.429,-101.054C180.572,-100.607 180.773,-100.103 181.108,-99.804C186.059,-95.365 186.359,-89.22 186.991,-83.296C187.441,-79.064 187.457,-74.773 187.452,-70.509C187.444,-63.404 190.55,-57.27 193.187,-50.959C194.768,-47.177 196.949,-43.497 196.227,-39.128C195.97,-37.582 195.769,-35.907 195.022,-34.582C192.329,-29.794 189.996,-24.832 186.613,-20.382C184.72,-17.892 183.602,-14.301 183.435,-11.137C183.22,-7.088 183.835,-2.831 184.97,1.083C186.365,5.901 186.448,10.761 186.608,15.627C186.65,16.896 185.489,18.919 184.378,19.378C180.757,20.873 178.762,23.884 176.432,26.641C173.361,30.275 170.66,34.281 166.44,36.772C164.409,37.971 162.336,39.098 159.736,40.566C160.322,44.42 160.779,48.638 161.634,52.774C162.958,59.185 161.3,62.368 154.934,64.153C148.564,65.939 142.175,65.805 135.756,64.028C130.405,62.546 124.952,61.441 119.56,60.11C117.2,59.527 115.473,60.393 114.265,62.312C112.159,65.659 109.513,68.772 108.975,72.875C108.759,74.521 107.88,75.273 106.508,76.016C103.175,77.822 99.705,78.411 95.97,78.006C93.62,77.751 91.245,77.605 88.882,77.612C83.969,77.626 79.03,77.504 74.148,77.949C69.606,78.363 65.092,79.297 60.637,80.319C59.421,80.597 58.452,82 57.394,82.914C56.461,83.717 55.674,84.758 54.627,85.346C51.112,87.319 51.09,87.257 51.801,91.633C51.872,92.07 51.724,92.541 51.677,92.996C46.452,92.706 46.423,92.682 43.061,97.022C40.921,99.782 38.795,102.561 36.827,105.444C34.992,108.134 32.81,109.442 29.35,109.631C25.321,109.851 21.29,110.936 17.377,112.054C13.66,113.117 10.077,112.543 6.584,111.662C-0.024,109.994 -6.572,108.059 -13.073,106.005C-18.114,104.415 -22.83,104.176 -27.871,106.443C-34.685,109.507 -41.965,111.039 -49.467,111.719C-54.192,112.149 -58.843,113.42 -63.527,114.312C-69.335,115.417 -74.828,114.762 -80.147,111.956C-82.634,110.644 -85.438,109.787 -88.196,109.17C-95.615,107.512 -103.081,106.06 -110.543,104.604C-112.821,104.159 -114.571,103.091 -116.258,101.475C-119.006,98.842 -121.288,98.564 -123.771,101.227C-127.469,105.192 -132.107,105.301 -136.696,105.816C-137.066,105.461 -137.464,105.266 -137.494,105.025C-138.068,100.389 -140.441,97.429 -144.759,95.3C-148.834,93.291 -152.338,90.141 -156.17,87.608C-157.808,86.525 -157.749,85.076 -157.733,83.433C-157.713,81.229 -157.67,78.976 -158.08,76.83C-158.566,74.286 -159.845,72.253 -162.432,70.95C-165.924,69.189 -165.974,68.528 -165.018,64.493C-164.008,60.225 -165.912,56.531 -168.118,53.339C-171.356,48.652 -175.291,44.444 -178.934,40.036C-179.031,39.916 -179.238,39.87 -179.304,39.743C-183.507,31.643 -190.263,24.354 -187.893,14.127C-187.455,12.24 -186.328,10.234 -184.925,8.914C-182.629,6.753 -181.627,4.25 -183.019,1.673C-185.469,-2.863 -183.933,-7.305 -183.558,-11.809C-183.454,-13.052 -183.261,-14.29 -183.196,-15.534C-182.894,-21.357 -182.674,-27.185 -182.298,-33.002C-182.219,-34.222 -181.576,-35.399 -181.251,-36.61C-180.804,-38.273 -180.184,-39.931 -180.037,-41.625C-179.618,-46.458 -180.139,-47.017 -184.758,-48.111C-186.412,-48.502 -188.016,-49.113 -189.442,-49.56C-189.528,-50.18 -189.627,-50.414 -189.56,-50.482C-185.791,-54.25 -187.306,-57.334 -189.967,-61.238C-192.403,-64.813 -193.872,-69.311 -194.739,-73.61C-195.416,-76.964 -195.589,-80.652 -194.474,-84.183C-193.331,-87.806 -192.459,-91.514 -191.46,-95.182C-190.403,-99.057 -192.558,-102.29 -193.614,-105.727C-193.982,-106.927 -194.685,-108.039 -195.325,-109.138C-199.556,-116.402 -194.429,-128.433 -186.894,-131.794C-177.75,-135.873 -169.01,-141.542 -164.14,-151.172C-163.781,-151.881 -163.213,-152.519 -163,-153.263C-160.573,-161.748 -153.933,-165.966 -146.61,-169.455C-141.177,-172.044 -135.478,-174.181 -131.096,-178.521C-130.148,-179.459 -129.079,-180.748 -128.959,-181.962C-128.552,-186.097 -126.688,-189.557 -124.563,-192.938C-122.788,-195.764 -121.023,-198.612 -119.023,-201.277C-118.11,-202.492 -116.764,-203.525 -115.401,-204.232C-112.013,-205.99 -110.799,-207.477 -111.689,-210.798C-112.634,-214.319 -112.771,-217.622 -111.443,-221.032C-111.051,-222.041 -111.05,-223.22 -110.972,-224.328C-110.544,-230.336 -109.183,-231.731 -103.788,-233.885C-97.743,-236.299 -91.491,-236.564 -85.169,-236.781C-83.424,-236.841 -81.592,-236.732 -79.957,-237.224C-75.792,-238.474 -72.312,-240.487 -72.368,-245.689C-72.393,-247.915 -71.216,-249.093 -68.814,-249.294C-67.527,-249.402 -66.152,-250.119 -65.094,-250.923C-63.271,-252.307 -61.497,-252.563 -59.296,-251.976C-52.834,-250.251 -46.188,-249.981 -39.546,-249.958C-35.766,-249.944 -31.926,-250.804 -28.371,-248.729C-27.99,-248.507 -27.448,-248.517 -26.979,-248.499C-23.19,-248.356 -19.396,-248.318 -15.614,-248.086C-8.164,-247.628 -0.697,-247.286 6.717,-246.476C12.444,-245.85 17.377,-242.958 21.107,-238.697C22.976,-236.563 24.109,-233.483 24.736,-230.645C25.438,-227.463 26.257,-224.523 28.348,-221.971C29.246,-220.875 30.136,-219.655 30.595,-218.339C31.72,-215.115 34.104,-213.373 37.194,-212.787C41.84,-211.907 44.881,-208.943 47.237,-205.299C49.597,-201.651 52.439,-199.695 56.938,-199.554C63.946,-199.335 70.097,-196.463 74.156,-190.76C76.363,-187.66 78.225,-183.518 78.245,-179.835C78.277,-173.936 78.406,-167.832 75.478,-162.122C73.71,-158.677 71.717,-156.366 67.882,-155.778C67.443,-155.71 67.048,-155.364 65.929,-154.78" style="fill:rgb(166,89,45);fill-rule:nonzero;"/>
            </g>
        </g>
        <g transform="matrix(2.65902,0,0,2.65902,290.998,-355.902)">
            <g transform="matrix(1,0,0,1,1196.21,762.405)">
                <path d="M0,-45.089C0.229,-45.419 0.453,-45.742 0.677,-46.067C0.454,-46.215 0.112,-46.537 0.03,-46.481C-0.276,-46.272 -0.498,-45.938 -0.751,-45.65C-0.538,-45.491 -0.325,-45.332 0,-45.089M-112.392,85.382C-112.162,85.231 -111.808,85.124 -111.738,84.919C-111.666,84.704 -111.868,84.397 -111.95,84.131C-112.272,84.325 -112.596,84.519 -112.919,84.714C-112.743,84.936 -112.568,85.159 -112.392,85.382M-54.578,-79.803C-54.684,-80.075 -54.79,-80.349 -54.896,-80.622C-55.591,-80.355 -56.287,-80.087 -56.982,-79.82C-56.876,-79.546 -56.77,-79.271 -56.663,-78.996C-55.968,-79.265 -55.272,-79.533 -54.578,-79.803M-26.868,58.116C-26.876,58.326 -26.883,58.537 -26.891,58.748C-26.624,58.844 -26.295,59.087 -26.104,59.005C-25.658,58.814 -25.279,58.468 -24.873,58.184C-25.538,58.162 -26.203,58.139 -26.868,58.116M-144.654,-85.527C-145.456,-86.16 -145.855,-86.576 -146.343,-86.788C-146.458,-86.839 -147.145,-86.142 -147.09,-85.894C-146.98,-85.396 -146.626,-84.826 -146.201,-84.578C-146.008,-84.465 -145.409,-85.044 -144.654,-85.527M-175.866,3.773C-175.948,3.579 -176.029,3.386 -176.11,3.191C-176.845,3.475 -177.579,3.759 -178.313,4.043C-178.21,4.281 -178.105,4.52 -178.002,4.759C-177.29,4.431 -176.578,4.101 -175.866,3.773M-140.155,41.111C-141.769,41.524 -143.382,41.937 -145.27,42.421C-142.688,44.588 -142.688,44.588 -140.155,41.111M-90.196,-113.187C-88.12,-115.62 -86.621,-118.116 -87.2,-121.494C-87.65,-124.117 -87.573,-126.59 -86.016,-129.058C-85.086,-130.529 -85.104,-132.599 -84.624,-134.715C-92.646,-131.949 -95.666,-119.485 -90.196,-113.187M-67.833,-47.958C-70.511,-47.798 -72.313,-47.736 -74.106,-47.573C-77.411,-47.274 -79.048,-48.405 -79.946,-51.368C-80.321,-52.607 -80.886,-54.039 -81.833,-54.799C-83.874,-56.437 -84.42,-58.587 -84.731,-60.922C-84.938,-62.459 -85.211,-64.017 -85.145,-65.552C-85.075,-67.165 -85.068,-69.022 -84.285,-70.32C-81.328,-75.22 -77.792,-79.78 -74.998,-84.764C-72.232,-89.696 -68.699,-94.472 -68.936,-100.572C-68.979,-101.674 -69.576,-102.753 -69.917,-103.842C-70.976,-103.354 -72.135,-103.003 -73.061,-102.331C-73.781,-101.808 -74.32,-100.943 -74.75,-100.128C-76.341,-97.11 -77.758,-93.995 -79.415,-91.015C-82.943,-84.669 -86.484,-78.325 -90.224,-72.103C-91.712,-69.626 -93.955,-68.036 -97.217,-68.503C-98.402,-68.673 -99.678,-68.275 -100.903,-68.08C-106.754,-67.15 -112.321,-64.504 -118.602,-66.201C-120.894,-66.82 -124.521,-66.439 -126.062,-64.967C-128.352,-62.776 -131.015,-61.846 -133.631,-60.898C-137.089,-59.644 -138.566,-57.868 -138.42,-54.073C-138.269,-50.126 -140.087,-46.227 -143.941,-45.309C-146.939,-44.595 -148.234,-42.73 -150.076,-41.006C-151.639,-39.545 -153.387,-38.284 -155.02,-36.896C-155.911,-36.137 -157.258,-35.431 -157.501,-34.473C-158.764,-29.513 -161.229,-25.158 -164.043,-20.9C-159.869,-18.527 -158.51,-14.273 -156.014,-10.847C-156.938,-9.764 -157.712,-8.858 -158.554,-7.87C-155.108,-1.397 -149.243,1.211 -142.867,3.163C-141.126,3.696 -139.261,4.293 -137.88,5.395C-136.678,6.355 -135.54,7.979 -137.343,9.694C-137.835,10.162 -138.07,10.898 -138.678,11.951C-135.898,12.19 -133.551,12.073 -131.399,12.668C-129.245,13.264 -127.416,13.499 -125.155,12.808C-121.616,11.727 -119.294,13.294 -117.354,16.593C-116.202,18.551 -114.898,21.003 -113.036,21.843C-108.977,23.672 -105.554,26.705 -100.95,27.634C-98.456,28.137 -96.566,28.859 -94.834,26.48C-93.575,24.752 -91.893,24.845 -90.296,25.89C-87.185,27.926 -84.148,30.077 -80.738,32.415C-78.822,32.132 -77.561,30.452 -76.583,28.396C-75.518,26.155 -74.142,24.434 -71.207,25.05C-69.061,25.5 -68.025,24.162 -67.646,22.282C-67.404,21.078 -67.306,19.824 -67.313,18.594C-67.349,12.913 -65.4,10.423 -60.014,9.388C-56.087,8.633 -53.537,5.239 -54.01,1.398C-54.667,-3.95 -54.3,-4.605 -49.576,-6.736C-49.198,-6.906 -48.938,-7.334 -48.529,-7.732C-49.055,-8.239 -49.567,-8.61 -49.92,-9.098C-51.357,-11.087 -53.696,-12.999 -53.954,-15.149C-54.473,-19.484 -53.85,-23.956 -53.688,-28.681C-55.914,-30.333 -58.438,-32.207 -60.693,-33.881C-61.983,-35.443 -62.883,-37.124 -64.277,-38.097C-67.491,-40.341 -69.632,-42.857 -67.833,-47.958M-136.451,18.43C-135.752,18.842 -134.828,19.765 -134.393,19.574C-132.771,18.861 -131.309,17.784 -129.467,16.646C-130.438,15.879 -131.11,15.349 -131.769,14.828C-133.488,16.16 -135.036,17.359 -136.583,18.565C-136.236,17.5 -135.891,16.434 -135.435,15.032C-136.907,15.128 -137.884,15.191 -139.107,15.27C-138.692,16.793 -138.372,17.968 -138.021,19.26C-137.24,18.848 -136.846,18.639 -136.451,18.43M-48.777,-88.248C-47.493,-90.179 -46.37,-92.247 -44.877,-94C-43.597,-95.503 -42.022,-96.853 -40.345,-97.897C-38.212,-99.224 -36.934,-100.962 -36.335,-103.348C-34.938,-108.911 -32.477,-109.985 -27.344,-107.297C-26.804,-107.015 -26.343,-106.581 -25.625,-106.057C-25.879,-105.083 -26.136,-104.097 -26.405,-103.062C-23.08,-100.185 -23.062,-99.775 -25.889,-96.731C-26.481,-96.092 -27.144,-95.314 -27.3,-94.508C-28.019,-90.8 -30.417,-88.226 -32.791,-85.531C-34.938,-83.095 -36.851,-80.435 -38.665,-77.738C-39.174,-76.983 -39.391,-75.497 -38.977,-74.803C-38.549,-74.086 -37.093,-73.444 -36.257,-73.613C-34.004,-74.068 -31.632,-74.619 -29.693,-75.777C-26.798,-77.508 -24.161,-79.704 -21.559,-81.874C-20.299,-82.924 -19.269,-84.295 -18.304,-85.643C-15.861,-89.054 -13.12,-88.993 -11.11,-85.731C-9.771,-85.932 -8.36,-86.578 -7.472,-86.149C-6.644,-85.748 -5.896,-84.183 -5.937,-83.164C-6.074,-79.729 -6.708,-76.505 -9.692,-74.024C-14.887,-69.706 -19.743,-64.983 -24.915,-60.637C-27.219,-58.7 -29.944,-57.267 -32.975,-55.279C-30.334,-53.261 -28.604,-52.9 -26.104,-54.023C-23.055,-55.392 -19.667,-56.016 -16.415,-56.925C-13.58,-57.718 -10.72,-58.418 -7.892,-59.233C-3.879,-60.387 0.098,-61.663 4.12,-62.78C6.494,-63.44 8.53,-63.418 10.022,-60.7C11.229,-58.501 14.294,-57.365 13.759,-54.318C11.631,-51.977 9.57,-49.709 7.354,-47.269C9.146,-45.865 11.593,-44.709 12.734,-41.887C14.319,-37.968 13.572,-34.203 9.868,-32.44C5.551,-30.384 1.151,-28.49 -3.275,-26.68C-4.971,-25.987 -6.896,-25.866 -8.604,-25.197C-9.471,-24.859 -10.412,-23.997 -10.71,-23.156C-10.928,-22.538 -10.357,-21.362 -9.78,-20.802C-8.592,-19.646 -7.164,-18.735 -5.643,-17.578C-5.387,-18.155 -5.047,-18.92 -4.411,-20.355C0.567,-19.814 5.814,-19.503 10.958,-18.601C14.979,-17.895 18.854,-12.008 17.687,-8.163C17.089,-6.193 14.88,-4.649 13.231,-3.089C12.438,-2.337 11.256,-1.994 10.249,-1.467C10.298,-1.118 10.348,-0.77 10.396,-0.42C11.674,-0.263 12.952,-0.104 14.229,0.053C17.882,0.5 22.543,5.294 22.359,8.912C22.283,10.417 21.441,12.433 20.273,13.234C15.887,16.24 11.07,18.568 5.562,18.259C3.181,18.125 2.377,19.786 1.039,20.989C-0.778,22.625 0.017,24.003 0.873,25.896C3.466,31.634 3.621,37.413 0.056,42.979C-0.318,43.563 0.054,44.625 0.093,45.882C-2.464,45.885 -4.016,47.883 -4.446,50.313C-4.854,52.616 -4.379,55.074 -4.288,57.6C-5.272,58.358 -6.596,59.319 -7.853,60.359C-9.895,62.049 -11.525,62.014 -13.601,60.153C-14.632,59.229 -15.538,58.029 -16.742,57.484C-17.479,57.15 -18.789,57.639 -19.595,58.148C-19.854,58.312 -19.568,59.888 -19.121,60.532C-16.506,64.303 -16.472,64.268 -19.004,67.566C-19.566,68.299 -20.187,69.031 -20.544,69.864C-20.894,70.681 -20.939,71.626 -21.214,72.981C-23.333,72.774 -25.285,72.583 -27.542,72.361C-27.853,73.081 -28.251,74.001 -28.746,75.147C-33.572,73.496 -36.45,69.653 -40.509,66.332C-41.115,66.721 -42.198,67.415 -43.604,68.317C-39.714,73.544 -36.383,78.662 -36.527,85.347C-37.762,86.372 -40.309,84.751 -41.168,87.268C-41.293,87.633 -43.182,87.727 -44.062,87.41C-45.016,87.066 -45.763,86.115 -46.568,85.393C-49.669,82.617 -52.799,79.871 -55.824,77.014C-56.699,76.187 -57.258,75.027 -57.979,73.995C-59.862,74.356 -60.083,75.377 -59.933,77.04C-59.474,82.114 -57.968,86.905 -56.415,91.701C-56.278,92.125 -56.269,92.591 -56.102,93.677C-58.445,92.24 -60.494,91.617 -62.964,92.361C-65.041,92.987 -66.254,91.182 -67.174,89.432C-68.313,87.265 -69.718,85.221 -70.687,82.984C-71.381,81.38 -71.547,79.548 -71.751,78.672C-74.65,74.231 -77.163,70.391 -79.667,66.546C-80.639,65.052 -81.125,62.619 -83.521,63.267C-85.982,63.933 -85.864,66.191 -85.602,68.307C-85.489,69.216 -85.392,70.219 -85.651,71.068C-88.508,80.42 -88.456,89.948 -87.587,99.55C-87.494,100.571 -87.889,101.636 -88.057,102.679C-91.743,104.405 -94.846,101.796 -98.313,102.088C-99.063,99.343 -99.763,96.79 -100.567,93.852C-104.919,96.785 -104.811,102.159 -109.066,104.788C-110.438,100.691 -113.406,99.914 -117.696,101.166C-117.552,96.943 -117.424,93.224 -117.277,88.987C-118.034,89.562 -118.169,89.637 -118.268,89.743C-122.128,93.95 -125.219,98.686 -128.017,103.646C-128.554,104.598 -129.679,105.22 -130.752,106.191C-132.153,104.478 -133.212,103.184 -134.508,101.6C-134.801,101.64 -135.367,101.708 -135.932,101.794C-138.896,102.244 -140.28,101.344 -139.832,98.482C-139.418,95.833 -138.134,93.314 -137.172,90.761C-136.764,89.675 -136.201,88.647 -136.334,87.151C-138.443,89.24 -140.499,91.389 -142.676,93.405C-145.69,96.198 -146.164,96.163 -149.203,93.504C-149.435,93.302 -149.595,92.886 -149.835,92.845C-153.729,92.178 -155.031,89.727 -155.202,85.979C-155.296,83.905 -157.192,83.024 -159.381,83.484C-160.111,83.638 -160.807,84.047 -161.462,84.434C-161.97,84.735 -162.391,85.184 -163.266,85.914C-165.421,84.098 -167.712,82.515 -169.556,80.518C-171.484,78.43 -170.886,75.435 -168.597,73.668C-168.228,73.384 -167.814,73.157 -167.438,72.882C-163.957,70.333 -163.958,70.332 -163.656,66.103C-162.205,65.893 -160.701,65.676 -159.16,65.453C-155.589,60.319 -152.032,55.206 -147.741,49.036C-150.507,49.121 -152.464,48.589 -153.563,49.33C-156.545,51.339 -159.891,51.823 -163.206,52.583C-164.879,52.966 -166.586,53.234 -167.341,55.143C-167.496,55.536 -167.929,55.928 -168.327,56.098C-172.797,58.009 -177.275,59.898 -181.771,61.746C-184.049,62.682 -185.587,62.029 -186.562,59.64C-187.37,57.662 -187.97,55.154 -190.995,56.229C-191.884,51.951 -191.833,51.759 -188.797,50.424C-185.387,48.924 -181.931,47.529 -178.524,46.018C-177.55,45.586 -176.651,44.954 -175.773,44.337C-175.142,43.892 -174.677,43.174 -174.008,42.827C-168.665,40.061 -163.36,37.205 -157.901,34.684C-154.377,33.057 -151.609,30.85 -149.903,27.36C-146.311,27.438 -145.503,26.82 -144.906,23.295C-147.566,23.636 -149.771,24.207 -149.791,27.481C-156.807,26.386 -162.731,29.618 -168.921,32.082C-173.951,34.084 -179.244,35.415 -184.376,37.175C-187.127,38.118 -189.805,39.291 -192.475,40.454C-193.747,41.009 -194.869,41.922 -196.155,42.432C-199.513,43.764 -200.354,43.14 -201.646,39.547C-202.044,38.442 -203.285,37.431 -204.387,36.828C-208.386,34.64 -208.708,33.435 -205.909,29.745C-205.439,29.126 -204.909,28.552 -204.455,27.923C-203.223,26.216 -203.421,24.721 -205.246,23.588C-206.55,22.778 -207.907,22.057 -209.325,21.247C-209.111,18.351 -209.214,15.425 -205.642,14.715C-206.276,12.441 -206.631,10.523 -207.373,8.77C-207.795,7.774 -208.706,6.774 -209.657,6.262C-211.212,5.423 -211.864,4.587 -211.758,2.644C-211.615,0.066 -212.275,-2.545 -212.385,-5.151C-212.544,-8.953 -211.992,-9.491 -208.286,-10.734C-203.573,-12.314 -198.896,-14.003 -194.222,-15.693C-192.966,-16.148 -191.406,-16.367 -191.302,-18.809C-193.14,-18.779 -194.965,-18.97 -196.706,-18.671C-199.17,-18.249 -200.601,-18.859 -201.015,-21.485C-201.377,-23.785 -202.249,-25.83 -203.846,-27.678C-204.658,-28.619 -205.016,-30.311 -204.909,-31.609C-204.716,-33.966 -204.869,-36.031 -205.942,-38.266C-207.046,-40.564 -204.724,-43.682 -201.741,-45.161C-199.285,-46.38 -196.945,-47.848 -194.64,-49.338C-194.103,-49.686 -193.912,-50.57 -193.442,-51.426C-194.605,-51.934 -195.508,-52.328 -196.764,-52.876C-196.031,-54.156 -195.207,-55.131 -194.914,-56.245C-194.649,-57.253 -194.966,-58.413 -195.048,-59.9C-192.845,-60.489 -190.361,-61.154 -188.468,-61.661C-187.949,-63.891 -187.9,-65.884 -187.017,-67.384C-186.165,-68.826 -184.449,-69.76 -182.707,-71.27C-182.132,-73.473 -180.907,-76.337 -183.805,-78.742C-181.667,-81.736 -178.809,-81.353 -176.059,-81.197C-174.983,-81.137 -173.785,-80.456 -172.889,-80.768C-171.929,-81.102 -171.14,-82.191 -170.522,-83.114C-170.285,-83.47 -170.787,-84.273 -170.85,-84.882C-171.344,-89.697 -169.452,-91.226 -164.885,-89.76C-160.337,-88.301 -155.778,-86.872 -151.455,-85.503C-149.829,-87.196 -150.37,-88.446 -151.617,-88.923C-155.605,-90.443 -157.841,-94.289 -161.746,-96.042C-165.129,-97.56 -166.915,-104.798 -165.482,-108.414C-164.968,-109.714 -164.139,-110.968 -163.962,-112.31C-163.587,-115.143 -162.109,-116.277 -159.461,-117.402C-156.043,-118.854 -153.697,-117.938 -151.48,-115.784C-147.119,-111.548 -141.542,-109.689 -136.099,-107.538C-135.694,-107.379 -135.204,-107.44 -134.348,-107.36C-134.373,-112.318 -136.969,-116.549 -137.608,-121.148C-138.238,-125.677 -138.148,-130.307 -138.408,-135.579C-136.574,-134.913 -135.514,-134.527 -134.297,-134.085C-134.282,-134.095 -133.917,-134.189 -133.818,-134.404C-132.221,-137.903 -130.153,-138.393 -127.761,-135.627C-126.89,-134.621 -126.518,-133.185 -125.907,-131.95C-124.976,-130.065 -124.538,-127.759 -122.123,-127.186C-118.172,-128.935 -117.422,-132.378 -116.913,-135.953C-116.553,-138.488 -115.806,-140.627 -112.642,-140.159C-112.596,-141.491 -112.965,-142.875 -112.438,-143.648C-111.153,-145.533 -109.742,-147.612 -107.861,-148.756C-103.706,-151.28 -100.133,-150.222 -97.16,-146.216C-94.538,-142.684 -94.106,-142.701 -90.784,-145.733C-87.611,-148.626 -83.718,-148.748 -79.864,-147.805C-79.047,-147.606 -78.056,-145.564 -78.2,-144.517C-78.51,-142.293 -79.513,-140.165 -80.271,-137.876C-76.748,-136.519 -79.222,-132.546 -77.442,-130.093C-74.309,-129.588 -73.277,-132.244 -71.718,-134.019C-69.496,-133.646 -67.392,-133.295 -65.287,-132.939C-63.518,-132.639 -62.764,-131.418 -62.212,-129.831C-60.893,-126.034 -59.027,-122.526 -56.096,-118.718C-54.824,-120.431 -53.835,-121.698 -52.917,-123.016C-51.771,-124.664 -50.577,-125.472 -48.748,-123.815C-48.096,-123.223 -47.096,-123.035 -46.327,-122.549C-44.036,-121.097 -43.086,-118.716 -44.221,-116.147C-46.156,-111.765 -48.368,-107.505 -50.49,-103.207C-52.885,-98.359 -55.398,-93.565 -57.614,-88.637C-57.918,-87.961 -56.978,-85.932 -56.314,-85.773C-54.718,-85.389 -52.859,-85.448 -51.272,-85.904C-50.254,-86.197 -49.528,-87.513 -48.672,-88.369L-48.777,-88.248Z" style="fill:rgb(216,176,73);fill-rule:nonzero;"/>
            </g>
        </g>
        <g transform="matrix(2.65902,0,0,2.65902,290.998,-355.902)">
            <g transform="matrix(1,0,0,1,1135.79,723.747)">
                <path d="M0,1.097C2.252,0.39 2.998,-0.137 2.582,-0.726C2.354,-1.049 -3.3,2.146 0,1.097" style="fill:white;fill-rule:nonzero;"/>
            </g>
        </g>
        <g transform="matrix(2.65902,0,0,2.65902,290.998,-355.902)">
            <g transform="matrix(1,0,0,1,1103.36,714.405)">
                <path d="M0,-0.832C-0.852,-1.163 -2.316,-0.517 -0.602,-0.034C0.729,0.331 1.196,-0.326 0,-0.832" style="fill:white;fill-rule:nonzero;"/>
            </g>
        </g>
        <g transform="matrix(2.65902,0,0,2.65902,290.998,-355.902)">
            <g transform="matrix(1,0,0,1,1132.8,760.968)">
                <path d="M0,0.578C0.045,0.312 -0.418,-0.014 -1.032,-0.092C-2.956,-0.424 -0.075,1.002 0,0.578" style="fill:white;fill-rule:nonzero;"/>
            </g>
        </g>
        <g transform="matrix(2.65902,0,0,2.65902,290.998,-355.902)">
            <g transform="matrix(1,0,0,1,1078.62,685.413)">
                <path d="M0,3.622C0.28,3.424 0.059,2.648 -0.49,1.87C-2.369,-0.656 -0.93,4.278 0,3.622" style="fill:white;fill-rule:nonzero;"/>
            </g>
        </g>
        <g transform="matrix(2.65902,0,0,2.65902,290.998,-355.902)">
            <g transform="matrix(1,0,0,1,1044.22,756.304)">
                <path d="M0,-0.835C-1.75,-0.919 -3.897,-2.974 -3.809,-1.408C-3.547,2.139 3.037,-1.031 0,-0.835" style="fill:white;fill-rule:nonzero;"/>
            </g>
        </g>
        <g transform="matrix(2.65902,0,0,2.65902,290.998,-355.902)">
            <g transform="matrix(1,0,0,1,1045.82,747.863)">
                <path d="M0,0.886C1.779,-1.798 -4.002,1.524 -2.084,2.358C-1.295,2.684 -1.015,2.486 0,0.886" style="fill:white;fill-rule:nonzero;"/>
            </g>
        </g>
        <g transform="matrix(2.65902,0,0,2.65902,290.998,-355.902)">
            <g transform="matrix(1,0,0,1,1069.37,709.863)">
                <path d="M0,-0.314C-1.878,-4.261 -0.517,1.594 0.03,2.37C1.098,3.947 1.099,2.034 0,-0.314" style="fill:white;fill-rule:nonzero;"/>
            </g>
        </g>
        <g transform="matrix(2.65902,0,0,2.65902,290.998,-355.902)">
            <g transform="matrix(1,0,0,1,1049.92,767.848)">
                <path d="M0,-0.603C-0.324,-1.062 -1.719,-0.858 -1.247,-0.19C-0.788,0.459 0.254,-0.243 0,-0.603" style="fill:white;fill-rule:nonzero;"/>
            </g>
        </g>
        <g transform="matrix(2.65902,0,0,2.65902,290.998,-355.902)">
            <g transform="matrix(1,0,0,1,1110.27,794.91)">
                <path d="M0,-11.533C-4.201,-7.834 2.063,5.248 11.163,4.407C21.402,3.549 6.106,-16.781 0,-11.533" style="fill:white;fill-rule:nonzero;"/>
            </g>
        </g>
        <g transform="matrix(2.65902,0,0,2.65902,290.998,-355.902)">
            <g transform="matrix(1,0,0,1,1079.19,838.766)">
                <path d="M0,-23.47C-3.127,-23.079 -8.384,-16.989 -9.007,-13.052C-10.077,-6.05 -5.649,0.616 -1.266,-1.363C6.782,-4.915 5.35,-24.086 0,-23.47" style="fill:white;fill-rule:nonzero;"/>
            </g>
        </g>
        <g transform="matrix(2.65902,0,0,2.65902,290.998,-355.902)">
            <g transform="matrix(1,0,0,1,1096,828.365)">
                <path d="M0,-20.694C-7.918,-22.623 -10.39,-3.143 -0.516,-0.561C8.853,1.929 7.134,-18.89 0,-20.694" style="fill:white;fill-rule:nonzero;"/>
            </g>
        </g>
        <g transform="matrix(2.65902,0,0,2.65902,290.998,-355.902)">
            <g transform="matrix(1,0,0,1,1074.27,815.818)">
                <path d="M0,-24.787C-4.523,-25.603 -12.472,-9.385 -4.411,-3.304C0.965,0.816 8.003,-23.612 0,-24.787" style="fill:white;fill-rule:nonzero;"/>
            </g>
        </g>
        <g transform="matrix(2.65902,0,0,2.65902,290.998,-355.902)">
            <g transform="matrix(1,0,0,1,1109.52,777.718)">
                <path d="M0,-19.362C-8.953,-21.233 -4.572,-2.078 5.312,-0.221C16.485,1.871 7.756,-17.76 0,-19.362" style="fill:white;fill-rule:nonzero;"/>
            </g>
        </g>
        <g transform="matrix(2.65902,0,0,2.65902,290.998,-355.902)">
            <g transform="matrix(1,0,0,1,1099.85,801.613)">
                <path d="M0,-5.33C-2.364,1.068 2.938,8.385 6.702,9.706C21.233,14.775 5.608,-20.105 0,-5.33" style="fill:white;fill-rule:nonzero;"/>
            </g>
        </g>
        <g transform="matrix(2.65902,0,0,2.65902,290.998,-355.902)">
            <g transform="matrix(1,0,0,1,1091.39,785.562)">
                <path d="M0,11.888C1.632,0.094 -5.139,-2.123 -5.68,-2.889C-8.822,-7.341 -15.02,15.476 -5.577,18.251C-2.275,19.229 -0.779,17.519 0,11.888" style="fill:white;fill-rule:nonzero;"/>
            </g>
        </g>
        <g transform="matrix(2.65902,0,0,2.65902,290.998,-355.902)">
            <g transform="matrix(1,0,0,1,1124.38,782.865)">
                <path d="M0,-2.55C-1.09,0.594 3.172,8.054 11.59,9.638C28.621,12.565 4.446,-15.115 0,-2.55" style="fill:white;fill-rule:nonzero;"/>
            </g>
        </g>
        <g transform="matrix(2.65902,0,0,2.65902,290.998,-355.902)">
            <g transform="matrix(1,0,0,1,1031.1,717.582)">
                <path d="M0,-6.182C-1.506,-2.426 5.788,3.843 11.587,5.077C27.678,8.573 3.484,-14.755 0,-6.182" style="fill:white;fill-rule:nonzero;"/>
            </g>
        </g>
        <g transform="matrix(2.65902,0,0,2.65902,290.998,-355.902)">
            <g transform="matrix(1,0,0,1,1129.75,793.645)">
                <path d="M0,30.059C7.44,30.98 5.437,23.894 1.479,18.289C-12.086,-0.921 -16.927,28.217 0,30.059" style="fill:white;fill-rule:nonzero;"/>
            </g>
        </g>
        <g transform="matrix(2.65902,0,0,2.65902,290.998,-355.902)">
            <g transform="matrix(1,0,0,1,1158.91,699.682)">
                <path d="M0,23.241C5.371,22.198 11.981,14.593 10.967,10.647C6.906,-4.584 -23.059,27.825 0,23.241" style="fill:white;fill-rule:nonzero;"/>
            </g>
        </g>
        <g transform="matrix(2.65902,0,0,2.65902,290.998,-355.902)">
            <g transform="matrix(1,0,0,1,1156.95,732.397)">
                <path d="M0,11.448C6.702,10.306 7.21,1.651 -2.003,0.226C-8.062,-0.699 -16.505,3.195 -14.694,7.276C-12.983,11.093 -4.139,12.147 0,11.448" style="fill:white;fill-rule:nonzero;"/>
            </g>
        </g>
        <g transform="matrix(2.65902,0,0,2.65902,290.998,-355.902)">
            <g transform="matrix(1,0,0,1,1138.29,751.901)">
                <path d="M0,-0.012C-1.668,2.799 7.265,8.524 15.217,7.144C27.79,5.021 5.016,-8.536 0,-0.012" style="fill:white;fill-rule:nonzero;"/>
            </g>
        </g>
        <g transform="matrix(2.65902,0,0,2.65902,290.998,-355.902)">
            <g transform="matrix(1,0,0,1,1162.06,766.669)">
                <path d="M0,16.968C10.445,14.837 -5.62,-1.513 -14.635,5.156C-20.321,9.172 -7.048,18.481 0,16.968" style="fill:white;fill-rule:nonzero;"/>
            </g>
        </g>
        <g transform="matrix(2.65902,0,0,2.65902,290.998,-355.902)">
            <g transform="matrix(1,0,0,1,1131.77,761.2)">
                <path d="M0,-0.324C0.614,-0.246 1.077,0.08 1.032,0.346C0.957,0.77 -1.924,-0.656 0,-0.324M8.601,10.338C23.211,4.532 -9.645,-11.687 -7.585,1.347C-6.369,9.312 6.062,11.363 8.601,10.338" style="fill:white;fill-rule:nonzero;"/>
            </g>
        </g>
        <g transform="matrix(2.65902,0,0,2.65902,290.998,-355.902)">
            <g transform="matrix(-0.273616,-0.961839,-0.961839,0.273616,1095.71,727.49)">
                <path d="M-12.085,-13.315C-8.544,-14.089 -6.776,-1.764 -9.35,5.566C-10.296,8.262 -12.105,9.845 -12.085,7.956C-12.051,5.322 -16.529,-0.408 -15.913,-7.475C-15.634,-10.565 -14.141,-12.865 -12.085,-13.315" style="fill:white;fill-rule:nonzero;"/>
            </g>
        </g>
        <g transform="matrix(2.65902,0,0,2.65902,290.998,-355.902)">
            <g transform="matrix(1,0,0,1,1100.91,752.495)">
                <path d="M0,-6.937C-1.224,-6.073 7.009,6.169 16.179,5.742C30.219,4.84 8.737,-13.106 0,-6.937" style="fill:white;fill-rule:nonzero;"/>
            </g>
        </g>
        <g transform="matrix(2.65902,0,0,2.65902,290.998,-355.902)">
            <g transform="matrix(1,0,0,1,1040.41,748.423)">
                <path d="M0,6.473C-0.089,4.908 2.059,6.962 3.809,7.046C6.846,6.85 0.262,10.02 0,6.473M5.403,0.327C4.389,1.926 4.108,2.124 3.319,1.798C1.401,0.964 7.183,-2.357 5.403,0.327M8.325,10.01C12.949,8.702 16.848,5.904 17.104,3.625C18.23,-5.339 -8.751,-5.717 -3.383,7.229C-1.368,12.19 3.365,11.347 8.325,10.01" style="fill:white;fill-rule:nonzero;"/>
            </g>
        </g>
        <g transform="matrix(2.65902,0,0,2.65902,290.998,-355.902)">
            <g transform="matrix(1,0,0,1,1049.92,772.891)">
                <path d="M0,-5.646C0.254,-5.286 -0.788,-4.584 -1.247,-5.233C-1.719,-5.901 -0.324,-6.105 0,-5.646M-8.836,5.674C-6.598,5.213 5.699,-4.31 5.666,-5.545C5.624,-6.727 2.873,-9.632 1.382,-10.027C-9.898,-13.033 -17.933,7.387 -8.836,5.674" style="fill:white;fill-rule:nonzero;"/>
            </g>
        </g>
        <g transform="matrix(2.65902,0,0,2.65902,290.998,-355.902)">
            <g transform="matrix(1,0,0,1,1030.71,754.568)">
                <path d="M0,18.548C18.168,13.418 2.65,-2.484 -10.584,6.86C-19.851,13.403 -9.104,21.032 0,18.548" style="fill:white;fill-rule:nonzero;"/>
            </g>
        </g>
        <g transform="matrix(2.65902,0,0,2.65902,290.998,-355.902)">
            <g transform="matrix(1,0,0,1,1045.5,729.04)">
                <path d="M0,12.331C1.307,13.096 5.457,8.832 -0.525,3.004C-4.239,-0.751 -18.368,-3.562 -18.132,3.687C-17.623,15.893 -1.213,11.506 0,12.331" style="fill:white;fill-rule:nonzero;"/>
            </g>
        </g>
        <g transform="matrix(2.65902,0,0,2.65902,290.998,-355.902)">
            <g transform="matrix(1,0,0,1,1024.26,784.449)">
                <path d="M0,20.731C4.72,19.629 13.898,11.156 10.377,5.848C4.026,-3.806 -19.144,24.537 0,20.731" style="fill:white;fill-rule:nonzero;"/>
            </g>
        </g>
        <g transform="matrix(2.65902,0,0,2.65902,290.998,-355.902)">
            <g transform="matrix(1,0,0,1,1006.79,732.938)">
                <path d="M0,12.04C0.048,12.893 5.559,18.893 15.533,17.201C30.11,14.563 -1.181,-6.853 0,12.04" style="fill:white;fill-rule:nonzero;"/>
            </g>
        </g>
        <g transform="matrix(2.65902,0,0,2.65902,290.998,-355.902)">
            <g transform="matrix(1,0,0,1,1086.78,762.659)">
                <path d="M0,1.124C1.015,-4.768 0.79,-5.68 -2.227,-7.839C-7.183,-11.394 -15.929,10.78 -7.347,12.046C-3.657,12.518 -1.381,9.138 0,1.124" style="fill:white;fill-rule:nonzero;"/>
            </g>
        </g>
        <g transform="matrix(2.65902,0,0,2.65902,290.998,-355.902)">
            <g transform="matrix(1,0,0,1,1049.75,740.181)">
                <path d="M0,-12.861C-4.769,-9.493 1.939,2.021 12.706,0.313C17.703,-0.466 18.078,-1.058 15.453,-4.38C10.529,-10.692 2.862,-14.882 0,-12.861" style="fill:white;fill-rule:nonzero;"/>
            </g>
        </g>
        <g transform="matrix(2.65902,0,0,2.65902,290.998,-355.902)">
            <g transform="matrix(1,0,0,1,1111.41,703.927)">
                <path d="M0,-9.052C-3.131,-3.854 -4.147,5.294 1.812,6.454C4.424,6.985 6.298,5.149 8.635,-0.323C15.354,-16.037 3.814,-15.426 0,-9.052" style="fill:white;fill-rule:nonzero;"/>
            </g>
        </g>
        <g transform="matrix(2.65902,0,0,2.65902,290.998,-355.902)">
            <g transform="matrix(0.968179,0.250258,0.250258,-0.968179,1129.37,748.563)">
                <path d="M1.328,1.421C6.216,3.593 5.827,4.994 5.926,8.557L1.328,9.609C-8.67,11.978 -16.665,6.746 -14.983,3.263C-13.873,0.914 -3.722,-0.767 1.328,1.421" style="fill:white;fill-rule:nonzero;"/>
            </g>
        </g>
        <g transform="matrix(2.65902,0,0,2.65902,290.998,-355.902)">
            <g transform="matrix(1,0,0,1,1093.78,762.643)">
                <path d="M0,-18.395C-6.221,-19.834 -4.71,-2.204 2.941,-0.563C12.956,1.439 5.685,-17.096 0,-18.395" style="fill:white;fill-rule:nonzero;"/>
            </g>
        </g>
        <g transform="matrix(2.65902,0,0,2.65902,290.998,-355.902)">
            <g transform="matrix(1,0,0,1,1062.88,729.992)">
                <path d="M0,-1.777C0.346,1.623 9.933,8.948 15.156,10.178C30.043,13.784 -1.448,-15.561 0,-1.777" style="fill:white;fill-rule:nonzero;"/>
            </g>
        </g>
        <g transform="matrix(2.65902,0,0,2.65902,290.998,-355.902)">
            <g transform="matrix(1,0,0,1,1090.85,782.887)">
                <path d="M0,-14.331C-2.809,-11.067 2.068,4.132 7.705,5.824C19.322,9.265 7.876,-23.596 0,-14.331" style="fill:white;fill-rule:nonzero;"/>
            </g>
        </g>
        <g transform="matrix(2.65902,0,0,2.65902,290.998,-355.902)">
            <g transform="matrix(1,0,0,1,1078.64,755.302)">
                <path d="M0,-11.829C-5.104,-14.049 -3.493,-13.024 -10.741,-11.657C-24.799,-9.016 -17.585,2.22 -0.947,-3.795C6.921,-6.494 6.59,-8.968 0,-11.829" style="fill:white;fill-rule:nonzero;"/>
            </g>
        </g>
        <g transform="matrix(2.65902,0,0,2.65902,290.998,-355.902)">
            <g transform="matrix(1,0,0,1,1105.58,686.063)">
                <path d="M0,-17.606C-5.97,-15.593 -9.228,-1.701 0.445,2.501C3.502,3.793 4.563,3.184 5.995,-0.532C8.348,-6.667 11.036,-21.399 0,-17.606" style="fill:white;fill-rule:nonzero;"/>
            </g>
        </g>
        <g transform="matrix(2.65902,0,0,2.65902,290.998,-355.902)">
            <g transform="matrix(1,0,0,1,1058.8,701.937)">
                <path d="M0,20.902C9.771,20.905 -4.043,7.057 -6.731,5.89C-20.754,-0.147 -9.831,21.049 0,20.902" style="fill:white;fill-rule:nonzero;"/>
            </g>
        </g>
        <g transform="matrix(2.65902,0,0,2.65902,290.998,-355.902)">
            <g transform="matrix(1,0,0,1,1149.18,708.69)">
                <path d="M0,-5.287C-2.899,-20.187 -32.418,14.9 -11.909,7.691C-5.596,5.473 0.759,-1.439 0,-5.287" style="fill:white;fill-rule:nonzero;"/>
            </g>
        </g>
        <g transform="matrix(2.65902,0,0,2.65902,290.998,-355.902)">
            <g transform="matrix(1,0,0,1,1139.68,702.225)">
                <path d="M0,-21.855C-10.423,-22.343 -16.966,-0.989 -5.562,-0.022C-0.322,0.488 4.202,-10.138 5.257,-15.402C6.335,-20.874 5.724,-21.607 0,-21.855" style="fill:white;fill-rule:nonzero;"/>
            </g>
        </g>
        <g transform="matrix(2.65902,0,0,2.65902,290.998,-355.902)">
            <g transform="matrix(1,0,0,1,1138.37,725.075)">
                <path d="M0,-2.055C0.416,-1.466 -0.33,-0.939 -2.582,-0.232C-5.882,0.817 -0.228,-2.378 0,-2.055M0.295,7.011C6.761,5.803 10.699,0.551 7.947,-3.148C-0.339,-14.053 -24.987,11.998 0.295,7.011" style="fill:white;fill-rule:nonzero;"/>
            </g>
        </g>
        <g transform="matrix(2.65902,0,0,2.65902,290.998,-355.902)">
            <g transform="matrix(1,0,0,1,1059.23,680.593)">
                <path d="M0,24.369C8.303,24.835 1.235,-0.466 -7.682,5.831C-11.625,8.615 -8.133,23.921 0,24.369" style="fill:white;fill-rule:nonzero;"/>
            </g>
        </g>
        <g transform="matrix(2.65902,0,0,2.65902,290.998,-355.902)">
            <g transform="matrix(1,0,0,1,1055.66,794.435)">
                <path d="M0,-15.764C-8.906,-20.249 -25.251,4.485 -10.633,1.86C-2.896,0.383 3.872,-13.862 0,-15.764" style="fill:white;fill-rule:nonzero;"/>
            </g>
        </g>
        <g transform="matrix(2.65902,0,0,2.65902,290.998,-355.902)">
            <g transform="matrix(1,0,0,1,1052.26,798.147)">
                <path d="M0,23.578C5.829,23.027 9.227,11.365 8.049,3.35C-5.042,-1.062 -11.792,24.64 0,23.578" style="fill:white;fill-rule:nonzero;"/>
            </g>
        </g>
        <g transform="matrix(2.65902,0,0,2.65902,290.998,-355.902)">
            <g transform="matrix(1,0,0,1,1074.94,766.024)">
                <path d="M0,-4.416C1.954,-7.295 -2.563,-6.524 -0.695,-7.844C1.019,-9.054 -2.532,-11.289 -8.586,-8.19C-13.15,-5.808 -18.23,2.117 -16.891,4.807C-16.177,6.215 -12.028,6.873 -10.014,5.963C-6.923,4.504 -6.1,4.069 0,-4.416" style="fill:white;fill-rule:nonzero;"/>
            </g>
        </g>
        <g transform="matrix(2.65902,0,0,2.65902,290.998,-355.902)">
            <g transform="matrix(1,0,0,1,1062.21,774.441)">
                <path d="M0,22.081C6.457,22.124 12.798,2.588 6.974,1.586C-2.687,-0.086 -10.667,22.167 0,22.081" style="fill:white;fill-rule:nonzero;"/>
            </g>
        </g>
        <g transform="matrix(2.65902,0,0,2.65902,290.998,-355.902)">
            <g transform="matrix(1,0,0,1,1103.36,721.279)">
                <path d="M0,-7.706C1.196,-7.2 0.729,-6.543 -0.602,-6.908C-2.316,-7.391 -0.852,-8.037 0,-7.706M4.324,-7.591C-3.834,-19.144 -15.423,8.219 -5.673,10.471C-1.137,11.438 7.175,-3.554 4.324,-7.591" style="fill:white;fill-rule:nonzero;"/>
            </g>
        </g>
        <g transform="matrix(2.65902,0,0,2.65902,290.998,-355.902)">
            <g transform="matrix(1,0,0,1,1118.22,713.139)">
                <path d="M0,15.482C6.646,14.033 13.465,-0.178 5.151,-2.047C-4.354,-4.196 -18.853,19.678 0,15.482" style="fill:white;fill-rule:nonzero;"/>
            </g>
        </g>
        <g transform="matrix(2.65902,0,0,2.65902,290.998,-355.902)">
            <g transform="matrix(1,0,0,1,1086.86,699.781)">
                <path d="M0,35.927C2.537,35.625 3.031,35.136 2.742,33.01C2.067,27.441 5.016,22.86 1.707,17.283C-9.165,-0.997 -9.617,36.924 0,35.927" style="fill:white;fill-rule:nonzero;"/>
            </g>
        </g>
        <g transform="matrix(2.65902,0,0,2.65902,290.998,-355.902)">
            <g transform="matrix(1,0,0,1,1069.37,711.551)">
                <path d="M0,-2.002C1.099,0.346 1.098,2.259 0.03,0.682C-0.517,-0.094 -1.878,-5.949 0,-2.002M7.504,1.56C5.063,-14.392 -5.014,-10.491 -6.248,-3.323C-7.204,2.233 0.731,10.71 4.208,11.483C8.661,12.39 7.629,2.261 7.504,1.56" style="fill:white;fill-rule:nonzero;"/>
            </g>
        </g>
        <g transform="matrix(2.65902,0,0,2.65902,290.998,-355.902)">
            <g transform="matrix(1,0,0,1,1078.13,690.602)">
                <path d="M0,-3.319C0.549,-2.541 0.771,-1.765 0.49,-1.567C-0.439,-0.911 -1.879,-5.845 0,-3.319M1.466,11.963C4.618,12.861 5.883,11.549 6.545,6.744C9.752,-16.18 -4.231,-10.722 -5.72,-5.806C-6.585,-2.809 -3.856,10.316 1.466,11.963" style="fill:white;fill-rule:nonzero;"/>
            </g>
        </g>
        <g transform="matrix(2.65902,0,0,2.65902,290.998,-355.902)">
            <g transform="matrix(1,0,0,1,1093.72,685.931)">
                <path d="M0,25.215C3.395,25.084 8.942,-0.258 -0.868,4.244C-7.733,7.453 -6.743,25.473 0,25.215" style="fill:white;fill-rule:nonzero;"/>
            </g>
        </g>
    </g>
</svg>
