<?xml version="1.0" encoding="UTF-8" standalone="no"?>
<!DOCTYPE svg PUBLIC "-//W3C//DTD SVG 1.1//EN" "http://www.w3.org/Graphics/SVG/1.1/DTD/svg11.dtd">
<svg width="100%" height="100%" viewBox="0 0 869 779" version="1.1" xmlns="http://www.w3.org/2000/svg" xmlns:xlink="http://www.w3.org/1999/xlink" xml:space="preserve" xmlns:serif="http://www.serif.com/" style="fill-rule:evenodd;clip-rule:evenodd;stroke-linejoin:round;stroke-miterlimit:2;">
    <g transform="matrix(1,0,0,1,-766.54,-560.853)">
        <g transform="matrix(2.65902,0,0,2.65902,290.998,-355.902)">
            <g transform="matrix(1,0,0,1,422.69,623.332)">
                <path d="M0,-160.483L15.876,-163.589C15.876,-163.589 18.396,-151.504 28.504,-154.19C38.612,-156.877 37.396,-154.045 37.396,-154.045L57.634,-147.837L77.487,-132.495L82.524,-110.02L82.727,-86.921L77.75,-60.551L70.688,-30.796L59.143,-13.706C59.143,-13.706 57.941,-8.193 51.84,-6.417C27.871,0.567 59.343,-8.851 36.054,-6.423C12.765,-3.996 27.694,-5.725 27.694,-5.725L18.76,-5.146L7.789,-8.629C7.789,-8.629 24.586,3.106 0.091,-11.261C-24.405,-25.628 -8.376,-12.896 -8.376,-12.896L-14.515,-19.756L-22.159,-27.624L-35.738,-26.961L-40.073,-34.144L-43.219,-41.712" style="fill:rgb(166,89,45);fill-rule:nonzero;"/>
            </g>
        </g>
        <g transform="matrix(2.65902,0,0,2.65902,290.998,-355.902)">
            <g transform="matrix(1,0,0,1,255.979,477.928)">
                <path d="M0,27.955C-0.138,28.088 -0.294,28.209 -0.402,28.363C-0.432,28.406 -0.306,28.636 -0.274,28.631C-0.09,28.604 0.088,28.532 0.268,28.475C0.179,28.302 0.091,28.129 0,27.955M-68.167,76.542C-68.097,76.72 -68.069,76.996 -67.945,77.049C-67.804,77.111 -67.576,76.975 -67.386,76.925C-67.486,76.695 -67.586,76.464 -67.686,76.234C-67.846,76.336 -68.006,76.439 -68.167,76.542M-12.758,37.379C-13.014,37.498 -13.279,37.622 -13.544,37.746C-13.452,37.898 -13.336,38.188 -13.269,38.177C-12.979,38.131 -12.702,37.996 -12.42,37.894C-12.517,37.747 -12.614,37.599 -12.758,37.379M-15.98,63.367C-16.383,63.546 -16.797,63.606 -16.889,63.81C-16.972,63.997 -16.768,64.5 -16.579,64.572C-16.348,64.661 -15.885,64.53 -15.742,64.333C-15.633,64.183 -15.864,63.785 -15.98,63.367M52.873,-74.819C52.59,-74.884 52.308,-74.949 52.025,-75.014L51.855,-73.344C52.048,-73.31 52.241,-73.276 52.434,-73.242C52.58,-73.768 52.726,-74.294 52.873,-74.819M84.893,-55.477C84.709,-55.57 84.525,-55.664 84.342,-55.757C84.107,-55.292 83.862,-54.832 83.663,-54.352C83.649,-54.32 83.989,-54.142 84.164,-54.032C84.407,-54.514 84.65,-54.995 84.893,-55.477M40.664,-64.196C40.524,-64.537 40.381,-64.886 40.238,-65.235C40.059,-65.151 39.72,-65.054 39.726,-64.985C39.758,-64.607 39.874,-64.236 39.96,-63.863C40.134,-63.945 40.309,-64.027 40.664,-64.196M49.114,-48.141C49.007,-48.297 48.899,-48.454 48.792,-48.611C48.678,-48.455 48.544,-48.309 48.462,-48.138C48.438,-48.088 48.59,-47.886 48.611,-47.893C48.785,-47.957 48.948,-48.053 49.114,-48.141M180.26,21.234C179.685,21.457 179.191,21.52 179.15,21.692C179.064,22.047 179.221,22.459 179.277,22.848C179.583,22.775 180.068,22.788 180.154,22.61C180.311,22.286 180.231,21.846 180.26,21.234M45.637,61.895C45.55,61.604 45.498,61.428 45.446,61.252C45.251,61.313 44.997,61.32 44.879,61.451C44.772,61.571 44.812,61.823 44.787,62.018C45.064,61.977 45.341,61.938 45.637,61.895M13.726,23.084C13.508,22.608 13.411,22.21 13.164,21.956C13.079,21.869 12.402,22.109 12.381,22.255C12.331,22.602 12.464,23.008 12.636,23.33C12.673,23.399 13.189,23.211 13.726,23.084M97.858,82.65C97.39,83.178 97.041,83.394 97.015,83.644C96.977,84.009 97.125,84.422 97.302,84.759C97.341,84.833 98.061,84.702 98.072,84.612C98.121,84.249 98.016,83.867 97.858,82.65M-4.789,84.199C-4.473,83.888 -4.138,83.709 -4.113,83.495C-4.085,83.257 -4.341,82.988 -4.474,82.732C-4.698,82.892 -5.061,83.019 -5.109,83.221C-5.166,83.457 -4.947,83.759 -4.789,84.199M-8.912,77.272C-8.659,77.139 -8.405,77.007 -8.151,76.874C-8.239,76.715 -8.354,76.412 -8.41,76.422C-8.688,76.473 -8.95,76.609 -9.217,76.714C-9.131,76.872 -9.044,77.031 -8.912,77.272M-69.125,45.83C-68.718,45.477 -68.372,45.259 -68.168,44.947C-68.114,44.863 -68.536,44.276 -68.666,44.301C-69.018,44.369 -69.37,44.602 -69.628,44.862C-69.689,44.923 -69.382,45.35 -69.125,45.83M-49.039,53.559C-48.97,53.837 -48.902,54.115 -48.834,54.392C-48.194,54.162 -47.554,53.932 -46.913,53.702C-46.963,53.537 -47.014,53.371 -47.064,53.206L-49.039,53.559ZM50.288,11.364C49.88,10.777 49.695,10.238 49.423,10.19C49.104,10.135 48.526,10.426 48.404,10.713C48.303,10.952 48.617,11.566 48.901,11.709C49.155,11.837 49.619,11.551 50.288,11.364M-44.58,45.469C-44.594,45.639 -44.608,45.809 -44.622,45.979C-44.055,46.018 -43.488,46.058 -42.92,46.097C-42.909,45.945 -42.898,45.792 -42.887,45.641C-43.451,45.583 -44.015,45.526 -44.58,45.469M-35.018,45.002C-34.999,44.806 -34.98,44.609 -34.961,44.413C-35.408,44.365 -35.854,44.306 -36.302,44.298C-36.332,44.297 -36.369,44.686 -36.402,44.893C-35.941,44.93 -35.479,44.966 -35.018,45.002M7.251,82.486C7.009,82.63 6.754,82.783 6.499,82.935C6.663,83.122 6.877,83.492 6.98,83.462C7.245,83.388 7.461,83.137 7.696,82.957C7.565,82.818 7.434,82.679 7.251,82.486M39.872,-18.817C39.057,-17.758 38.67,-16.73 40.042,-15.15C39.965,-16.819 39.918,-17.818 39.872,-18.817M108.389,15.781C108.518,15.99 108.646,16.199 108.774,16.408C109.518,15.892 110.261,15.378 111.005,14.863C110.908,14.705 110.812,14.548 110.715,14.391C109.94,14.854 109.165,15.317 108.389,15.781M-7.88,47.947C-7.588,49.671 -6.873,50.411 -5.142,49.348C-5.78,48.873 -6.175,48.497 -6.641,48.258C-7.009,48.068 -7.464,48.045 -7.88,47.947M63.527,-69.17C63.704,-69.27 63.881,-69.37 64.058,-69.47C63.817,-69.996 63.576,-70.523 63.335,-71.049C63.062,-70.906 62.788,-70.763 62.515,-70.62C62.853,-70.136 63.189,-69.653 63.527,-69.17M-16.354,17.759C-16.35,17.497 -16.346,17.234 -16.343,16.972C-17.055,16.905 -17.769,16.799 -18.48,16.808C-18.611,16.809 -18.736,17.278 -19.011,17.824C-17.955,17.798 -17.154,17.779 -16.354,17.759M-7.278,21.346C-5.863,21.508 -5.102,21.594 -4.341,21.681C-4.959,20.2 -5.708,20 -7.278,21.346M76.838,-122.373C76.188,-121.815 75.689,-121.571 75.526,-121.185C75.409,-120.909 75.741,-120.442 75.873,-120.061C76.339,-120.236 76.994,-120.288 77.215,-120.625C77.393,-120.897 77.048,-121.511 76.838,-122.373M-8.636,90.466C-7.827,90.169 -7.018,89.872 -5.817,89.431C-7.732,88.077 -8.179,89.279 -8.636,90.466M-50.533,54.536C-50.773,54.234 -51.013,53.932 -51.253,53.629C-51.83,54.2 -53.384,53.722 -52.742,56.058C-51.867,55.455 -51.2,54.996 -50.533,54.536M-65.28,59.691C-65.153,60.088 -65.027,60.485 -64.901,60.881C-63.725,60.899 -62.479,61.085 -61.602,58.744C-63.203,59.157 -64.241,59.424 -65.28,59.691M48.503,-56.456C48.818,-55.372 49.031,-54.641 49.244,-53.909C49.688,-54.118 50.398,-54.224 50.528,-54.556C50.913,-55.542 50.508,-56.237 48.503,-56.456M-8.082,23.576C-8.007,23.246 -7.933,22.915 -7.858,22.585C-8.673,21.836 -9.514,21.603 -11.109,23.075C-9.696,23.309 -8.889,23.442 -8.082,23.576M-46.091,1.846C-44.741,1.544 -44.267,0.749 -44.887,-0.537C-45.017,-0.805 -45.589,-0.859 -45.957,-1.012C-46.17,-0.246 -46.406,0.516 -46.572,1.293C-46.598,1.416 -46.307,1.607 -46.091,1.846M152.129,111.924C151.842,111.304 151.575,110.575 151.502,110.594C150.837,110.767 150.207,111.07 149.565,111.334C149.748,111.704 149.932,112.384 150.113,112.384C150.714,112.381 151.313,112.133 152.129,111.924M47.893,-14.343C47.308,-12.422 48.7,-11.675 49.871,-10.613C50.216,-13.586 50.216,-13.586 47.893,-14.343M76.382,83.195C76.867,81.931 77.197,81.439 77.216,80.936C77.25,80.088 76.96,79.184 75.885,79.5C75.513,79.611 75.202,80.541 75.197,81.1C75.193,81.556 75.685,82.018 76.382,83.195M112.973,82.625C112.528,80.289 112.528,80.289 110.636,78.918C109.918,80.9 110.741,81.911 112.973,82.625M74.066,-57.501C74.786,-59.005 74.896,-60.502 73.98,-62.004C73.658,-60.505 72.497,-59.066 74.066,-57.501M132.237,26.119C133.481,26.747 134.475,27.248 135.594,27.812C134.792,25.45 134.792,25.45 132.237,26.119M92.476,-77.694C95.433,-78.215 95.762,-78.981 94.309,-81.41C92.636,-80.837 92.805,-79.371 92.476,-77.694M64.291,-8.934C66.095,-11.003 63.763,-11.604 62.998,-12.799C61.991,-10.315 61.991,-10.315 64.291,-8.934M39.188,-53.739C39.329,-54.885 39.23,-55.944 39.607,-56.792C40.555,-58.923 39.292,-59.232 37.719,-59.685C37.721,-57.673 37.723,-55.932 37.725,-54.004C38.147,-53.927 38.657,-53.835 39.188,-53.739M11.189,-29.283C12.754,-31.792 12.66,-32.269 10.254,-34.03C8.729,-31.821 8.857,-31.171 11.189,-29.283M49.49,-1.394C48.689,-3.263 48.213,-4.372 47.606,-5.789C46.333,-5.405 45.239,-5.075 43.332,-4.5C45.649,-3.331 47.183,-2.557 49.49,-1.394M131.817,-54.637C130.328,-53.371 131.131,-52.457 131.744,-51.517C132.542,-50.294 133.496,-49.499 135.256,-50.143C134.992,-52.315 133.677,-53.542 131.817,-54.637M168.903,2.552C168.788,0.923 168.259,0.288 167.115,0.418C165.654,0.585 164.698,1.917 164.371,4.388C165.956,3.746 167.39,3.164 168.903,2.552M69.69,-1.857C70.104,-4.741 68.465,-6.701 65.75,-6.879C65.899,-4.409 67.427,-3.106 69.69,-1.857M150.648,-42.526C151.383,-41.033 151.714,-39.945 152.388,-39.147C152.805,-38.654 153.868,-38.257 154.417,-38.45C154.987,-38.65 155.678,-39.664 155.607,-40.234C155.519,-40.947 154.838,-41.857 154.175,-42.158C153.339,-42.539 152.263,-42.392 150.648,-42.526M-33.152,-7.478C-33.316,-9.827 -34.245,-10.84 -35.978,-10.968C-37.416,-11.074 -38.955,-11.21 -39.802,-8.867C-37.529,-8.392 -35.485,-7.965 -33.152,-7.478M-4.579,88.763C-2.566,90.236 -1.203,90.05 0.657,88.183C1.465,87.372 2.024,86.497 1.167,85.495C0.3,84.48 -0.775,84.887 -1.575,85.603C-2.653,86.568 -3.582,87.699 -4.579,88.763M10.166,22.231C9.726,20.757 8.86,20.961 7.9,21.039C6.127,21.183 4.287,21.434 2.572,21.118C0.697,20.773 -0.64,21.306 -2.491,22.756C-0.111,23.036 1.839,22.945 3.547,23.543C6.073,24.427 8.049,23.725 10.166,22.231M25.053,-119.122C26.507,-116.854 26.507,-116.854 30.294,-118.407C30.897,-117.449 31.512,-116.474 32.302,-115.219C32.673,-117.142 32.956,-118.607 33.233,-120.046C27.611,-121.514 27.611,-121.514 25.053,-119.122M-22.972,81.129C-20.996,81.375 -19.05,82.33 -17.284,80.637C-16.867,80.238 -16.013,80.168 -15.358,80.163C-13.098,80.149 -12.309,78.747 -11.689,76.396C-12.75,76.546 -13.844,76.407 -14.064,76.782C-15.345,78.961 -17.674,78.71 -19.496,78.879C-21.221,79.039 -22.104,79.787 -22.972,81.129M-4.444,74.553C-1.149,74.761 1.14,73.92 3.181,72.316C4.045,71.636 4.821,70.683 3.981,69.714C3.538,69.203 2.25,68.957 1.566,69.205C-0.908,70.101 -2.904,71.678 -4.444,74.553M43.912,64.498C42.66,63.744 41.627,63.121 40.702,62.562C39.074,64.156 37.564,65.633 36.067,67.098C38.84,70.401 40.871,69.735 43.912,64.498M-38.75,85.156C-38.695,85.323 -38.64,85.49 -38.585,85.657C-35.556,85.097 -32.526,84.538 -29.351,83.952C-29.355,82.946 -29.359,82.091 -29.363,81.041C-31.256,80.894 -32.935,80.764 -34.271,80.66C-35.9,82.295 -37.326,83.726 -38.75,85.156M57.961,64.03C57.875,65.045 58.847,65.46 59.922,65.252C62.831,64.687 65.722,64 68.577,63.207C69.035,63.08 69.684,61.911 69.53,61.656C69.187,61.09 68.29,60.359 67.798,60.473C65.817,60.932 63.892,61.649 61.972,62.344C60.713,62.799 59.499,63.377 57.961,64.03M-29.967,87.951C-30.288,88.145 -30.632,88.258 -30.836,88.493C-32.758,90.707 -35.008,92.25 -38.011,92.72C-39.809,93.001 -41.544,93.703 -43.293,94.261C-45.835,95.074 -45.791,95.072 -44.552,97.448C-44.303,97.924 -44.245,98.747 -44.494,99.187C-45.026,100.127 -45.793,101.185 -44.672,101.863C-44.045,102.242 -42.8,101.744 -41.893,101.455C-41.392,101.295 -40.896,100.829 -40.598,100.371C-38.158,96.632 -34.469,94.694 -30.451,93.205C-30.129,93.086 -29.779,92.983 -29.513,92.78C-28.414,91.938 -27.66,91.046 -28.96,89.71C-29.399,89.26 -29.612,88.59 -29.967,87.951M123.234,42.034C121.966,39.846 123.787,37.071 121.371,35.383C121.821,33.956 122.252,32.585 122.726,31.083C119.927,30.031 118.33,28.241 117.946,25.696C116.124,24.883 114.865,25.874 113.532,26.476C109.384,28.352 108.036,27.449 108.274,22.994C108.309,22.356 108.094,21.705 107.982,20.981C105.424,20.457 102.861,21.903 100.516,20.418C100.284,20.271 99.343,20.969 98.934,21.447C98.424,22.044 98.218,22.898 97.716,23.504C96.161,25.381 94.285,25.437 92.831,23.511C91.561,21.83 90.065,20.216 91.001,17.645C91.424,16.481 91.319,14.912 89.837,13.987C88.363,13.068 87.307,13.852 86.051,14.511C83.828,15.677 81.559,16.819 79.193,17.635C75.701,18.839 74.822,20.784 76.668,23.964C78.541,27.19 77.293,30.669 73.813,32.016C73.203,32.252 72.26,32.552 72.148,32.994C71.577,35.249 70.129,37.471 71.542,39.912C72.685,41.889 72.855,43.942 71.764,45.87C73.7,47.998 77.192,46.175 78.568,49.252C77.092,52.534 78.645,57.127 74.215,59.222C75.304,60.846 76.219,62.21 77.208,63.685C80.896,63.385 83.72,65.204 85,68.975C85.761,71.221 86.69,73.341 88.631,75.455C89.565,73.601 90.316,72.09 91.087,70.589C92.575,67.692 93.699,67.339 96.467,68.909C98.119,69.845 99.757,70.806 101.56,71.847C103.144,69.769 104.704,67.722 106.344,65.571C109.863,67.075 111.703,63.598 115.087,63.144C114.618,62.421 114.403,62.143 114.243,61.836C112.113,57.757 112.225,57.223 115.742,54.031C116.151,53.661 116.849,53.033 116.751,52.774C116.145,51.164 117.637,50.56 118.127,49.495C118.47,48.751 118.696,47.954 119.025,47.037C117.995,47.027 117.472,47.022 116.751,47.016C118.112,44.24 120.55,43.39 123.234,42.034M83.729,-68.257C83.488,-67.089 83.667,-66.204 85.22,-65.994C85.41,-67.445 84.595,-67.893 83.609,-68.214C84.682,-69.346 85.74,-70.484 85.359,-72.507C83.196,-71.525 83.536,-69.862 83.729,-68.257M-24.313,83.425C-24.451,83.034 -24.589,82.642 -24.727,82.249C-24.907,82.347 -25.087,82.445 -25.268,82.542C-24.907,82.821 -24.547,83.1 -24.187,83.379C-23.698,83.708 -23.21,84.038 -22.722,84.368C-22.622,84.089 -22.521,83.811 -22.419,83.534C-22.936,83.474 -23.451,83.41 -23.968,83.361C-24.075,83.351 -24.188,83.399 -24.313,83.425M-26.075,-13.826C-24.271,-15.345 -22.404,-16.543 -21.021,-18.156C-17.549,-22.207 -13.035,-22.321 -8.481,-20.373C-6.473,-19.514 -4.932,-19.31 -3.036,-20.529C-2.067,-21.152 -0.664,-21.163 0.56,-21.301C1.434,-21.4 2.335,-21.252 3.171,-21.216C3.303,-21.605 3.499,-21.887 3.426,-22.012C1.421,-25.454 1.382,-29.165 1.61,-33.007C1.707,-34.653 1.378,-36.587 0.547,-37.973C-1.562,-41.487 -4.065,-44.765 -6.415,-48.135C-6.545,-48.322 -6.691,-48.526 -6.879,-48.641C-10.889,-51.067 -12.239,-54.92 -12.934,-59.295C-13.434,-62.44 -13.554,-65.455 -12.337,-68.433C-10.2,-73.662 -11.356,-78.259 -14.969,-82.406C-16.093,-83.697 -17.088,-85.114 -18.304,-86.309C-20.471,-88.436 -20.924,-90.989 -19.81,-93.585C-18.157,-97.437 -16.86,-101.591 -13.145,-104.179C-12.866,-104.373 -12.561,-104.619 -12.425,-104.912C-10.405,-109.265 -6.229,-110.769 -2.273,-112.454C0.553,-113.658 3.511,-114.573 6.455,-115.469C11.36,-116.962 14.938,-120.399 18.737,-123.55C21.015,-125.439 23.095,-127.721 26.262,-128.143C27.383,-128.293 28.582,-128.506 29.654,-128.272C33.525,-127.421 37.443,-126.858 41.227,-125.462C43.345,-124.681 46.059,-124.666 48.278,-125.218C51.118,-125.924 53.926,-127.247 56.389,-128.855C59.418,-130.835 62.756,-131.917 66.08,-133.054C66.947,-133.35 68.588,-132.975 69.139,-132.305C70.934,-130.121 73.434,-129.379 75.828,-128.353C78.983,-127 82.317,-125.981 84.927,-123.594C86.183,-122.445 87.397,-121.252 88.959,-119.767C91.496,-120.984 94.31,-122.19 96.984,-123.651C101.129,-125.918 103.676,-125.444 106.25,-121.428C108.826,-117.408 110.082,-112.97 110.209,-108.165C110.315,-104.161 110.702,-100.164 110.921,-96.161C111.017,-94.41 111.979,-93.4 113.558,-92.971C116.311,-92.224 119.018,-91.054 121.963,-91.548C123.145,-91.746 123.849,-91.299 124.652,-90.508C126.601,-88.588 127.738,-86.318 128.247,-83.655C128.567,-81.98 128.967,-80.31 129.47,-78.68C130.517,-75.292 131.474,-71.858 132.81,-68.583C134.054,-65.535 135.651,-62.617 137.295,-59.758C137.744,-58.977 138.916,-58.605 139.77,-58.066C140.521,-57.593 141.406,-57.269 142.033,-56.67C144.135,-54.661 144.098,-54.632 146.968,-56.046C147.254,-56.187 147.611,-56.184 147.934,-56.248C148.835,-52.581 148.826,-52.556 152.53,-51.15C154.886,-50.255 157.252,-49.375 159.657,-48.625C161.901,-47.925 163.264,-46.695 164.124,-44.347C165.125,-41.613 166.725,-39.06 168.322,-36.595C169.838,-34.253 170.199,-31.66 170.327,-29.064C170.57,-24.151 170.615,-19.224 170.569,-14.304C170.534,-10.489 171.364,-7.184 173.992,-4.184C177.544,-0.127 180.136,4.574 182.188,9.608C183.481,12.779 185.339,15.72 186.943,18.765C188.931,22.54 189.637,26.47 188.822,30.733C188.441,32.725 188.44,34.841 188.597,36.875C189.018,42.345 189.59,47.804 190.159,53.261C190.332,54.927 189.964,56.36 189.205,57.865C187.967,60.317 188.256,61.951 190.618,63.103C194.134,64.818 195.188,67.997 196.511,71.055C196.345,71.385 196.293,71.701 196.133,71.772C193.055,73.147 191.513,75.409 190.954,78.837C190.426,82.074 188.992,85.157 188.052,88.334C187.65,89.694 186.637,89.959 185.5,90.294C183.975,90.745 182.411,91.191 181.016,91.927C179.363,92.799 178.23,94.11 177.875,96.17C177.397,98.951 176.952,99.124 173.965,99.317C170.807,99.519 168.659,101.613 166.921,103.808C164.369,107.033 162.295,110.635 160.021,114.079C159.959,114.171 159.97,114.324 159.896,114.396C155.193,119.005 151.587,125.205 144.029,125.726C142.635,125.822 141.012,125.467 139.805,124.778C137.83,123.649 135.891,123.485 134.406,124.989C131.792,127.636 128.403,127.513 125.215,128.205C124.335,128.395 123.441,128.523 122.568,128.741C118.486,129.76 114.417,130.837 110.322,131.804C109.464,132.007 108.517,131.812 107.612,131.843C106.37,131.885 105.095,131.807 103.895,132.063C100.471,132.793 100.195,133.27 100.415,136.689C100.493,137.913 100.41,139.149 100.402,140.228C99.993,140.417 99.852,140.536 99.791,140.503C96.396,138.697 94.586,140.392 92.453,143.052C90.5,145.488 87.705,147.451 84.921,148.955C82.749,150.13 80.24,151.027 77.568,151.002C74.827,150.977 72.083,151.158 69.341,151.242C66.444,151.33 64.668,153.498 62.518,154.953C61.768,155.46 61.148,156.179 60.525,156.853C56.404,161.305 47.019,160.304 43.11,155.812C38.367,150.362 32.611,145.526 24.938,144.196C24.373,144.098 23.813,143.84 23.254,143.85C16.887,143.965 12.575,140.271 8.623,135.954C5.69,132.749 3.013,129.267 -0.906,127.158C-1.754,126.703 -2.868,126.236 -3.732,126.41C-6.671,126.999 -9.452,126.444 -12.234,125.691C-14.559,125.061 -16.896,124.444 -19.157,123.625C-20.188,123.252 -21.186,122.539 -21.96,121.748C-23.889,119.782 -25.171,119.257 -27.275,120.573C-29.506,121.967 -31.756,122.757 -34.39,122.561C-35.169,122.502 -35.983,122.75 -36.765,122.93C-41.001,123.903 -42.251,123.257 -44.875,119.989C-47.816,116.326 -49.317,112.067 -50.801,107.749C-51.21,106.557 -51.521,105.27 -52.206,104.246C-53.947,101.634 -56.07,99.657 -59.649,100.793C-61.179,101.279 -62.241,100.715 -62.886,99.101C-63.232,98.236 -64.017,97.438 -64.795,96.876C-66.134,95.911 -66.686,94.74 -66.745,93.097C-66.917,88.274 -68.132,83.63 -69.517,79.041C-70.305,76.429 -71.708,73.96 -71.026,71.07C-70.953,70.76 -71.074,70.388 -71.161,70.06C-71.861,67.415 -72.635,64.788 -73.272,62.129C-74.528,56.892 -75.866,51.666 -76.871,46.378C-77.647,42.294 -76.691,38.279 -74.538,34.806C-73.459,33.066 -71.572,31.634 -69.746,30.603C-67.698,29.448 -65.841,28.263 -64.521,26.281C-63.954,25.431 -63.299,24.559 -62.488,23.964C-60.5,22.508 -59.801,20.496 -60.048,18.239C-60.421,14.847 -59.017,12.123 -56.999,9.729C-54.979,7.331 -54.228,4.956 -55.08,1.822C-56.407,-3.061 -55.722,-7.912 -52.642,-11.916C-50.968,-14.093 -48.502,-16.251 -45.964,-17.042C-41.9,-18.309 -37.714,-19.685 -33.156,-18.868C-30.406,-18.375 -28.39,-17.486 -27.176,-14.964C-27.037,-14.675 -26.714,-14.475 -26.075,-13.826" style="fill:rgb(166,89,45);fill-rule:nonzero;"/>
            </g>
        </g>
        <g transform="matrix(2.65902,0,0,2.65902,290.998,-355.902)">
            <g transform="matrix(1,0,0,1,309.893,569.832)">
                <path d="M0,-114.854C-0.276,-114.942 -0.546,-115.028 -0.817,-115.115C-0.873,-114.93 -1.023,-114.626 -0.967,-114.581C-0.758,-114.414 -0.48,-114.331 -0.229,-114.217C-0.164,-114.397 -0.099,-114.578 0,-114.854M113.749,-64.804C113.597,-64.93 113.447,-65.152 113.292,-65.156C113.128,-65.161 112.959,-64.957 112.792,-64.844C112.994,-64.662 113.197,-64.48 113.399,-64.298C113.516,-64.466 113.632,-64.634 113.749,-64.804M-12.447,-69.865C-12.613,-69.735 -12.779,-69.604 -12.945,-69.473C-12.614,-69.049 -12.283,-68.625 -11.952,-68.202C-11.785,-68.333 -11.618,-68.465 -11.451,-68.596C-11.783,-69.019 -12.115,-69.442 -12.447,-69.865M76.894,-118.077C77.041,-118.116 77.188,-118.156 77.334,-118.195C77.344,-118.399 77.443,-118.677 77.347,-118.792C77.121,-119.059 76.802,-119.248 76.521,-119.468L76.894,-118.077ZM2.601,-6.492C2.332,-5.804 2.129,-5.441 2.085,-5.06C2.075,-4.97 2.701,-4.643 2.86,-4.733C3.181,-4.914 3.5,-5.279 3.581,-5.624C3.619,-5.782 3.092,-6.073 2.601,-6.492M70.813,-3.784C70.697,-3.687 70.581,-3.59 70.464,-3.494C70.814,-3.046 71.165,-2.599 71.516,-2.153C71.659,-2.274 71.801,-2.396 71.944,-2.518L70.813,-3.784ZM89.051,-36.305C89.676,-35.279 90.302,-34.253 91.034,-33.052C91.985,-35.29 91.985,-35.29 89.051,-36.305M-27.975,-38.242C-30.092,-39.162 -32.131,-39.67 -34.34,-38.558C-36.056,-37.694 -37.778,-37.226 -39.81,-37.78C-41.022,-38.111 -42.446,-37.663 -44.008,-37.547C-40.407,-32.595 -31.168,-33.139 -27.975,-38.242M12.327,-67.434C13.001,-65.62 13.424,-64.388 13.915,-63.185C14.819,-60.967 14.383,-59.599 12.527,-58.354C11.752,-57.834 10.882,-57.143 10.558,-56.329C9.858,-54.574 8.489,-53.744 6.943,-53.036C5.926,-52.571 4.909,-52.053 3.835,-51.775C2.708,-51.482 1.424,-51.096 0.363,-51.363C-3.642,-52.37 -7.536,-53.849 -11.564,-54.726C-15.552,-55.594 -19.592,-57.026 -23.753,-55.576C-24.504,-55.314 -25.123,-54.674 -25.803,-54.208C-25.242,-53.581 -24.756,-52.855 -24.097,-52.358C-23.584,-51.971 -22.873,-51.781 -22.22,-51.657C-19.801,-51.195 -17.354,-50.875 -14.947,-50.359C-9.823,-49.262 -4.698,-48.156 0.385,-46.888C2.408,-46.384 3.979,-45.171 4.344,-42.821C4.477,-41.967 5.021,-41.17 5.414,-40.366C7.29,-36.524 10.29,-33.24 10.443,-28.547C10.499,-26.835 11.528,-24.412 12.868,-23.66C14.863,-22.541 16.067,-20.9 17.273,-19.293C18.868,-17.171 20.404,-16.527 22.993,-17.427C25.686,-18.365 28.76,-17.932 30.206,-15.466C31.331,-13.546 32.892,-13.047 34.47,-12.139C35.808,-11.369 37.046,-10.428 38.349,-9.594C39.061,-9.139 39.832,-8.359 40.544,-8.392C44.234,-8.567 47.759,-7.785 51.292,-6.741C52.049,-10.122 54.698,-11.957 56.536,-14.402C57.479,-13.993 58.268,-13.65 59.127,-13.277C62.867,-17.02 63.431,-21.618 63.433,-26.429C63.434,-27.745 63.452,-29.157 63.922,-30.343C64.331,-31.375 65.212,-32.502 66.775,-31.62C67.202,-31.379 67.759,-31.372 68.614,-31.175C68.193,-33.144 67.617,-34.739 67.574,-36.349C67.531,-37.961 67.308,-39.273 66.354,-40.688C64.862,-42.903 65.453,-44.836 67.32,-46.87C68.429,-48.078 69.846,-49.495 70.033,-50.958C70.439,-54.145 71.811,-57.147 71.48,-60.521C71.302,-62.348 71.402,-63.804 69.395,-64.498C67.936,-65.002 67.646,-66.183 68.03,-67.505C68.779,-70.082 69.623,-72.631 70.518,-75.478C69.918,-76.74 68.493,-77.257 66.868,-77.498C65.097,-77.76 63.619,-78.347 63.424,-80.502C63.282,-82.079 62.141,-82.511 60.763,-82.376C59.881,-82.289 58.995,-82.093 58.147,-81.828C54.234,-80.605 52.105,-81.425 50.254,-84.924C48.905,-87.475 46.025,-88.52 43.474,-87.383C39.921,-85.801 39.393,-85.917 36.925,-88.728C36.728,-88.952 36.378,-89.042 36.017,-89.24C35.778,-88.771 35.63,-88.338 35.368,-87.992C34.298,-86.58 33.472,-84.562 32.042,-83.932C29.16,-82.659 25.942,-82.146 22.647,-81.262C21.976,-79.376 21.215,-77.239 20.536,-75.33C19.73,-74.11 18.76,-73.134 18.382,-71.967C17.511,-69.275 16.227,-67.268 12.327,-67.434M72.616,-34.078C72.753,-34.647 73.195,-35.479 72.972,-35.74C72.138,-36.709 71.086,-37.491 69.912,-38.522C69.587,-37.69 69.363,-37.114 69.143,-36.55C70.424,-35.644 71.579,-34.829 72.737,-34.016C71.929,-34.03 71.121,-34.044 70.057,-34.063C70.433,-33.066 70.683,-32.406 70.996,-31.578C71.959,-32.186 72.702,-32.654 73.52,-33.17C73.071,-33.621 72.843,-33.85 72.616,-34.078M-19.499,-72.087C-21.103,-72.566 -22.767,-72.905 -24.291,-73.566C-25.599,-74.133 -26.862,-74.935 -27.937,-75.872C-29.302,-77.064 -30.771,-77.58 -32.544,-77.49C-36.678,-77.28 -37.938,-78.753 -37.166,-82.862C-37.085,-83.294 -36.883,-83.704 -36.672,-84.31C-35.947,-84.34 -35.212,-84.371 -34.441,-84.403C-33.157,-87.305 -32.877,-87.404 -30.181,-86.095C-29.615,-85.82 -28.938,-85.528 -28.349,-85.59C-25.639,-85.875 -23.356,-84.764 -20.996,-83.693C-18.861,-82.726 -16.622,-81.966 -14.378,-81.283C-13.75,-81.091 -12.678,-81.255 -12.287,-81.687C-11.882,-82.134 -11.747,-83.273 -12.04,-83.815C-12.828,-85.274 -13.709,-86.794 -14.917,-87.888C-16.722,-89.521 -18.794,-90.878 -20.841,-92.217C-21.831,-92.865 -22.995,-93.287 -24.128,-93.668C-26.998,-94.635 -27.534,-96.54 -25.706,-98.614C-26.127,-99.497 -26.871,-100.333 -26.761,-101.037C-26.66,-101.693 -25.738,-102.54 -25.025,-102.727C-22.625,-103.355 -20.267,-103.599 -17.925,-102.062C-13.85,-99.388 -9.566,-97.032 -5.476,-94.379C-3.653,-93.198 -2.089,-91.619 -0.079,-89.947C0.757,-92.195 0.643,-93.465 -0.66,-94.954C-2.248,-96.77 -3.394,-98.976 -4.707,-101.028C-5.852,-102.817 -6.938,-104.644 -8.097,-106.425C-9.74,-108.95 -11.459,-111.426 -13.079,-113.966C-14.035,-115.465 -14.449,-116.875 -12.888,-118.478C-11.625,-119.775 -11.487,-122.129 -9.272,-122.403C-7.207,-121.428 -5.207,-120.484 -3.055,-119.469C-2.465,-121.002 -2.183,-122.935 -0.476,-124.317C1.895,-126.238 4.651,-126.517 6.649,-124.332C8.978,-121.786 11.213,-119.149 13.396,-116.476C14.231,-115.452 14.721,-114.148 15.542,-113.11C15.959,-112.584 16.752,-112.116 17.396,-112.088C17.868,-112.067 18.56,-112.71 18.825,-113.226C19.372,-114.29 19.699,-115.467 20.177,-116.762C19.724,-116.816 19.125,-116.889 18,-117.026C17.324,-120.576 16.432,-124.263 15.97,-128.003C15.609,-130.927 18.854,-134.843 21.754,-134.848C23.24,-134.851 24.771,-133.652 26.196,-132.843C26.882,-132.454 27.368,-131.71 27.945,-131.127C28.175,-131.235 28.405,-131.342 28.635,-131.45C28.475,-132.365 28.315,-133.28 28.153,-134.195C27.692,-136.81 30.017,-141.038 32.553,-141.674C33.608,-141.939 35.177,-141.783 35.976,-141.146C38.976,-138.752 41.598,-135.919 42.546,-132.053C42.956,-130.381 44.272,-130.176 45.385,-129.507C46.897,-128.597 47.681,-129.437 48.807,-130.427C52.22,-133.427 56.175,-134.753 60.769,-133.466C61.25,-133.331 61.905,-133.812 62.764,-134.104C63.306,-132.34 65.012,-131.69 66.78,-131.906C68.455,-132.11 70.052,-132.956 71.775,-133.552C72.507,-133.033 73.449,-132.322 74.432,-131.674C76.028,-130.621 76.348,-129.488 75.502,-127.664C75.082,-126.757 74.444,-125.878 74.322,-124.933C74.248,-124.353 74.86,-123.552 75.382,-123.104C75.55,-122.959 76.577,-123.489 76.927,-123.933C78.978,-126.533 78.947,-126.549 81.757,-125.498C82.381,-125.264 83.018,-124.99 83.668,-124.919C84.305,-124.851 84.968,-125.018 85.961,-125.115C86.265,-123.608 86.544,-122.221 86.868,-120.617C87.43,-120.554 88.148,-120.473 89.044,-120.373C88.922,-116.694 86.877,-113.897 85.441,-110.396C85.837,-110.059 86.545,-109.458 87.464,-108.678C90.251,-112.466 93.081,-115.844 97.725,-117.153C98.693,-116.518 98.111,-114.418 100.029,-114.356C100.307,-114.347 100.771,-113.063 100.738,-112.39C100.702,-111.658 100.203,-110.942 99.875,-110.234C98.612,-107.508 97.377,-104.769 96.043,-102.079C95.658,-101.301 94.975,-100.67 94.415,-99.954C95.061,-98.731 95.812,-98.794 96.928,-99.249C100.333,-100.636 103.322,-102.686 106.304,-104.768C106.568,-104.952 106.888,-105.057 107.602,-105.401C107.104,-103.481 107.107,-101.936 108.141,-100.388C109.011,-99.086 108.021,-97.869 107.007,-96.865C105.751,-95.621 104.637,-94.221 103.298,-93.081C102.337,-92.263 101.108,-91.762 100.547,-91.437C98.094,-88.499 95.973,-85.955 93.847,-83.416C93.021,-82.43 91.444,-81.582 92.397,-80.064C93.376,-78.506 94.91,-79.063 96.314,-79.691C96.918,-79.96 97.59,-80.239 98.23,-80.239C105.287,-80.24 111.852,-82.286 118.295,-84.91C118.98,-85.189 119.799,-85.142 120.554,-85.246C122.523,-83.066 121.376,-80.375 122.31,-78.044C120.573,-76.946 118.958,-75.925 117.102,-74.75C120.043,-72.366 123.729,-73.574 126.441,-71.191C123.903,-69.38 123.992,-67.168 125.761,-64.471C122.816,-63.681 120.223,-62.984 117.268,-62.191C117.824,-61.791 117.904,-61.713 117.999,-61.668C121.716,-59.891 125.637,-58.757 129.65,-57.872C130.42,-57.702 131.086,-57.056 131.983,-56.521C131.097,-55.192 130.427,-54.189 129.607,-52.96C129.696,-52.766 129.862,-52.39 130.04,-52.019C130.977,-50.067 130.647,-48.922 128.578,-48.628C126.662,-48.355 124.653,-48.71 122.688,-48.835C121.852,-48.889 121.024,-49.06 120.02,-48.652C121.907,-47.637 123.822,-46.672 125.673,-45.595C128.236,-44.103 128.312,-43.769 127.119,-41.11C127.027,-40.908 126.774,-40.71 126.796,-40.536C127.157,-37.708 125.741,-36.292 123.19,-35.383C121.779,-34.881 121.57,-33.387 122.35,-31.973C122.609,-31.501 123.039,-31.107 123.444,-30.737C123.759,-30.45 124.158,-30.255 124.846,-29.805C124.047,-27.934 123.438,-26.019 122.449,-24.326C121.414,-22.554 119.221,-22.335 117.519,-23.542C117.244,-23.737 117.001,-23.974 116.732,-24.176C114.238,-26.041 114.237,-26.041 111.256,-25.357C110.805,-26.314 110.338,-27.306 109.859,-28.323C105.563,-29.705 101.284,-31.081 96.12,-32.741C96.762,-30.85 96.808,-29.387 97.551,-28.785C99.566,-27.151 100.606,-24.944 101.83,-22.816C102.447,-21.743 102.992,-20.621 104.469,-20.502C104.772,-20.478 105.134,-20.262 105.336,-20.023C107.597,-17.341 109.846,-14.649 112.069,-11.936C113.195,-10.561 113.069,-9.362 111.626,-8.185C110.432,-7.21 108.827,-6.268 110.207,-4.406C107.442,-2.89 107.298,-2.885 105.737,-4.699C103.982,-6.736 102.291,-8.828 100.53,-10.859C100.026,-11.441 99.4,-11.927 98.789,-12.404C98.349,-12.746 97.755,-12.916 97.375,-13.304C94.339,-16.408 91.249,-19.466 88.358,-22.702C86.492,-24.791 84.385,-26.236 81.616,-26.677C80.913,-29.173 80.315,-29.6 77.757,-29.269C78.553,-27.504 79.413,-26.103 81.676,-26.78C82.4,-21.708 85.88,-18.3 88.886,-14.548C91.329,-11.499 93.364,-8.126 95.661,-4.956C96.892,-3.256 98.266,-1.656 99.632,-0.058C100.283,0.703 101.15,1.285 101.773,2.065C103.4,4.101 103.147,4.813 100.94,6.463C100.262,6.97 99.826,8.041 99.642,8.928C98.975,12.149 98.211,12.625 95.074,11.472C94.548,11.279 94.04,11.034 93.51,10.853C92.072,10.363 91.082,10.815 90.685,12.313C90.401,13.383 90.189,14.472 89.93,15.623C87.886,16.085 85.888,16.773 84.645,14.458C83.209,15.375 81.96,16.024 80.907,16.907C80.309,17.408 79.811,18.247 79.658,19.012C79.407,20.262 78.967,20.888 77.604,21.224C75.795,21.67 74.132,22.676 72.356,23.301C69.766,24.213 69.278,23.946 67.639,21.65C65.555,18.731 63.402,15.859 61.25,12.99C60.671,12.218 60.191,11.189 58.484,11.631C58.892,12.893 59.146,14.193 59.719,15.333C60.53,16.944 60.411,18.06 58.685,18.899C57.175,19.634 55.947,20.667 55.008,22.159C54.53,22.918 53.438,23.522 52.52,23.722C50.852,24.085 49.459,24.627 48.144,25.839C46.79,27.085 44.149,26.14 42.499,24.394C41.14,22.957 39.633,21.651 38.118,20.374C37.765,20.077 37.114,20.131 36.424,19.988C36.319,20.898 36.238,21.604 36.125,22.586C35.086,22.35 34.24,21.987 33.409,22.02C32.658,22.05 31.924,22.513 30.915,22.883C30.043,21.487 29.061,19.914 28.312,18.713C26.664,18.826 25.278,19.212 24.056,18.918C22.881,18.635 21.875,17.648 20.466,16.764C18.823,16.832 16.588,16.59 15.54,19.098C13.022,18.253 12.685,16.2 12.211,14.27C12.026,13.514 12.243,12.543 11.839,11.991C11.407,11.399 10.489,11.084 9.721,10.853C9.425,10.764 8.977,11.28 8.57,11.452C5.351,12.808 3.897,11.825 3.945,8.364C3.993,4.917 4.018,1.469 4.051,-1.802C2.539,-2.568 1.791,-1.931 1.725,-0.969C1.517,2.103 -0.667,4.458 -1.052,7.522C-1.386,10.177 -6.005,12.936 -8.803,12.71C-9.809,12.629 -10.849,12.322 -11.812,12.482C-13.847,12.822 -14.941,12.041 -16.276,10.45C-17.999,8.397 -17.861,6.585 -16.842,4.601C-14.838,0.698 -14.731,-3.543 -14.396,-7.754C-14.371,-8.066 -14.516,-8.392 -14.642,-9C-18.058,-7.937 -20.431,-5.253 -23.47,-3.841C-26.463,-2.452 -29.677,-1.538 -33.261,-0.246C-33.188,-1.652 -33.146,-2.465 -33.097,-3.398C-33.106,-3.407 -33.249,-3.639 -33.418,-3.662C-36.17,-4.026 -36.944,-5.35 -35.54,-7.584C-35.029,-8.398 -34.116,-8.958 -33.393,-9.638C-32.288,-10.679 -30.789,-11.467 -30.903,-13.255C-32.943,-15.614 -35.478,-15.405 -38.053,-15.001C-39.878,-14.715 -41.512,-14.781 -41.856,-17.063C-42.786,-16.814 -43.662,-16.267 -44.307,-16.467C-45.879,-16.957 -47.611,-17.492 -48.797,-18.549C-51.417,-20.884 -51.439,-23.574 -49.302,-26.47C-47.417,-29.024 -47.52,-29.318 -50.313,-30.973C-52.979,-32.552 -53.884,-35.213 -54.046,-38.072C-54.081,-38.678 -52.88,-39.793 -52.127,-39.913C-50.527,-40.169 -48.848,-39.925 -47.107,-39.884C-46.914,-42.603 -43.65,-41.733 -42.333,-43.479C-42.645,-45.748 -44.696,-45.899 -46.25,-46.602C-46.46,-48.213 -46.662,-49.74 -46.86,-51.268C-47.027,-52.552 -46.343,-53.33 -45.364,-54.045C-43.022,-55.756 -40.994,-57.784 -38.984,-60.61C-40.435,-61.126 -41.518,-61.542 -42.621,-61.897C-44,-62.341 -44.81,-62.994 -44.051,-64.606C-43.781,-65.181 -43.862,-65.911 -43.688,-66.544C-43.17,-68.432 -41.727,-69.589 -39.714,-69.348C-36.282,-68.937 -32.875,-68.309 -29.461,-67.75C-25.61,-67.121 -21.772,-66.396 -17.903,-65.906C-17.373,-65.839 -16.17,-66.916 -16.201,-67.408C-16.272,-68.59 -16.706,-69.86 -17.355,-70.86C-17.772,-71.501 -18.833,-71.724 -19.605,-72.134L-19.499,-72.087Z" style="fill:rgb(216,176,73);fill-rule:nonzero;"/>
            </g>
        </g>
        <g transform="matrix(2.65902,0,0,2.65902,290.998,-355.902)">
            <g transform="matrix(1,0,0,1,327.83,495.335)">
                <path d="M0,-0.247C-0.963,-1.652 -1.484,-2.056 -1.803,-1.644C-1.978,-1.419 1.42,1.809 0,-0.247" style="fill:white;fill-rule:nonzero;"/>
            </g>
        </g>
        <g transform="matrix(2.65902,0,0,2.65902,290.998,-355.902)">
            <g transform="matrix(1,0,0,1,326.892,520.449)">
                <path d="M0,-0.599C-0.049,0.059 0.707,0.933 0.678,-0.352C0.649,-1.348 0.097,-1.532 0,-0.599" style="fill:white;fill-rule:nonzero;"/>
            </g>
        </g>
        <g transform="matrix(2.65902,0,0,2.65902,290.998,-355.902)">
            <g transform="matrix(1,0,0,1,353.79,491.623)">
                <path d="M0,-2.213C-0.193,-2.189 -0.32,-1.8 -0.245,-1.359C-0.068,0.038 0.308,-2.251 0,-2.213" style="fill:white;fill-rule:nonzero;"/>
            </g>
        </g>
        <g transform="matrix(2.65902,0,0,2.65902,290.998,-355.902)">
            <g transform="matrix(1,0,0,1,315.174,544.485)">
                <path d="M0,-2.386C-0.195,-2.537 -0.684,-2.221 -1.105,-1.678C-2.453,0.151 0.649,-1.883 0,-2.386" style="fill:white;fill-rule:nonzero;"/>
            </g>
        </g>
        <g transform="matrix(2.65902,0,0,2.65902,290.998,-355.902)">
            <g transform="matrix(1,0,0,1,368.278,552.913)">
                <path d="M0,-1.088C0.311,0.139 -0.654,2.054 0.407,1.662C2.8,0.733 -0.776,-3.142 0,-1.088" style="fill:white;fill-rule:nonzero;"/>
            </g>
        </g>
        <g transform="matrix(2.65902,0,0,2.65902,290.998,-355.902)">
            <g transform="matrix(1,0,0,1,363.304,554.109)">
                <path d="M0,-1.967C-2.227,-2.628 1.284,0.661 1.456,-0.838C1.514,-1.452 1.318,-1.604 0,-1.967" style="fill:white;fill-rule:nonzero;"/>
            </g>
        </g>
        <g transform="matrix(2.65902,0,0,2.65902,290.998,-355.902)">
            <g transform="matrix(1,0,0,1,331.282,544.626)">
                <path d="M0,-0.474C-2.328,1.655 1.426,-0.52 1.846,-1.06C2.709,-2.129 1.389,-1.727 0,-0.474" style="fill:white;fill-rule:nonzero;"/>
            </g>
        </g>
        <g transform="matrix(2.65902,0,0,2.65902,290.998,-355.902)">
            <g transform="matrix(1,0,0,1,375.203,546.392)">
                <path d="M0,-0.987C-0.249,-0.667 0.187,0.252 0.548,-0.214C0.899,-0.668 0.195,-1.239 0,-0.987" style="fill:white;fill-rule:nonzero;"/>
            </g>
        </g>
        <g transform="matrix(2.65902,0,0,2.65902,290.998,-355.902)">
            <g transform="matrix(1,0,0,1,373.609,484.524)">
                <path d="M0,15.833C3.44,17.952 11.147,10.869 8.647,4.767C5.896,-2.119 -4.91,12.725 0,15.833" style="fill:white;fill-rule:nonzero;"/>
            </g>
        </g>
        <g transform="matrix(2.65902,0,0,2.65902,290.998,-355.902)">
            <g transform="matrix(1,0,0,1,402.192,510.897)">
                <path d="M0,4.175C0.929,6.251 6.241,8.594 9.09,8.194C14.148,7.456 17.814,2.994 15.524,0.386C11.375,-4.419 -1.554,0.613 0,4.175" style="fill:white;fill-rule:nonzero;"/>
            </g>
        </g>
        <g transform="matrix(2.65902,0,0,2.65902,290.998,-355.902)">
            <g transform="matrix(1,0,0,1,393.385,500.071)">
                <path d="M0,5.009C0.339,10.881 14.304,8.478 14.003,1.119C13.746,-5.872 -0.26,-0.295 0,5.009" style="fill:white;fill-rule:nonzero;"/>
            </g>
        </g>
        <g transform="matrix(2.65902,0,0,2.65902,290.998,-355.902)">
            <g transform="matrix(1,0,0,1,386.483,522.877)">
                <path d="M0,0.707C0.391,4.001 13.261,6.066 15.757,-0.78C17.467,-5.359 -0.876,-5.064 0,0.707" style="fill:white;fill-rule:nonzero;"/>
            </g>
        </g>
        <g transform="matrix(2.65902,0,0,2.65902,290.998,-355.902)">
            <g transform="matrix(1,0,0,1,356.498,496.866)">
                <path d="M0,9.282C0.597,15.855 12.893,8.792 12.09,1.58C11.178,-6.573 -0.53,3.592 0,9.282" style="fill:white;fill-rule:nonzero;"/>
            </g>
        </g>
        <g transform="matrix(2.65902,0,0,2.65902,290.998,-355.902)">
            <g transform="matrix(1,0,0,1,384.714,486.214)">
                <path d="M0,18.613C4.915,18.895 8.846,13.692 8.964,10.817C9.397,-0.282 -11.38,17.859 0,18.613" style="fill:white;fill-rule:nonzero;"/>
            </g>
        </g>
        <g transform="matrix(2.65902,0,0,2.65902,290.998,-355.902)">
            <g transform="matrix(1,0,0,1,387.303,519.91)">
                <path d="M0,-9.495C-8.483,-8.134 -8.586,-2.994 -9.001,-2.458C-11.41,0.65 5.644,0.115 5.568,-6.988C5.546,-9.472 4.051,-10.145 0,-9.495" style="fill:white;fill-rule:nonzero;"/>
            </g>
        </g>
        <g transform="matrix(2.65902,0,0,2.65902,290.998,-355.902)">
            <g transform="matrix(1,0,0,1,368.521,468.413)">
                <path d="M0,22.852C2.399,22.941 6.649,18.426 5.967,12.283C4.395,-0.089 -9.61,22.433 0,22.852" style="fill:white;fill-rule:nonzero;"/>
            </g>
        </g>
        <g transform="matrix(2.65902,0,0,2.65902,290.998,-355.902)">
            <g transform="matrix(1,0,0,1,340.632,548.21)">
                <path d="M0,21.967C2.91,22.214 5.699,15.859 5.327,11.596C4.346,-0.247 -6.652,21.37 0,21.967" style="fill:white;fill-rule:nonzero;"/>
            </g>
        </g>
        <g transform="matrix(2.65902,0,0,2.65902,290.998,-355.902)">
            <g transform="matrix(1,0,0,1,397.333,487.954)">
                <path d="M0,-9.545C-0.934,-14.875 -5.401,-11.998 -8.435,-8.085C-18.833,5.33 2.299,2.525 0,-9.545" style="fill:white;fill-rule:nonzero;"/>
            </g>
        </g>
        <g transform="matrix(2.65902,0,0,2.65902,290.998,-355.902)">
            <g transform="matrix(1,0,0,1,321.628,488.039)">
                <path d="M0,-8.502C-1.853,-11.989 -8.496,-14.947 -11.005,-13.415C-20.66,-7.4 8.027,6.445 0,-8.502" style="fill:white;fill-rule:nonzero;"/>
            </g>
        </g>
        <g transform="matrix(2.65902,0,0,2.65902,290.998,-355.902)">
            <g transform="matrix(1,0,0,1,336.481,485.225)">
                <path d="M0,-8.746C-2.201,-13.131 -8.282,-11.656 -7.322,-4.997C-6.683,-0.621 -2.215,4.385 0.22,2.275C2.494,0.289 1.355,-6.038 0,-8.746" style="fill:white;fill-rule:nonzero;"/>
            </g>
        </g>
        <g transform="matrix(2.65902,0,0,2.65902,290.998,-355.902)">
            <g transform="matrix(1,0,0,1,345.967,467.976)">
                <path d="M0,19.682C2.292,20.241 4.359,12.868 1.73,7.671C-2.387,-0.559 -6.941,18.018 0,19.682" style="fill:white;fill-rule:nonzero;"/>
            </g>
        </g>
        <g transform="matrix(2.65902,0,0,2.65902,290.998,-355.902)">
            <g transform="matrix(1,0,0,1,362.865,473.466)">
                <path d="M0,-8.908C-3.673,-15.668 -11.57,-1.132 -5.065,3.683C-1.094,6.76 2.53,-4.363 0,-8.908" style="fill:white;fill-rule:nonzero;"/>
            </g>
        </g>
        <g transform="matrix(2.65902,0,0,2.65902,290.998,-355.902)">
            <g transform="matrix(1,0,0,1,353.545,482.272)">
                <path d="M0,7.991C-0.076,7.55 0.052,7.162 0.245,7.137C0.553,7.1 0.176,9.388 0,7.991M5.544,-0.194C-1.543,-9.053 -5.808,17.044 2.753,12.873C7.993,10.354 6.787,1.343 5.544,-0.194" style="fill:white;fill-rule:nonzero;"/>
            </g>
        </g>
        <g transform="matrix(2.65902,0,0,2.65902,290.998,-355.902)">
            <g transform="matrix(-0.839883,0.542768,0.542768,0.839883,349.984,520.002)">
                <path d="M2.44,-14.217C4.995,-14.776 6.271,-5.88 4.414,-0.59C3.731,1.355 2.426,2.497 2.44,1.134C2.465,-0.768 -0.767,-4.902 -0.322,-10.002C-0.121,-12.232 0.957,-13.893 2.44,-14.217" style="fill:white;fill-rule:nonzero;"/>
            </g>
        </g>
        <g transform="matrix(2.65902,0,0,2.65902,290.998,-355.902)">
            <g transform="matrix(1,0,0,1,349.483,492.118)">
                <path d="M0,22.676C0.855,23.339 7.567,15.075 5.338,8.836C1.754,-0.663 -6.101,17.947 0,22.676" style="fill:white;fill-rule:nonzero;"/>
            </g>
        </g>
        <g transform="matrix(2.65902,0,0,2.65902,290.998,-355.902)">
            <g transform="matrix(1,0,0,1,368.685,551.677)">
                <path d="M0,2.898C-1.062,3.29 -0.096,1.375 -0.407,0.148C-1.184,-1.906 2.393,1.969 0,2.898M-5.381,0.464C-4.063,0.828 -3.868,0.979 -3.926,1.593C-4.097,3.092 -7.608,-0.197 -5.381,0.464M0.686,-3.593C-1.192,-6.509 -3.946,-8.61 -5.572,-8.306C-11.997,-7.193 -6.567,11.508 1.235,5.073C4.234,2.636 2.654,-0.453 0.686,-3.593" style="fill:white;fill-rule:nonzero;"/>
            </g>
        </g>
        <g transform="matrix(2.65902,0,0,2.65902,290.998,-355.902)">
            <g transform="matrix(1,0,0,1,375.203,550.817)">
                <path d="M0,-5.412C0.195,-5.664 0.899,-5.093 0.548,-4.639C0.187,-4.173 -0.249,-5.092 0,-5.412M9.676,-1.702C8.886,-3.149 -0.28,-9.627 -1.125,-9.344C-1.932,-9.065 -3.357,-6.555 -3.315,-5.442C-3.01,2.978 12.777,4.215 9.676,-1.702" style="fill:white;fill-rule:nonzero;"/>
            </g>
        </g>
        <g transform="matrix(2.65902,0,0,2.65902,290.998,-355.902)">
            <g transform="matrix(1,0,0,1,383.307,560.754)">
                <path d="M0,-3.329C-7.373,-14.785 -15.075,-0.722 -5.834,6.441C0.636,11.456 3.634,2.432 0,-3.329" style="fill:white;fill-rule:nonzero;"/>
            </g>
        </g>
        <g transform="matrix(2.65902,0,0,2.65902,290.998,-355.902)">
            <g transform="matrix(1,0,0,1,358.278,566.916)">
                <path d="M0,-13.001C0.252,-14.063 -3.565,-16.029 -6.326,-10.671C-8.134,-7.315 -7.094,3.028 -2.141,1.336C6.175,-1.59 -0.313,-11.99 0,-13.001" style="fill:white;fill-rule:nonzero;"/>
            </g>
        </g>
        <g transform="matrix(2.65902,0,0,2.65902,290.998,-355.902)">
            <g transform="matrix(1,0,0,1,406.795,559.95)">
                <path d="M0,-4.835C-1.756,-7.86 -9.54,-12.408 -12.459,-8.858C-17.784,-2.439 6.664,7.573 0,-4.835" style="fill:white;fill-rule:nonzero;"/>
            </g>
        </g>
        <g transform="matrix(2.65902,0,0,2.65902,290.998,-355.902)">
            <g transform="matrix(1,0,0,1,368.932,563.36)">
                <path d="M0,16.512C0.579,16.299 3.557,11.231 0.286,4.703C-4.609,-4.8 -12.79,21.312 0,16.512" style="fill:white;fill-rule:nonzero;"/>
            </g>
        </g>
        <g transform="matrix(2.65902,0,0,2.65902,290.998,-355.902)">
            <g transform="matrix(1,0,0,1,365.04,528.918)">
                <path d="M0,-8.22C-4.28,-7.678 -4.862,-7.33 -5.716,-4.793C-7.124,-0.623 10.023,0.737 9.087,-5.453C8.635,-8.099 5.822,-8.957 0,-8.22" style="fill:white;fill-rule:nonzero;"/>
            </g>
        </g>
        <g transform="matrix(2.65902,0,0,2.65902,290.998,-355.902)">
            <g transform="matrix(1,0,0,1,347.685,541.56)">
                <path d="M0,12.384C3.33,14.965 9.861,7.907 6.412,0.837C4.82,-2.448 4.333,-2.581 2.594,-0.069C-0.724,4.66 -1.999,10.835 0,12.384" style="fill:white;fill-rule:nonzero;"/>
            </g>
        </g>
        <g transform="matrix(2.65902,0,0,2.65902,290.998,-355.902)">
            <g transform="matrix(1,0,0,1,312.288,510.173)">
                <path d="M0,8.06C4.248,9.124 10.775,7.897 10.319,3.539C10.135,1.624 8.473,0.718 4.204,0.259C-8.059,-1.064 -5.204,6.771 0,8.06" style="fill:white;fill-rule:nonzero;"/>
            </g>
        </g>
        <g transform="matrix(2.65902,0,0,2.65902,290.998,-355.902)">
            <g transform="matrix(-0.0436723,-0.999046,-0.999046,0.0436723,336.75,495.881)">
                <path d="M1.936,-7.83C5.465,-6.263 5.183,-5.251 5.254,-2.681L1.936,-1.922C-5.278,-0.211 -11.049,-3.986 -9.834,-6.5C-9.033,-8.195 -1.708,-9.409 1.936,-7.83" style="fill:white;fill-rule:nonzero;"/>
            </g>
        </g>
        <g transform="matrix(2.65902,0,0,2.65902,290.998,-355.902)">
            <g transform="matrix(1,0,0,1,350.082,511.46)">
                <path d="M0,8.528C0.318,13.125 12.167,8.363 11.686,2.737C10.956,-4.597 -0.303,4.331 0,8.528" style="fill:white;fill-rule:nonzero;"/>
            </g>
        </g>
        <g transform="matrix(2.65902,0,0,2.65902,290.998,-355.902)">
            <g transform="matrix(1,0,0,1,345.534,524.588)">
                <path d="M0,20.109C2.274,19.153 5.307,10.992 5.055,7.128C4.403,-3.907 -9.208,24.016 0,20.109" style="fill:white;fill-rule:nonzero;"/>
            </g>
        </g>
        <g transform="matrix(2.65902,0,0,2.65902,290.998,-355.902)">
            <g transform="matrix(1,0,0,1,367.476,499.821)">
                <path d="M0,17.062C2.845,18.312 12.306,11.74 12.285,7.494C12.209,-1.25 -8.056,13.58 0,17.062" style="fill:white;fill-rule:nonzero;"/>
            </g>
        </g>
        <g transform="matrix(2.65902,0,0,2.65902,290.998,-355.902)">
            <g transform="matrix(1,0,0,1,352.74,541.221)">
                <path d="M0,-10.62C-0.456,-6.629 -0.088,-7.958 2.384,-3.244C7.171,5.902 13.405,-1.447 5.745,-11.662C2.222,-16.522 0.585,-15.772 0,-10.62" style="fill:white;fill-rule:nonzero;"/>
            </g>
        </g>
        <g transform="matrix(2.65902,0,0,2.65902,290.998,-355.902)">
            <g transform="matrix(1,0,0,1,295.286,523.459)">
                <path d="M0,4.372C2.648,8.068 12.923,7.386 13.783,-0.175C14.03,-2.558 13.386,-3.162 10.519,-3.367C5.79,-3.696 -4.945,-2.444 0,4.372" style="fill:white;fill-rule:nonzero;"/>
            </g>
        </g>
        <g transform="matrix(2.65902,0,0,2.65902,290.998,-355.902)">
            <g transform="matrix(1,0,0,1,342.683,560.663)">
                <path d="M0,-12.019C-2.059,-18.763 -8.703,-6.309 -8.941,-4.207C-10.149,6.744 2.175,-5.265 0,-12.019" style="fill:white;fill-rule:nonzero;"/>
            </g>
        </g>
        <g transform="matrix(2.65902,0,0,2.65902,290.998,-355.902)">
            <g transform="matrix(1,0,0,1,310.208,507.147)">
                <path d="M0,-16.78C-9.672,-11.637 20.77,1.335 11.468,-11.298C8.606,-15.187 2.495,-18.115 0,-16.78" style="fill:white;fill-rule:nonzero;"/>
            </g>
        </g>
        <g transform="matrix(2.65902,0,0,2.65902,290.998,-355.902)">
            <g transform="matrix(1,0,0,1,296.316,503.721)">
                <path d="M0,-1.937C1.861,5.36 17.979,5.371 16.241,-2.703C15.488,-6.426 7.2,-7.308 3.345,-6.926C-0.659,-6.516 -1.036,-5.939 0,-1.937" style="fill:white;fill-rule:nonzero;"/>
            </g>
        </g>
        <g transform="matrix(2.65902,0,0,2.65902,290.998,-355.902)">
            <g transform="matrix(1,0,0,1,326.026,500.037)">
                <path d="M0,-6.347C0.319,-6.759 0.84,-6.355 1.803,-4.95C3.223,-2.894 -0.174,-6.122 0,-6.347M6.196,-8.463C3.998,-12.671 -0.457,-14.281 -2.43,-11.601C-8.209,-3.583 14.969,7.934 6.196,-8.463" style="fill:white;fill-rule:nonzero;"/>
            </g>
        </g>
        <g transform="matrix(2.65902,0,0,2.65902,290.998,-355.902)">
            <g transform="matrix(1,0,0,1,330.254,557.635)">
                <path d="M0,-5.518C-1.43,-11.346 -17.4,-1.132 -11.174,3.694C-8.421,5.828 1.406,0.189 0,-5.518" style="fill:white;fill-rule:nonzero;"/>
            </g>
        </g>
        <g transform="matrix(2.65902,0,0,2.65902,290.998,-355.902)">
            <g transform="matrix(1,0,0,1,381.878,549.118)">
                <path d="M0,-10.082C-1.218,-2.99 19.3,3.074 14.405,-6.461C11.754,-11.49 0.496,-13.156 0,-10.082" style="fill:white;fill-rule:nonzero;"/>
            </g>
        </g>
        <g transform="matrix(2.65902,0,0,2.65902,290.998,-355.902)">
            <g transform="matrix(1,0,0,1,412.309,537.071)">
                <path d="M0,-4.77C-1.609,-8.676 -10.375,-8.562 -15.658,-6.058C-15.941,3.906 3.22,3.145 0,-4.77" style="fill:white;fill-rule:nonzero;"/>
            </g>
        </g>
        <g transform="matrix(2.65902,0,0,2.65902,290.998,-355.902)">
            <g transform="matrix(1,0,0,1,366.036,539.792)">
                <path d="M0,-10.464C-2.398,-11.205 -0.914,-8.25 -2.219,-9.261C-3.415,-10.189 -4.209,-7.266 -0.794,-3.742C1.813,-1.094 8.354,0.741 9.928,-0.752C10.749,-1.542 10.329,-4.543 9.275,-5.742C7.617,-7.567 7.143,-8.044 0,-10.464" style="fill:white;fill-rule:nonzero;"/>
            </g>
        </g>
        <g transform="matrix(2.65902,0,0,2.65902,290.998,-355.902)">
            <g transform="matrix(1,0,0,1,392.818,533.376)">
                <path d="M0,-2.622C-1.332,-7.087 -16.152,-7.344 -15.615,-3.112C-14.732,3.907 2.31,4.722 0,-2.622" style="fill:white;fill-rule:nonzero;"/>
            </g>
        </g>
        <g transform="matrix(2.65902,0,0,2.65902,290.998,-355.902)">
            <g transform="matrix(1,0,0,1,326.892,521.308)">
                <path d="M0,-1.458C0.097,-2.391 0.649,-2.207 0.678,-1.211C0.707,0.074 -0.049,-0.8 0,-1.458M-0.832,-4.467C-7.085,3.601 14.244,5.828 13.742,-1.376C13.453,-4.711 1.353,-7.286 -0.832,-4.467" style="fill:white;fill-rule:nonzero;"/>
            </g>
        </g>
        <g transform="matrix(2.65902,0,0,2.65902,290.998,-355.902)">
            <g transform="matrix(1,0,0,1,334.142,512.551)">
                <path d="M0,-6.137C-2.402,-10.417 -13.648,-12.127 -13.185,-5.995C-12.663,1.018 6.873,5.99 0,-6.137" style="fill:white;fill-rule:nonzero;"/>
            </g>
        </g>
        <g transform="matrix(2.65902,0,0,2.65902,290.998,-355.902)">
            <g transform="matrix(1,0,0,1,345.647,538.749)">
                <path d="M0,-12.186C-0.744,-13.874 -1.185,-14.112 -2.592,-13.463C-6.293,-11.824 -10.077,-12.892 -13.227,-9.433C-23.55,1.926 2.716,-5.76 0,-12.186" style="fill:white;fill-rule:nonzero;"/>
            </g>
        </g>
        <g transform="matrix(2.65902,0,0,2.65902,290.998,-355.902)">
            <g transform="matrix(1,0,0,1,331.282,540.391)">
                <path d="M0,3.761C1.389,2.508 2.709,2.106 1.846,3.175C1.426,3.715 -2.328,5.89 0,3.761M0.875,-2.168C-9.618,2.879 -4.801,9.012 0.406,8.352C4.443,7.84 8.619,0.575 8.42,-1.987C8.106,-5.251 1.333,-2.403 0.875,-2.168" style="fill:white;fill-rule:nonzero;"/>
            </g>
        </g>
        <g transform="matrix(2.65902,0,0,2.65902,290.998,-355.902)">
            <g transform="matrix(1,0,0,1,314.069,540.092)">
                <path d="M0,2.715C0.421,2.172 0.91,1.856 1.105,2.007C1.754,2.51 -1.348,4.544 0,2.715M10.237,-1.52C10.192,-3.885 9.02,-4.481 5.564,-3.925C-10.934,-1.303 -4.217,7.196 -0.511,7.187C1.74,7.152 10.223,2.5 10.237,-1.52" style="fill:white;fill-rule:nonzero;"/>
            </g>
        </g>
        <g transform="matrix(2.65902,0,0,2.65902,290.998,-355.902)">
            <g transform="matrix(1,0,0,1,327.25,533.782)">
                <path d="M0,-6.768C-0.806,-9.083 -19.465,-7.567 -14.29,-1.746C-10.627,2.315 1.601,-2.168 0,-6.768" style="fill:white;fill-rule:nonzero;"/>
            </g>
        </g>
    </g>
</svg>
