<?xml version="1.0" encoding="UTF-8" standalone="no"?>
<!DOCTYPE svg PUBLIC "-//W3C//DTD SVG 1.1//EN" "http://www.w3.org/Graphics/SVG/1.1/DTD/svg11.dtd">
<svg width="100%" height="100%" viewBox="0 0 899 903" version="1.1" xmlns="http://www.w3.org/2000/svg" xmlns:xlink="http://www.w3.org/1999/xlink" xml:space="preserve" xmlns:serif="http://www.serif.com/" style="fill-rule:evenodd;clip-rule:evenodd;stroke-linejoin:round;stroke-miterlimit:2;">
    <g transform="matrix(1,0,0,1,13.0944,-84.4836)">
        <g transform="matrix(2.65902,0,0,2.65902,290.998,-355.902)">
            <g transform="matrix(1,0,0,1,-41.1919,238.404)">
                <path d="M0,194.102L-0.195,194.014L-0.065,194.304L0,194.102ZM194.394,1.618C196.393,-2.515 197.493,-6.585 193.368,-10.697C192.74,-6.254 195.534,-2.455 194.394,1.618M97.836,134.02C94.842,134.302 93.362,135.76 92.319,137.767C91.325,139.682 90.458,141.667 89.399,143.544C87.583,146.763 85.662,149.857 83.023,152.572C78.939,156.774 75.23,161.341 71.396,165.783C71,166.242 70.259,166.777 70.937,167.605C73.116,166.319 75.261,165.123 77.325,163.8C78.222,163.225 79.083,162.491 79.732,161.652C81.812,158.965 83.936,156.293 85.768,153.438C89.761,147.217 93.584,140.887 97.836,134.02M3.552,200.545C3.986,201.64 4.203,202.209 4.437,202.772C6.332,207.334 8.284,211.873 10.11,216.463C11.603,220.215 12.66,224.128 12.605,228.178C12.569,230.894 13.746,232.93 15.321,234.853C15.719,235.339 16.561,235.461 17.335,235.812C18.521,234.263 19.536,232.911 20.579,231.582C21.427,230.501 21.62,229.277 21.035,228.099C19.391,224.794 18.442,221.186 16.22,218.12C12.87,213.498 9.778,208.688 6.55,203.977C5.798,202.879 5.133,201.677 3.552,200.545M96.907,129.547C97.538,129.596 97.911,129.744 98.074,129.619C102.359,126.325 106.841,123.243 110.833,119.621C115.291,115.577 119.46,111.181 123.468,106.682C129.433,99.985 135.282,93.174 140.923,86.204C145.4,80.672 149.727,75.033 154.696,69.914C157.927,66.586 161.127,63.208 164.095,59.648C169.74,52.876 175.152,45.91 180.765,39.11C187.765,30.627 192.042,20.795 195.455,10.423C195.163,10.444 194.927,10.403 194.889,10.472C193.621,12.759 192.138,14.962 191.163,17.371C187.909,25.413 182.417,31.909 176.952,38.429C171.291,45.183 165.187,51.551 159.798,58.554C156.322,63.071 152.636,67.451 148.55,71.483C140.734,79.195 133.073,87.074 126.058,95.524C121.691,100.784 116.988,105.64 111.842,110.133C109.417,112.25 107.32,114.794 105.324,117.339C102.845,120.499 100.612,123.852 98.302,127.142C97.8,127.856 97.42,128.654 96.907,129.547M-56.905,160.287C-55.839,161.267 -55.533,161.622 -55.16,161.881C-49.839,165.583 -44.506,169.27 -39.182,172.969C-38.166,173.674 -37.05,174.288 -36.189,175.152C-31.931,179.425 -27.735,183.761 -23.532,188.089C-20.516,191.195 -17.672,194.486 -14.488,197.407C-7.069,204.212 0.021,211.32 6.491,219.038C6.82,219.431 7.215,219.769 8.144,220.698C7.954,219.288 7.973,218.678 7.784,218.14C5.631,211.999 3.206,205.975 -0.009,200.297C-0.771,198.951 -1.794,197.702 -2.298,196.269C-4.226,190.779 -7.998,186.789 -12.405,183.25C-15.06,181.119 -17.785,179.057 -20.277,176.746C-27.07,170.45 -34.856,165.795 -43.478,162.551C-47.515,161.031 -51.736,160.161 -56.905,160.287M7.49,227.281C7.085,224.544 6.017,222.851 4.783,221.258C3.93,220.158 2.979,219.134 2.057,218.088C-2.135,213.332 -6.047,208.33 -11.004,204.272C-13.63,202.123 -16.055,199.697 -18.379,197.217C-23.667,191.571 -28.711,185.692 -34.609,180.642C-35.075,180.243 -35.524,179.78 -35.843,179.262C-37.03,177.334 -38.863,176.207 -40.741,175.101C-42.07,174.318 -43.362,173.469 -44.651,172.619C-49.949,169.124 -55.233,165.607 -60.543,162.13C-61.136,161.742 -61.829,161.15 -62.696,162.051C-61.035,167.168 -59.034,172.101 -54.98,176.011C-53.104,177.821 -51.541,179.934 -50.241,182.279C-48.9,184.698 -47.284,187.044 -45.409,189.071C-40.478,194.402 -35.375,199.576 -30.273,204.747C-26.333,208.741 -21.803,211.929 -16.891,214.673C-12.849,216.93 -8.917,219.446 -5.203,222.205C-2.404,224.283 0.623,225.708 3.842,226.823C4.807,227.157 5.908,227.097 7.49,227.281M19.614,208.927C20.263,206.3 20.701,204.83 20.982,203.329C21.494,200.594 21.783,197.812 22.402,195.104C23.239,191.444 23.426,187.778 23.241,184.047C23.089,180.965 23.134,177.873 23.112,174.785C23.075,169.542 23.22,164.324 22.637,159.063C22.133,154.505 22.776,149.826 22.831,145.199C22.853,143.36 22.908,141.463 22.517,139.688C21.156,133.512 19.66,127.363 18.094,121.235C17.678,119.606 17.008,117.978 16.141,116.539C12.638,110.722 8.965,105.007 5.459,99.19C4.349,97.35 3.493,95.342 2.653,93.355C1.72,91.149 0.817,88.941 -0.551,86.465C-1.466,89.755 -0.569,92.442 -0.162,95.142C1.014,102.93 2.358,110.694 3.404,118.498C4.224,124.615 4.168,130.836 5.509,136.901C5.673,137.645 5.57,138.444 5.652,139.211C5.898,141.512 5.963,143.86 6.485,146.099C7.441,150.194 7.81,154.334 8.053,158.506C8.503,166.233 9.292,173.915 11.256,181.433C11.489,182.328 11.757,183.249 11.766,184.161C11.795,187.316 12.855,190.238 13.704,193.203C14.51,196.022 15.385,198.829 16.373,201.59C17.14,203.735 17.893,205.909 19.614,208.927M-5.25,82.749C-5.581,83.519 -5.879,83.907 -5.897,84.307C-5.993,86.496 -6.732,88.511 -7.283,90.602C-8.458,95.06 -9.757,99.525 -9.517,104.26C-9.312,108.305 -9.966,112.251 -11.517,116.043C-12.035,117.311 -12.37,118.707 -12.494,120.071C-12.693,122.263 -13.343,124.268 -14.149,126.303C-15.282,129.164 -16.482,132.091 -16.958,135.099C-17.758,140.144 -17.718,145.325 -16.806,150.338C-15.533,157.335 -13.183,164.027 -9.52,170.197C-8.812,171.388 -8.113,172.622 -7.667,173.924C-5.586,179.983 -1.898,185.189 1.174,190.715C5.007,197.611 9.698,203.968 14.075,210.52C14.907,211.766 15.891,212.91 17.331,214.787C17.248,213.305 17.32,212.692 17.166,212.144C16.409,209.466 15.68,206.775 14.78,204.144C12.128,196.394 9.638,188.615 8.68,180.423C8.431,178.29 7.615,176.222 7.383,174.088C6.734,168.1 6.278,162.091 5.694,156.095C5.485,153.949 5.142,151.815 4.838,149.679C3.71,141.726 2.558,133.776 1.46,125.819C1.335,124.914 1.541,123.967 1.519,123.041C1.482,121.498 1.531,119.932 1.285,118.418C0.52,113.704 -0.392,109.014 -1.199,104.306C-2.06,99.283 -2.829,94.244 -3.714,89.225C-4.076,87.175 -4.053,85.006 -5.25,82.749M191.626,9.633C187.331,16.641 181.71,22.219 176.276,27.9C171.792,32.588 166.783,36.739 161.662,40.735C159.956,42.067 158.225,43.394 156.684,44.906C152.341,49.166 147.467,52.615 142.057,55.411C134.303,59.418 127.151,64.251 121.95,71.485C121.86,71.61 121.744,71.716 121.638,71.829C113.355,80.648 106.298,90.403 99.762,100.551C99.016,101.71 98.398,102.987 97.929,104.285C96.298,108.788 95.043,113.452 93.098,117.81C91.47,121.458 91.057,125.233 90.566,129.055C90.473,129.783 90.449,130.632 91.713,130.823C92.075,130.49 92.586,130.135 92.952,129.665C94.661,127.47 96.339,125.249 98.012,123.025C102.563,116.973 106.905,110.766 112.916,105.951C115.433,103.935 117.679,101.529 119.815,99.096C127.876,89.915 135.913,80.711 144.577,72.093C149.639,67.058 154.236,61.656 158.606,56.024C161.638,52.118 164.716,48.202 168.169,44.679C172.627,40.13 176.449,35.084 180.485,30.203C185.17,24.537 188.374,18.036 191.113,11.277C191.329,10.747 191.457,10.182 191.626,9.633M226.645,210.654C225.313,210.375 224.784,210.187 224.249,210.167C221.938,210.077 219.609,210.19 217.317,209.949C211.179,209.303 205.057,208.526 198.877,208.337C193.473,208.171 188.067,207.613 182.671,207.721C172.741,207.919 162.912,206.744 153.055,205.976C147.515,205.543 142.024,204.378 136.482,204.08C127.685,203.606 118.863,203.539 110.05,203.385C106.191,203.317 102.327,203.41 98.468,203.528C96.464,203.589 94.465,203.843 92.467,204.046C89.703,204.328 86.939,204.629 84.179,204.949C79.269,205.519 74.368,206.18 69.451,206.67C64.677,207.145 59.968,207.803 55.375,209.865C55.829,210.34 56.074,210.782 56.446,210.956C58.399,211.874 60.359,212.788 62.365,213.582C64.375,214.378 66.391,215.281 68.491,215.7C73.183,216.636 77.928,217.306 82.653,218.072C84.179,218.319 85.718,218.492 87.239,218.763C98.045,220.684 108.847,222.633 119.655,224.545C121.787,224.923 123.931,225.338 126.085,225.465C132.099,225.819 138.122,226.27 144.139,226.237C150.937,226.199 157.737,225.739 164.528,225.34C168.384,225.113 172.282,224.939 176.061,224.22C185.331,222.458 194.559,220.468 203.772,218.428C210.732,216.888 217.488,214.627 224.157,212.123C224.797,211.882 225.354,211.425 226.645,210.654M235.335,206.548C235.118,206.198 234.981,205.711 234.663,205.503C230.773,202.971 226.86,200.517 222.489,198.806C215.003,195.875 207.607,192.715 200.168,189.663C196.743,188.257 193.333,186.805 189.867,185.508C187.119,184.48 184.219,183.837 181.52,182.706C176.442,180.578 171.127,179.628 165.709,179.366C156.754,178.931 147.787,178.708 138.823,178.49C136.825,178.442 134.804,178.691 132.815,178.963C127.916,179.633 123.037,180.466 118.133,181.102C112.592,181.821 107.18,182.982 101.949,184.991C97.909,186.543 93.807,187.933 89.743,189.423C87.859,190.114 85.988,190.845 84.133,191.61C77.681,194.269 71.638,197.741 65.482,200.991C63.747,201.908 62.27,203.068 60.595,204.744C65.228,204.485 69.368,204.267 73.507,204.014C74.432,203.957 75.349,203.78 76.27,203.657C81.022,203.024 85.758,202.187 90.53,201.808C96.996,201.292 103.459,200.685 109.983,201.017C118.479,201.449 126.997,201.455 135.493,201.88C139.496,202.08 143.462,202.931 147.461,203.311C155.469,204.072 163.488,204.715 171.504,205.394C172.428,205.472 173.36,205.476 174.288,205.495C182.333,205.659 190.38,205.752 198.423,206.008C202.283,206.131 206.182,206.273 209.979,206.907C218.172,208.272 226.341,207.377 234.521,207.114C234.763,207.106 234.994,206.794 235.335,206.548M84.508,164.152C87.136,164.327 89.124,164.314 91.062,164.613C99.598,165.93 108.048,164.514 116.523,163.914C117.434,163.849 118.323,163.476 119.22,163.237C124.004,161.961 128.772,160.632 133.738,160.196C134.955,160.089 136.162,159.712 137.342,159.356C144.92,157.068 152.098,153.764 159.345,150.636C169.146,146.406 178.613,141.437 188.768,137.971C193.267,136.435 197.403,133.818 201.664,131.614C207.7,128.491 213.885,125.644 219.332,121.464C224.728,117.324 229.892,112.859 235.79,109.399C236.185,109.167 236.5,108.802 236.855,108.503C242.769,103.527 248.686,98.555 254.587,93.566C255.002,93.215 255.691,92.897 255.086,91.893C254.623,91.927 254.008,91.851 253.479,92.028C245.71,94.634 237.949,97.264 230.193,99.91C224.629,101.808 219.164,104.08 213.49,105.546C208.666,106.793 203.99,108.323 199.402,110.198C193.959,112.42 188.339,114.225 183.19,117.137C182.522,117.516 181.766,117.741 181.046,118.027C175.871,120.083 170.692,122.13 165.52,124.192C163.651,124.937 161.845,125.888 159.923,126.441C154.983,127.864 150.352,130.008 145.779,132.281C139.829,135.238 134.167,138.749 127.847,140.994C124.809,142.072 122.014,143.836 119.111,145.293C117.727,145.988 116.371,146.744 114.963,147.385C105.376,151.754 96.008,156.543 86.987,161.991C86.255,162.433 85.673,163.123 84.508,164.152M50.386,171.57C51.355,170.77 51.896,170.487 52.202,170.042C53.605,168.009 55.144,166.033 56.269,163.849C60.947,154.768 65.34,145.546 69.175,136.072C71.499,130.33 73.502,124.495 74.655,118.366C75.281,115.041 76.179,111.702 77.47,108.582C79.798,102.957 81.493,97.228 82.052,91.157C82.179,89.784 82.58,88.423 82.968,87.089C84.483,81.88 85.729,76.629 86.072,71.184C86.276,67.947 86.412,64.665 87.074,61.506C88.258,55.859 88.347,50.137 88.75,44.435C89.046,40.267 89.066,36.113 88.359,31.943C87.715,28.141 87.16,24.268 87.157,20.426C87.152,14.975 85.951,9.69 85.509,4.308C84.851,-3.709 83.89,-11.7 83.201,-19.714C83,-22.065 82.434,-24.244 81.667,-26.455C80.304,-30.389 78.987,-34.358 78.002,-38.398C76.98,-42.591 76.663,-46.951 74.626,-50.884C74.143,-51.818 74.116,-52.981 73.815,-54.02C73.658,-54.563 73.361,-55.065 72.894,-56.104C71.86,-53.688 71.628,-51.774 71.927,-49.792C72.688,-44.751 73.489,-39.716 74.25,-34.675C74.664,-31.931 75.179,-29.191 75.378,-26.43C75.667,-22.423 75.837,-18.398 75.823,-14.382C75.811,-11.145 75.919,-7.792 75.156,-4.691C72.783,4.954 71.822,14.822 70.172,24.577C68.96,31.741 68.53,39.035 67.427,46.221C65.972,55.702 64.143,65.12 63.066,74.667C62.234,82.042 60.893,89.358 59.951,96.723C59.068,103.625 58.392,110.554 57.672,117.476C57.432,119.781 57.224,122.101 57.201,124.416C57.145,129.992 56.979,135.551 55.771,141.025C55.371,142.837 54.927,144.642 54.583,146.465C53.952,149.807 53.272,153.144 52.813,156.511C52.248,160.648 51.923,164.815 50.552,168.807C50.333,169.442 50.456,170.195 50.386,171.57M85.665,158.161C85.895,158.395 86.125,158.63 86.354,158.865C87.451,158.372 88.582,157.941 89.637,157.373C92.361,155.908 94.988,154.247 97.771,152.907C103.489,150.151 109.289,147.564 115.043,144.883C116.444,144.231 117.868,143.59 119.164,142.76C122.97,140.325 126.988,138.389 131.312,137.049C132.928,136.547 134.568,135.931 135.994,135.041C140.739,132.079 145.697,129.57 150.897,127.531C154.928,125.951 159.007,124.489 162.998,122.816C171.849,119.107 180.658,115.297 189.486,111.532C190.341,111.168 191.191,110.78 192.072,110.491C199.418,108.082 206.508,105.009 214.045,103.036C222.246,100.888 230.175,97.689 238.192,94.862C243.872,92.859 249.501,90.719 255.147,88.623C255.706,88.415 256.353,88.194 256.149,87.257C255.82,87.058 255.465,86.735 255.049,86.605C246.139,83.827 237.026,82.122 227.704,81.634C226.181,81.554 224.628,81.833 223.104,82.048C219.428,82.566 215.776,83.433 212.088,83.618C208.181,83.814 204.475,84.527 200.738,85.643C195.257,87.278 189.616,88.373 184.125,89.976C176.991,92.058 170.027,94.661 163.332,97.903C158.598,100.196 153.891,102.556 149.278,105.08C140.045,110.132 130.384,114.34 121.276,119.653C116.072,122.689 110.669,125.43 106.148,129.418C102.921,132.265 99.833,135.428 97.351,138.923C93.422,144.457 90.041,150.382 86.459,156.161C86.087,156.761 85.924,157.491 85.665,158.161M33.605,118.524C32.376,115.892 32.505,113.066 32.671,110.307C32.86,107.169 32.576,104.133 31.756,101.12C31.554,100.376 31.275,99.605 31.299,98.856C31.467,93.603 30.706,88.381 30.75,83.146C30.832,73.384 31.994,63.717 33.253,54.031C34.176,46.941 35.867,40.04 37.191,33.059C38.225,27.614 40.167,22.327 41.898,17.032C43.528,12.043 45.41,7.136 47.18,2.193C47.598,1.027 48.051,-0.128 48.424,-1.308C51.456,-10.898 54.5,-20.484 57.486,-30.088C60.011,-38.209 62.459,-46.354 64.955,-54.485C65.362,-55.814 65.845,-57.12 66.278,-58.441C67.024,-60.715 66.936,-60.909 64.606,-62.459C64.357,-62.625 64.147,-62.85 63.903,-63.063C64.507,-64.568 65.117,-66.086 65.824,-67.849C66.639,-68.026 67.677,-68.251 68.979,-68.534C69.139,-68.945 69.356,-69.49 69.565,-70.039C70.343,-72.084 71.237,-73.038 72.195,-72.727C73.636,-72.257 73.798,-70.939 73.933,-69.718C74.067,-68.499 74.12,-67.254 74.038,-66.032C73.85,-63.215 74.156,-60.515 75.14,-57.835C76.416,-54.353 77.481,-50.794 78.616,-47.262C78.899,-46.379 79.229,-45.482 79.313,-44.572C79.855,-38.637 82.087,-33.181 83.909,-27.595C84.715,-25.121 85.175,-22.484 85.417,-19.886C86.436,-8.956 87.07,2.013 88.972,12.849C89.184,14.057 89.111,15.314 89.195,16.546C89.343,18.706 89.346,20.891 89.698,23.018C91.043,31.148 91.444,39.281 90.763,47.52C90.368,52.302 90.208,57.073 89.189,61.799C88.609,64.493 88.797,67.342 88.413,70.09C87.813,74.378 87.128,78.661 86.287,82.907C85.116,88.819 83.799,94.702 82.475,100.582C82.103,102.237 81.599,103.882 80.962,105.454C78.745,110.926 77.504,116.671 75.975,122.345C74.648,127.268 73.17,132.198 71.206,136.893C67.744,145.166 64.051,153.358 60.082,161.399C57.623,166.382 54.608,171.11 51.585,175.786C49.886,178.414 49.061,181.008 49.811,184.06C50.826,184.317 51.22,183.52 51.666,182.956C55.693,177.857 59.697,172.739 63.691,167.614C64.165,167.006 64.401,166.123 64.988,165.707C69.089,162.802 71.782,158.53 75.375,155.152C79.046,151.701 81.655,147.487 84.204,143.263C85.444,141.206 85.857,138.677 87.209,136.574C87.662,135.87 87.526,134.775 87.62,133.854C87.854,131.545 88.089,129.235 88.282,126.921C88.582,123.342 89.404,119.933 90.948,116.65C91.794,114.85 92.188,112.829 92.72,110.889C94.083,105.918 96.105,101.311 99.317,97.193C101.394,94.53 102.992,91.499 104.892,88.693C110.812,79.948 117.808,72.061 125,64.388C127.924,61.269 131.666,58.846 135.264,56.45C138.469,54.316 142.097,52.825 145.339,50.741C148.319,48.826 151.098,46.577 153.85,44.334C158.167,40.817 162.388,37.181 166.65,33.596C167.005,33.296 167.38,33.018 167.715,32.697C173.852,26.821 180.175,21.117 185.109,14.116C187.808,10.287 189.659,6.033 191.354,1.696C192,0.042 192.06,-1.619 191.694,-3.322C190.494,-8.903 189.94,-14.661 187.179,-19.819C186.971,-20.209 186.851,-20.681 186.829,-21.122C186.817,-21.369 187.046,-21.79 187.25,-21.85C187.633,-21.963 188.079,-21.894 188.494,-21.852C188.62,-21.838 188.784,-21.688 188.837,-21.561C190.633,-17.308 194.386,-14.571 197.062,-10.998C198.128,-9.574 198.829,-8.13 199.021,-6.387C199.841,1.083 199.84,8.433 196.326,15.381C195.281,17.449 194.418,19.619 193.612,21.795C191.66,27.069 188.765,31.823 185.553,36.383C179.126,45.507 171.93,54.021 164.551,62.379C159.429,68.179 154.089,73.79 149.095,79.695C143.904,85.831 139.087,92.282 133.963,98.477C130.713,102.406 127.228,106.143 123.796,109.919C120.785,113.232 117.701,116.48 114.626,119.782C115.056,120.761 115.653,120.024 116.036,119.822C120.818,117.284 125.52,114.589 130.354,112.157C138.235,108.192 146.198,104.394 154.125,100.522C154.958,100.116 155.849,99.785 156.6,99.256C163.026,94.733 170.398,92.251 177.684,89.667C183.509,87.602 189.409,85.721 195.557,84.674C198.74,84.132 201.803,82.892 204.933,82.014C206.117,81.682 207.327,81.39 208.545,81.239C212.995,80.685 217.5,80.451 221.894,79.618C226.412,78.762 230.875,79.039 235.295,79.671C240.953,80.481 246.565,81.669 252.15,82.904C255.167,83.571 258.062,84.697 261.259,84.324C262.804,84.143 263.881,85.094 264.499,86.498C264.904,87.419 264.895,88.32 264.102,89.045C262.386,90.61 260.711,92.229 258.902,93.68C256.25,95.808 253.438,97.737 250.798,99.879C246.838,103.09 243.024,106.483 239.04,109.662C236.387,111.777 233.518,113.619 230.793,115.647C228.561,117.31 226.298,118.956 224.228,120.809C220.385,124.248 215.916,126.718 211.541,129.335C209.155,130.763 206.698,132.092 204.187,133.285C197.62,136.405 191.24,139.913 184.317,142.294C179.945,143.797 175.686,145.613 171.525,147.733C162.002,152.585 152.128,156.693 142.011,160.163C139.24,161.113 136.345,161.713 133.49,162.404C128.533,163.603 123.565,164.757 118.596,165.908C117.544,166.152 116.478,166.387 115.405,166.482C106.782,167.251 98.176,168.343 89.482,167.403C86.263,167.056 83.009,166.965 79.769,166.889C78.725,166.865 77.591,167.082 76.637,167.502C73.379,168.938 70.149,170.45 66.979,172.072C65.918,172.614 64.822,173.404 64.163,174.369C55.693,186.763 47.3,199.208 38.89,211.643C38.633,212.022 38.402,212.417 37.908,213.207C38.985,213.298 39.616,213.555 40.015,213.353C43.879,211.403 47.908,209.684 51.496,207.304C58.469,202.678 65.462,198.096 73.04,194.544C79.337,191.592 85.479,188.278 92.209,186.265C96.648,184.937 100.953,183.156 105.31,181.559C109.118,180.163 113.085,179.551 117.081,178.994C121.524,178.374 125.984,177.761 130.362,176.804C134.985,175.792 139.615,176.14 144.245,176.182C149.972,176.233 155.696,176.499 161.422,176.619C169.068,176.778 176.416,178.103 183.656,180.788C192.797,184.177 201.805,187.882 210.812,191.582C215.962,193.698 221.132,195.746 226.306,197.794C229.449,199.039 232.372,200.885 235.294,202.627C238.289,204.413 241.316,205.789 244.93,205.235C246.103,205.055 246.988,205.692 247.715,206.59C248.653,207.748 248.264,209.201 246.806,209.415C243.594,209.887 240.367,210.281 237.135,210.588C234.956,210.795 232.879,211.259 230.843,212.076C217.275,217.513 203.216,221.18 188.837,223.701C185.942,224.208 183.076,224.875 180.189,225.432C167.824,227.818 155.295,228.369 142.759,228.354C135.808,228.346 128.822,227.888 121.917,227.08C115.164,226.289 108.485,224.834 101.787,223.603C92.963,221.981 84.171,220.258 75.211,219.382C70.165,218.889 65.099,217.795 60.438,215.564C57.313,214.068 53.912,213.67 50.639,212.764C49.332,212.401 48.218,212.88 47.062,213.35C44.486,214.397 41.935,215.531 39.295,216.391C36.328,217.359 34.223,219.092 32.76,221.882C26.542,233.75 18.594,244.367 9.371,254.071C7.034,256.53 5.074,259.344 2.915,261.974C2.031,263.05 1.048,264.045 0.163,265.121C-1.5,267.14 -3.678,266.824 -5.83,266.439C-7.982,266.055 -9.426,264.847 -9.929,262.301C-8.516,261.628 -7.171,260.925 -5.777,260.335C-2.74,259.049 0.024,257.446 1.994,254.665C2.699,253.669 3.737,252.914 4.578,252.007C5.629,250.874 6.707,249.753 7.644,248.529C9.428,246.2 11.133,243.811 12.842,241.426C13.284,240.809 13.62,240.116 13.942,239.564C13.636,236.757 11.784,234.957 10.509,232.877C9.631,231.445 8.014,231.136 6.514,230.751C4.868,230.329 3.143,230.129 1.571,229.524C-1.752,228.244 -4.791,226.538 -7.621,224.232C-10.834,221.615 -14.495,219.484 -18.149,217.487C-23.368,214.636 -27.986,211.096 -32.089,206.817C-36.586,202.129 -41.051,197.403 -45.718,192.89C-48.211,190.478 -50.198,187.769 -51.868,184.797C-53.397,182.078 -55.099,179.533 -57.497,177.485C-59.902,175.43 -61.485,172.781 -62.754,169.915C-63.693,167.793 -64.639,165.668 -65.693,163.602C-66.96,161.114 -68.291,158.676 -70.942,157.275C-71.723,156.864 -72.415,156.076 -72.852,155.296C-73.175,154.719 -73.305,153.688 -72.991,153.202C-72.694,152.743 -71.715,152.624 -71.018,152.562C-70.617,152.527 -70.183,152.908 -69.758,153.09C-65.774,154.796 -61.741,156.191 -57.378,156.769C-52.633,157.398 -47.791,158.065 -43.293,159.601C-36.859,161.797 -30.785,164.889 -25.253,169.028C-19.297,173.484 -13.894,178.581 -8.104,183.22C-7.296,183.867 -6.46,184.477 -4.834,185.718C-6.312,182.431 -7.331,180.065 -8.434,177.74C-9.56,175.365 -10.663,172.97 -11.963,170.69C-14.672,165.941 -16.187,160.705 -17.903,155.598C-19.016,152.287 -19.308,148.582 -19.33,145.05C-19.37,138.542 -18.766,132.115 -16.09,125.968C-14.75,122.891 -14.319,119.419 -13.465,116.129C-13.154,114.931 -12.959,113.673 -12.452,112.561C-11.312,110.069 -11.162,107.442 -11.374,104.823C-11.552,102.619 -11.355,100.536 -10.822,98.401C-9.961,94.955 -9.273,91.464 -8.566,87.981C-8.383,87.081 -8.266,86.127 -8.349,85.22C-8.777,80.541 -7.832,75.968 -7.414,71.353C-7.308,70.185 -7.175,69.138 -5.765,68.996C-4.461,68.864 -3.579,69.576 -3.161,71.076C-1.034,78.698 2.12,85.939 5.129,93.227C6.306,96.075 7.889,98.718 9.797,101.213C11.565,103.526 12.757,106.274 14.265,108.793C15.537,110.917 16.976,112.942 18.2,115.091C19.577,117.511 20.621,120.053 21.21,122.829C22.173,127.359 23.315,131.859 24.589,136.313C25.409,139.18 25.785,141.967 25.539,144.982C25.086,150.517 24.791,156.074 25.6,161.638C25.955,164.07 25.808,166.58 25.836,169.055C25.893,173.847 25.881,178.639 25.955,183.429C26.047,189.495 25.209,195.436 24.132,201.399C23.172,206.712 22.746,212.132 22.291,217.522C22.063,220.223 22.395,220.612 24.202,223.186C24.869,222.537 25.63,221.998 26.125,221.277C27.613,219.107 29.05,216.898 30.41,214.646C33.29,209.877 36.04,205.028 38.982,200.298C40.368,198.072 41.996,195.981 43.657,193.945C46.184,190.847 46.541,187.243 46.43,183.475C46.375,181.634 45.957,179.662 46.46,177.975C48.021,172.747 47.139,167.775 45.148,163.002C41.917,155.255 39.326,147.346 37.724,139.103C37.461,137.757 36.796,136.482 36.263,135.197C35.004,132.169 34.165,129.06 34.069,125.754C33.997,123.295 33.786,120.841 33.637,118.382C34.986,120.895 35.439,123.659 35.614,126.436C35.782,129.12 36.508,131.572 37.584,134.016C38.447,135.978 38.977,138.097 39.56,140.172C40.649,144.045 41.448,148.015 42.778,151.8C44.265,156.028 46.2,160.099 47.971,164.225C48.059,164.43 48.446,164.505 48.844,164.723C50.009,163.508 49.853,161.865 49.962,160.423C50.348,155.311 51.297,150.323 52.528,145.349C53.829,140.097 54.835,134.779 54.847,129.309C54.854,126.066 55,122.799 55.412,119.585C57.082,106.532 58.12,93.406 60.159,80.392C61.787,69.994 62.708,59.488 64.941,49.178C65.365,47.22 65.47,45.191 65.7,43.193C66.089,39.81 66.387,36.414 66.855,33.042C67.897,25.529 69.019,18.026 70.111,10.52C70.422,8.378 70.617,6.209 71.078,4.1C72.67,-3.185 73.573,-10.509 73.321,-17.996C73.102,-24.507 72.694,-30.969 71.145,-37.32C70.816,-38.667 70.524,-40.025 70.28,-41.39C69.845,-43.817 69.711,-46.335 68.967,-48.66C68.462,-50.236 68.545,-51.625 68.762,-53.134C68.788,-53.309 68.391,-53.544 67.943,-54.005C67.527,-53.378 67.013,-52.863 66.8,-52.244C64.787,-46.398 62.78,-40.551 60.864,-34.673C59.427,-30.265 58.166,-25.8 56.752,-21.384C55.243,-16.671 53.675,-11.977 52.083,-7.291C49.148,1.344 46.126,9.949 43.243,18.601C41.582,23.583 40.121,28.632 38.574,33.653C38.483,33.948 38.427,34.254 38.361,34.557C37.601,38.033 36.842,41.51 36.082,44.986C35.784,46.348 35.175,47.724 35.238,49.068C35.48,54.243 33.747,59.149 33.396,64.236C32.93,71.018 32.342,77.79 31.873,84.571C31.799,85.632 32.105,86.714 32.182,87.79C32.333,89.939 32.539,92.089 32.555,94.24C32.579,97.335 32.479,100.396 33.666,103.383C34.156,104.618 34.124,106.107 34.124,107.48C34.124,109.491 33.933,111.5 33.833,113.511C33.75,115.182 33.681,116.853 33.605,118.524" style="fill:white;fill-rule:nonzero;"/>
            </g>
        </g>
    </g>
</svg>
