<?xml version="1.0" encoding="UTF-8" standalone="no"?>
<!DOCTYPE svg PUBLIC "-//W3C//DTD SVG 1.1//EN" "http://www.w3.org/Graphics/SVG/1.1/DTD/svg11.dtd">
<svg width="100%" height="100%" viewBox="0 0 5628 4445" version="1.1" xmlns="http://www.w3.org/2000/svg" xmlns:xlink="http://www.w3.org/1999/xlink" xml:space="preserve" xmlns:serif="http://www.serif.com/" style="fill-rule:evenodd;clip-rule:evenodd;stroke-linejoin:round;stroke-miterlimit:2;">
    <g transform="matrix(1,0,0,1,-6398.8,-703.615)">
        <g transform="matrix(8.33333,0,0,8.33333,3.6283,7.09483)">
            <g transform="matrix(1,0,0,1,886.591,262.919)">
                <path d="M0,174.905L0.315,175.039L0.305,174.746L0,174.905ZM132.363,137.16L132.271,136.968L132.033,137.129L132.363,137.16ZM126.783,139.402L126.646,139.139L126.326,139.373L126.783,139.402ZM251.946,73.334C255.921,72.131 259.775,70.333 263.788,69.929C267.689,69.536 270.263,67.6 272.72,64.94C271.174,65.504 269.748,66.321 268.27,67.019C267.237,67.508 266.161,68.077 265.055,68.189C260.51,68.651 256.725,71.279 252.522,72.698C252.301,72.773 252.158,73.092 251.946,73.334M15.402,179.134C15.373,179.405 15.344,179.675 15.315,179.945C15.933,180.101 16.587,180.467 17.163,180.373C19.174,180.044 21.103,180.275 22.995,181.109C26.254,182.546 28.63,181.047 31.361,178.391C29.56,178.206 28.314,177.937 27.089,177.99C25.783,178.047 24.502,178.441 23.201,178.63C21.902,178.817 20.596,178.982 19.286,179.065C17.996,179.147 16.697,179.115 15.402,179.134M228.16,87.596C228.073,87.403 227.985,87.211 227.897,87.018C227.326,87.134 226.701,87.134 226.193,87.387C223.965,88.498 221.691,89.54 219.582,90.867C214.622,93.988 209.399,96.462 203.892,98.315C203.332,98.504 202.649,98.751 203.102,99.763C204.774,99.865 206.299,99.485 207.781,98.591C209.482,97.565 211.309,96.772 213.075,95.862C217.644,93.509 222.215,91.159 226.768,88.771C227.289,88.498 227.699,87.993 228.16,87.596M351.588,-71.507C351.115,-71.958 350.913,-72.312 350.661,-72.367C345.854,-73.419 341.113,-73.289 336.397,-72.016C330.917,-70.535 325.692,-68.358 320.316,-66.299C331.016,-66.683 341.332,-68.383 351.588,-71.507M509.88,-129.047C510.792,-127.469 511.216,-126.55 511.798,-125.762C513.618,-123.301 516.222,-121.937 518.623,-120.299C524.768,-116.102 531.434,-114.251 538.606,-114.773C539.257,-114.821 539.878,-115.129 539.545,-116.426C534.83,-118.159 529.912,-119.855 525.068,-121.781C520.145,-123.738 515.878,-127.421 509.88,-129.047M421.615,-167.483C421.457,-167.303 421.298,-167.123 421.14,-166.943C421.519,-166.381 421.844,-165.766 422.285,-165.266C429.192,-157.437 437.719,-152.119 446.517,-147.273C452.371,-144.049 458.736,-142.498 465.066,-140.926C466.116,-140.665 467.338,-140.095 468.51,-141.529C467.822,-142.05 467.232,-142.691 466.523,-142.997C464.199,-143.999 461.836,-144.896 459.479,-145.802C456.805,-146.83 453.919,-147.431 451.481,-148.91C444.947,-152.873 437.797,-155.758 432.198,-161.43C431.603,-162.033 430.808,-162.436 430.067,-162.848C427.258,-164.412 424.434,-165.941 421.615,-167.483M509.824,-133.922C510.41,-132.164 512.011,-131.803 513.272,-131.116C516.701,-129.246 520.192,-127.514 523.676,-125.767C524.735,-125.236 525.835,-124.79 526.939,-124.378C532.761,-122.204 538.586,-120.04 544.425,-117.923C544.795,-117.788 545.288,-118.071 545.786,-118.173C540.132,-127.903 521.131,-136.505 509.824,-133.922M424.937,-77.561C424.283,-79.18 422.973,-79.043 421.887,-79.267C413.836,-80.927 405.699,-81.669 397.57,-81.754C393.464,-81.797 389.237,-81.238 385.313,-80.077C379.218,-78.275 373.334,-75.726 366.72,-73.255C369.304,-72.153 371.312,-72.096 373.229,-72.196C382.168,-72.66 391.107,-73.166 399.839,-75.315C402.404,-75.947 405.027,-76.492 407.658,-76.66C412.779,-76.989 417.924,-77.012 423.058,-77.192C423.674,-77.214 424.28,-77.427 424.937,-77.561M329.215,31.436C331.562,30.004 333.926,28.823 336.011,27.232C340.122,24.095 344.503,21.395 348.34,17.789C351.248,15.056 354.937,13.278 358.218,10.979C362.185,8.198 366.137,5.387 370.003,2.454C372.67,0.431 375.057,-2.02 377.786,-3.935C384.939,-8.952 391.787,-14.306 397.123,-21.561C397.421,-21.967 397.845,-22.263 398.192,-22.631C402.959,-27.674 407.723,-32.723 412.49,-37.767C414.001,-39.366 415.476,-41.008 417.05,-42.533C418.808,-44.237 420.368,-46.084 421.427,-48.426C419.526,-47.066 417.796,-45.525 416.197,-43.843C412.114,-39.546 408.163,-35.104 404.02,-30.876C400.234,-27.012 396.227,-23.394 392.385,-19.589C385.301,-12.574 378.526,-5.154 369.641,-0.564C369.495,-0.489 369.376,-0.358 369.237,-0.265C363.815,3.36 358.576,7.344 352.926,10.524C343.771,15.676 336.42,23.082 329.115,30.619C329.052,30.683 329.146,30.92 329.215,31.436M476.585,-91.947C476.341,-89.122 476.237,-86.68 475.904,-84.281C474.879,-76.904 476.305,-69.745 478.535,-62.81C482.152,-51.563 487.715,-41.362 494.906,-32.17C495.409,-31.527 495.968,-30.933 496.531,-30.282C496.885,-30.768 497.273,-31.069 497.228,-31.274C496.629,-34.031 496.16,-36.842 495.278,-39.506C494.108,-43.036 492.48,-46.404 491.274,-49.923C489.497,-55.107 487.568,-60.22 486.554,-65.687C484.893,-74.632 481.088,-82.861 477.75,-91.23C477.7,-91.355 477.478,-91.407 476.585,-91.947M470.332,-144.065C470.058,-145.406 470.082,-145.983 469.836,-146.371C468.897,-147.857 468.028,-149.449 466.85,-150.697C463.146,-154.616 459.332,-158.42 455.514,-162.214C454.786,-162.938 453.874,-163.477 452.995,-163.999C449.03,-166.359 445.061,-168.711 441.061,-170.999C439.885,-171.672 438.638,-172.262 437.365,-172.657C431.394,-174.512 425.306,-175.502 419.131,-175.688C418.336,-175.712 417.541,-175.479 416.708,-175.36C416.884,-174.786 416.889,-174.298 417.098,-174.154C420.335,-171.921 423.476,-169.466 426.893,-167.62C429.615,-166.149 432.197,-164.579 434.57,-162.532C438.778,-158.903 443.318,-155.757 448.249,-153.485C455.302,-150.237 462.504,-147.381 470.332,-144.065M506.332,-16.355C506.44,-17.679 506.81,-19.045 506.605,-20.322C506.028,-23.914 506.558,-27.362 507.009,-30.863C507.527,-34.883 507.835,-38.935 507.269,-43.034C506.856,-46.022 506.493,-49.02 506.224,-52.022C505.805,-56.699 504.428,-61.056 502.297,-65.183C498.462,-72.609 493.371,-79.08 488.318,-85.568C487.035,-87.214 485.497,-88.651 483.984,-90.073C483.282,-90.733 482.362,-91.126 481.207,-91.848C480.93,-89.298 482.013,-87.634 482.666,-85.877C485.568,-78.066 488.696,-70.331 489.665,-61.921C489.805,-60.709 490.253,-59.505 490.695,-58.353C492.665,-53.226 494.547,-48.054 496.73,-43.026C498.516,-38.911 499.64,-34.651 500.377,-30.263C501.212,-25.285 503.273,-20.822 506.332,-16.355M-17.042,170.468C-17.644,170.055 -18.129,169.593 -18.692,169.363C-20.725,168.53 -22.79,167.794 -24.832,166.987C-29.531,165.128 -34.298,163.443 -38.899,161.326C-44.127,158.92 -49.257,156.234 -54.332,153.457C-59.102,150.847 -63.907,148.253 -68.092,144.56C-71.342,141.692 -74.931,139.419 -78.516,137.066C-89.029,130.165 -85.752,133.928 -93.12,123.51C-96.253,119.082 -100.245,115.429 -104.452,112.123C-104.666,111.955 -105.081,112.085 -105.627,112.07C-105.773,114.266 -104.875,116.148 -103.914,117.97C-102.27,121.09 -100.648,124.235 -98.811,127.229C-97.531,129.315 -96.02,131.28 -94.409,133.095C-91.749,136.092 -88.938,138.94 -86.164,141.821C-82.426,145.703 -78.723,149.636 -74.43,152.837C-70.57,155.714 -66.673,158.536 -62.805,161.402C-59.135,164.121 -55.067,165.533 -50.73,166.366C-47.137,167.057 -43.501,167.86 -40.076,169.208C-32.775,172.083 -25.402,172.019 -17.952,171.252C-17.707,171.226 -17.499,170.874 -17.042,170.468M20.731,184.205C19.969,183.8 19.419,183.25 18.913,183.279C15.558,183.469 12.34,182.704 9.065,181.926C5.637,181.11 2.115,181.006 -1.246,182.348C-4.014,183.453 -6.83,184.449 -9.538,185.697C-15.563,188.471 -21.388,191.652 -27.747,193.697C-33.565,195.569 -39.276,197.952 -44.765,200.695C-50.999,203.81 -57.048,207.379 -62.966,211.119C-68.035,214.322 -72.806,218.045 -77.709,221.538C-78.66,222.216 -79.533,223.096 -80.577,223.536C-85.385,225.562 -89.012,229.551 -93.523,232.058C-93.938,232.288 -94.248,232.726 -94.607,233.068C-93.352,233.426 -92.542,233.298 -91.866,232.911C-87.82,230.591 -83.721,228.356 -79.798,225.821C-72.773,221.28 -65.073,218.122 -57.906,213.885C-57.478,213.632 -57.005,213.452 -56.535,213.294C-50.256,211.178 -43.946,209.152 -37.697,206.946C-27.705,203.418 -17.2,201.502 -7.594,196.752C-6.116,196.021 -4.477,195.609 -2.876,195.192C5.045,193.129 12.163,189.082 19.464,185.488C19.857,185.294 20.126,184.83 20.731,184.205M429.551,-73.731C428.157,-73.949 427.218,-74.227 426.289,-74.22C420.81,-74.178 415.323,-74.198 409.857,-73.939C406.556,-73.782 403.212,-73.469 400.015,-72.692C389.785,-70.206 379.366,-69.59 368.875,-69.488C361.384,-69.415 353.946,-68.893 346.615,-67.34C341.909,-66.342 337.208,-65.277 332.457,-64.545C325.42,-63.46 318.339,-62.655 311.282,-61.693C310.702,-61.615 310.164,-61.252 308.954,-60.75C310.146,-60.21 310.693,-59.796 311.267,-59.728C316.074,-59.162 320.883,-58.39 325.696,-58.2C333.345,-57.898 340.995,-58.013 348.226,-61.009C348.84,-61.263 349.452,-61.566 350.095,-61.698C355.765,-62.856 361.306,-64.207 367.284,-62.138C371.026,-60.843 375.02,-59.908 379.097,-60.141C384.56,-60.453 390.042,-60.542 395.52,-60.632C399.369,-60.696 403.161,-61.124 406.791,-62.374C412.283,-64.265 417.754,-66.231 423.167,-68.349C425.605,-69.303 427.69,-70.945 429.551,-73.731M438.856,-109.383C438.858,-109.749 438.86,-110.116 438.862,-110.484C432.865,-111.265 427.897,-114.606 422.851,-117.785C418.508,-120.522 414.084,-123.107 409.726,-125.815C404.504,-129.06 398.92,-131.622 394.171,-135.769C392.901,-136.877 391.298,-137.639 389.75,-138.27C384.723,-140.319 379.543,-141.652 374.237,-142.514C368.319,-143.476 362.257,-143.22 356.476,-145.381C356.02,-145.552 355.469,-145.561 354.993,-145.476C354.453,-145.38 353.948,-145.092 352.935,-144.693C354.129,-143.637 354.837,-142.917 355.63,-142.331C356.875,-141.412 358.216,-140.644 359.449,-139.71C366.998,-133.993 374.569,-128.337 383.198,-124.606C387.548,-122.725 391.742,-120.297 396.196,-118.841C401.827,-117.001 407.343,-114.897 412.579,-112.046C418.993,-108.553 425.728,-108.212 432.565,-108.483C434.675,-108.567 436.76,-109.071 438.856,-109.383M445.807,-112.623C445.828,-112.958 445.958,-113.336 445.853,-113.622C444.174,-118.196 441.747,-122.24 438.173,-125.438C432.244,-130.743 426.355,-136.103 420.345,-141.299C417.734,-143.556 414.937,-145.673 411.542,-146.336C406.955,-147.232 402.354,-148.045 397.749,-148.796C394.785,-149.279 391.768,-149.387 388.832,-150.013C380.104,-151.875 371.64,-150.64 363.225,-148.597C362.653,-148.458 361.915,-148.211 362.277,-146.915C365.748,-146.363 369.333,-145.715 372.933,-145.237C378.92,-144.442 384.732,-142.84 390.395,-140.567C392.741,-139.626 395,-138.487 396.986,-136.707C398.52,-135.332 400.239,-134.139 402.003,-133.127C406.286,-130.67 410.68,-128.442 414.958,-125.974C417.908,-124.272 420.917,-122.583 423.586,-120.436C430.003,-115.273 437.225,-112.955 444.98,-112.212C445.246,-112.187 445.531,-112.478 445.807,-112.623M259.305,-3.063C261.827,-2.514 264.276,-2 266.721,-2.406C275.382,-3.845 284.032,-5.347 292.685,-6.831C293.174,-6.915 293.656,-7.045 294.139,-7.164C298.482,-8.241 302.829,-9.3 307.165,-10.404C310.217,-11.181 313.26,-12.002 316.298,-12.834C319.975,-13.842 323.639,-14.898 327.316,-15.902C333.716,-17.649 340.121,-19.377 346.527,-21.102C349.723,-21.962 352.916,-22.838 356.129,-23.629C359.666,-24.499 363.249,-25.185 366.768,-26.121C371.408,-27.356 376.006,-28.748 380.617,-30.092C381.218,-30.267 381.918,-30.426 381.736,-31.5C379.163,-32.902 376.333,-33.006 373.522,-33.296C369.495,-33.711 365.599,-32.766 361.64,-32.515C356.804,-32.21 352.134,-31.184 347.493,-29.953C343.808,-28.976 340.189,-27.739 336.499,-26.787C329.431,-24.965 322.303,-23.378 315.261,-21.461C312.019,-20.578 308.818,-20.006 305.444,-20.305C297.385,-21.022 290.045,-18.673 283.002,-14.947C279.618,-13.156 276.123,-11.59 272.652,-9.98C268.146,-7.889 263.411,-6.307 259.305,-3.063M302.81,30.521C302.405,30.006 302.24,29.595 301.977,29.493C298.831,28.271 295.723,26.941 292.342,26.633C288.028,26.24 283.727,25.568 279.411,25.239C276.773,25.039 274.108,25.154 271.47,25.312C266.006,25.64 260.557,26.166 255.091,26.471C248.137,26.859 241.123,26.256 234.21,27.489C232.12,27.863 229.901,27.553 227.74,27.512C226.411,27.488 225.065,27.218 223.755,27.333C216.619,27.962 209.466,27.689 202.319,27.119C191.027,26.219 179.71,25.74 168.474,23.834C166.902,23.568 165.242,22.903 163.586,23.705C163.837,24.172 163.935,24.636 164.153,24.72C169.664,26.844 175.147,29.077 180.723,30.974C185.503,32.601 190.39,33.844 195.233,35.241C198.974,36.32 202.739,37.012 206.603,36.477C207.579,36.342 208.602,36.395 209.593,36.506C216.552,37.281 223.482,37.801 230.483,37.316C235.624,36.959 240.771,36.798 245.811,35.725C254.432,33.89 263.14,32.82 271.964,32.465C278.266,32.21 284.551,31.671 290.841,31.222C292.827,31.079 294.796,30.745 296.783,30.625C298.727,30.507 300.684,30.551 302.81,30.521M-12.455,168.011C-12.21,167.581 -12.047,167.433 -12.061,167.299C-12.526,162.657 -14.716,158.943 -17.908,155.863C-20.028,153.817 -22.352,152.016 -24.517,150.02C-29.111,145.783 -33.749,141.627 -39.24,138.756C-42.099,137.261 -44.841,135.332 -47.834,134.348C-52.133,132.935 -56.539,131.773 -61.065,131.501C-64.423,131.299 -67.595,130.184 -70.768,128.949C-77.007,126.52 -82.539,122.892 -87.49,118.142C-88.478,117.195 -89.646,116.426 -90.81,115.733C-94.627,113.461 -98.476,111.253 -102.326,109.048C-102.757,108.8 -103.267,107.867 -103.867,109.152C-101.447,110.789 -99.274,112.719 -97.708,115.336C-97.359,115.921 -96.778,116.386 -96.234,116.801C-93.719,118.714 -91.924,121.263 -90.203,123.961C-87.621,128.009 -84.42,131.243 -80.092,133.358C-76.335,135.194 -72.641,137.312 -69.472,140.396C-66.872,142.926 -64.088,145.411 -61.028,147.188C-55.134,150.611 -48.995,153.539 -42.941,156.63C-40.522,157.865 -38.115,159.178 -35.601,160.125C-28.653,162.744 -21.656,165.203 -14.666,167.681C-13.926,167.944 -13.104,167.921 -12.455,168.011M-81.302,230.463C-81.147,230.799 -80.993,231.135 -80.839,231.471C-78.224,231.173 -75.59,230.99 -73,230.551C-67.608,229.64 -62.277,228.306 -56.853,227.665C-47.557,226.567 -38.774,223.467 -29.912,220.783C-20.881,218.049 -12.078,214.517 -3.219,211.209C1.451,209.466 6.195,207.634 10.036,204.321C14.23,200.703 18.03,196.556 21.873,192.502C23.786,190.484 24.151,188.893 24.084,185.744C21.926,186.877 19.914,187.99 17.855,189C15.616,190.098 13.355,191.155 11.066,192.133C7.559,193.632 4.078,195.229 0.48,196.453C-4.077,198.004 -8.667,199.4 -13.005,201.588C-14.918,202.553 -17.039,203.083 -19.091,203.727C-29.208,206.906 -39.352,209.995 -49.444,213.257C-52.588,214.273 -55.654,215.602 -58.655,217.02C-63.3,219.215 -67.512,222.273 -72.269,224.318C-75.567,225.735 -78.346,228.318 -81.302,230.463M93.772,129.075C94.648,126.458 93.93,124.274 92.705,122.352C89.201,116.852 85.591,111.486 80.394,107.485C74.937,103.284 69.166,99.531 64.189,94.609C63.1,93.531 61.644,92.873 60.346,92.043C59.048,91.213 57.727,90.426 56.431,89.592C50.94,86.059 45.331,82.966 39.056,81.235C34.037,79.85 29.118,78.049 23.942,77.479C23.287,77.406 22.649,77.114 21.999,76.945C16.007,75.382 10.021,73.788 4.019,72.279C1.261,71.586 -1.517,70.73 -4.307,70.536C-8.832,70.22 -12.769,68.571 -16.272,65.528C-19.178,63.004 -22.489,62.072 -26.101,62.2C-28.092,62.271 -30.09,62.297 -32.069,62.485C-32.745,62.549 -33.792,62.236 -34.03,63.797C-32.056,64.668 -30.071,65.577 -28.064,66.419C-26.033,67.269 -23.884,67.844 -21.954,68.904C-16.543,71.871 -10.96,74.23 -4.969,75.168C1.687,76.211 7.761,79.433 14.184,81.338C15.279,81.662 16.246,82.521 17.275,83.127C18.599,83.907 19.882,84.798 21.261,85.436C28.192,88.642 35.164,91.74 42.087,94.965C44.542,96.109 47.034,97.279 49.278,98.827C54.931,102.726 60.433,106.878 66.037,110.86C67.714,112.051 69.498,113.08 71.287,114.066C73.539,115.306 75.597,116.775 77.555,118.541C80.51,121.205 83.642,123.672 86.851,125.976C88.874,127.429 91.046,128.817 93.772,129.075M-17.734,323.567C-14.349,321.633 -10.964,319.87 -8.283,317.017C-6.079,314.671 -3.986,312.197 -1.675,309.979C1.032,307.381 3.325,304.485 5.307,301.215C6.537,299.185 8.084,297.271 9.823,295.732C13.168,292.771 15.774,289.272 17.855,285.216C18.953,283.074 20.222,280.988 21.69,279.127C26.671,272.815 30.967,266.006 35.029,258.983C37.871,254.068 41.143,249.447 44.176,244.659C45.646,242.339 47.01,239.94 48.416,237.572C49.204,236.242 49.969,234.897 50.761,233.57C54.46,227.372 58.416,221.34 60.702,214.271C61.722,211.115 62.986,208.057 64.097,204.935C64.505,203.788 64.913,202.611 65.081,201.402C65.16,200.826 64.815,200.009 64.414,199.545C63.757,198.781 62.844,198.863 62.19,199.532C60.181,201.591 57.974,203.506 56.32,205.863C53.474,209.918 50.978,214.259 48.352,218.492C44.093,225.357 39.829,232.219 35.602,239.107C32.095,244.82 28.725,250.632 25.134,256.281C20.992,262.798 16.682,269.191 12.42,275.619C11.853,276.473 11.161,277.236 10.493,278.007C3.547,286.021 -1.904,295.223 -7.279,304.447C-10.903,310.664 -13.467,317.591 -17.734,323.567M426.372,-31.91C425.437,-30.238 424.503,-28.807 423.808,-27.25C423.25,-25.999 422.926,-24.612 422.595,-23.255C420.494,-14.642 419.942,-5.866 420.897,3.067C421.463,8.357 421.687,13.669 423.194,18.856C425.868,28.063 428.149,37.394 430.976,46.55C432.863,52.658 433.62,59.069 436.094,65.012C437.659,68.771 438.649,72.804 440.361,76.478C442.153,80.322 444.366,83.933 445.285,88.185C445.502,89.192 446.15,90.115 446.645,91.05C448.049,93.7 449.471,96.341 450.9,98.977C451.204,99.54 451.569,100.067 452.381,101.377C452.494,99.854 452.658,99.204 452.569,98.589C451.52,91.372 450.735,84.15 450.517,76.855C450.39,72.625 449.623,68.397 449.141,64.169C448.794,61.133 447.654,58.37 446.623,55.521C444.935,50.857 443.927,45.932 442.255,41.26C439.483,33.512 437.965,25.496 436.566,17.431C434.56,5.868 432.587,-5.702 430.469,-17.244C429.604,-21.957 428.397,-26.608 427.328,-31.283C427.303,-31.394 427.076,-31.457 426.372,-31.91M251.557,2.432C252.954,3.127 253.63,3.631 254.364,3.8C258.28,4.703 262.189,5.914 266.141,6.284C272.599,6.889 279.088,6.94 285.563,7.196C286.724,7.242 287.889,7.178 289.048,7.113C296.004,6.726 302.976,6.483 309.91,5.876C315.849,5.358 321.833,4.823 327.635,3.547C333.277,2.306 338.717,0.126 344.236,-1.67C345.179,-1.977 346.117,-2.348 346.989,-2.826C352.095,-5.619 357.223,-8.374 362.255,-11.309C364.548,-12.646 366.635,-14.37 368.821,-15.908C370.051,-16.774 371.268,-17.663 372.534,-18.466C374.784,-19.893 377.105,-21.199 379.327,-22.674C381.638,-24.206 383.866,-25.877 386.759,-27.935C382.496,-26.916 378.978,-26.132 375.491,-25.226C371.808,-24.27 368.157,-23.187 364.486,-22.185C363.528,-21.924 362.555,-21.662 361.571,-21.565C355.429,-20.956 349.518,-19.371 343.677,-17.434C341.476,-16.705 339.216,-16.159 336.968,-15.593C332.307,-14.417 327.525,-13.623 322.99,-12.063C313.232,-8.705 303.107,-6.891 293.159,-4.344C290.923,-3.772 288.592,-3.585 286.309,-3.192C284.352,-2.855 282.354,-2.647 280.458,-2.086C274.535,-0.333 268.447,0.136 262.313,0.453C259.507,0.599 256.725,1.114 253.94,1.518C253.364,1.602 252.826,1.935 251.557,2.432M456.468,99.414C456.688,96.933 456.825,95.719 456.899,94.499C457.222,89.187 458.11,84.058 459.521,78.932C461.798,70.667 463.397,62.175 461.957,53.328C461.671,51.576 461.36,49.792 461.371,48.034C461.416,40.39 460.269,32.822 459.703,25.219C458.938,14.926 455.707,5.426 451.781,-3.918C451.305,-5.051 450.607,-6.093 449.941,-7.126C448.321,-9.637 446.534,-12.038 445.04,-14.629C441.782,-20.28 436.653,-23.635 431.917,-27.725C430.995,-26.486 431.371,-25.449 431.557,-24.431C432.773,-17.785 434.055,-11.151 435.183,-4.491C436.667,4.273 437.693,13.128 439.541,21.81C441.352,30.32 443.909,38.672 446.217,47.071C447.158,50.492 448.117,53.916 450.031,56.969C450.665,57.979 450.95,59.263 451.268,60.457C452.745,65.998 453.02,71.675 453.273,77.348C453.423,80.717 453.301,84.111 453.715,87.447C454.165,91.077 454.135,94.864 456.468,99.414M144.31,21.602C145.133,22.554 145.757,23.583 146.625,24.227C150.76,27.296 154.689,30.653 159.231,33.123C164.766,36.133 170.051,39.692 175.445,43.009C181.769,46.897 188.573,49.391 195.56,51.308C198.143,52.017 200.763,52.644 203.395,53.019C214.081,54.539 224.664,53.109 235.2,52.072C244.59,51.149 253.997,49.837 263.085,47.134C269.593,45.198 276.143,43.25 282.373,40.554C286.065,38.956 289.798,37.713 293.624,36.671C295.535,36.151 297.541,35.993 299.498,35.637C300.108,35.526 300.831,35.435 300.531,34.316C298.853,33.366 297.05,33.551 295.227,33.674C288.44,34.13 281.65,34.571 274.857,34.959C265.078,35.517 255.294,35.999 245.733,38.288C238.255,40.079 230.553,39.977 222.94,40.117C215.995,40.245 209.007,39.138 202.021,39.237C200.548,39.258 199.024,38.938 197.579,38.529C191.279,36.744 184.968,34.994 178.724,32.987C173.601,31.339 168.565,29.354 163.496,27.499C162.705,27.209 161.956,26.786 161.171,26.473C156.933,24.788 152.701,23.083 148.441,21.466C147.219,21.002 145.907,20.561 144.31,21.602M37.215,26.246C38.525,27.421 38.741,27.755 39.02,27.846C44.617,29.67 49.976,32.347 55.741,33.579C56.878,33.822 58.021,34.216 59.077,34.743C65.012,37.703 70.976,40.603 76.824,43.758C83.449,47.332 90.3,50.278 97.38,52.418C102.278,53.899 106.872,55.871 111.163,58.804C119.042,64.188 127.641,67.756 136.565,70.273C144.716,72.572 152.436,75.906 159.856,80.217C165.318,83.39 170.835,86.453 176.363,89.489C177.313,90.012 178.438,90.155 179.631,90.519C179.027,86.104 177.934,83.719 175.155,80.84C170.315,75.825 165.552,70.7 159.238,67.735C158.175,67.236 157.266,66.356 156.238,65.748C148.871,61.386 141.995,56.191 135.053,51.115C127.699,45.738 119.562,42.647 110.99,40.771C107.721,40.055 104.417,39.559 101.144,38.871C99.839,38.596 98.548,38.154 97.298,37.647C93.85,36.249 90.399,34.849 86.999,33.318C81.312,30.756 75.451,29.761 69.382,30.226C64.388,30.609 59.418,30.163 54.465,29.197C50.031,28.334 45.592,27.501 41.151,26.683C40.216,26.511 39.265,26.468 37.215,26.246M255.935,99.324C255.132,99.803 254.588,99.929 254.383,100.284C253.44,101.921 252.503,103.574 251.725,105.307C249.24,110.839 247.358,116.646 245.367,122.402C243.37,128.175 240.965,133.827 239.512,139.769C236.064,153.869 230.155,166.766 224.211,179.683C222.257,183.929 220.51,188.289 218.659,192.592C217.016,196.415 215.348,200.225 213.716,204.053C212.765,206.284 211.759,208.497 210.962,210.795C209.474,215.084 207.982,219.351 205.854,223.334C203.984,226.836 202.38,230.506 200.502,234.002C198.624,237.496 196.882,241.167 194.484,244.221C191.167,248.445 189.144,253.447 186.457,258.039C186.087,258.672 185.461,259.546 186.607,260.378C187.126,259.998 187.744,259.693 188.18,259.203C191.895,255.03 196.266,251.607 199.696,247.07C204.733,240.406 210.546,234.412 214.268,226.654C215.012,225.103 215.98,223.637 217.047,222.322C220.172,218.468 222.924,214.324 225.212,209.863C228.758,202.949 232.192,195.966 235.518,188.924C237.513,184.7 239.099,180.248 241.078,176.014C242.693,172.555 244.165,169.082 245.286,165.369C246.849,160.193 248.657,155.109 249.835,149.794C250.557,146.538 251.308,143.289 251.997,140.024C252.359,138.306 252.606,136.557 252.921,134.826C253.549,131.367 254.472,127.947 254.763,124.447C255.348,117.409 255.601,110.329 255.964,103.264C256.025,102.086 255.95,100.895 255.935,99.324M250.891,99.185C249.86,99.255 249.453,99.147 249.256,99.316C245.677,102.391 242.188,105.52 239.641,109.736C236.796,114.443 233.585,118.89 230.675,123.553C224.828,132.923 219.768,142.749 216.639,153.627C214.945,159.515 213.525,165.508 210.774,170.965C210.233,172.037 209.988,173.28 209.535,174.409C206.682,181.523 204.314,188.817 202.51,196.348C201.943,198.718 200.801,200.913 199.946,203.199C198.787,206.299 197.273,209.308 196.593,212.539C195.491,217.768 193.376,222.509 191.552,227.401C190.942,229.033 190.196,230.619 189.738,232.302C187.746,239.616 184.083,246.133 181.512,253.173C180.564,255.768 178.947,258.06 177.729,260.545C175.978,264.119 174.289,267.729 172.639,271.36C172.41,271.864 171.833,272.528 172.559,273.205C172.719,273.173 172.947,273.201 173.013,273.102C177.112,266.988 181.364,260.982 185.228,254.697C187.924,250.315 189.882,245.408 193.422,241.628C193.987,241.025 194.338,240.178 194.737,239.414C197.459,234.205 200.245,229.034 202.852,223.758C204.614,220.191 206.151,216.491 207.725,212.818C209.708,208.191 211.625,203.529 213.574,198.884C214.113,197.601 214.765,196.365 215.197,195.04C217.917,186.699 221.735,178.92 225.445,171.09C229.16,163.252 232.599,155.286 235.052,146.858C238.871,133.737 242.887,120.697 247.651,107.95C248.679,105.202 249.687,102.445 250.891,99.185M414.973,208.905C417.385,205.06 418.659,201.383 418.854,197.267C419.023,193.726 419.169,190.181 419.235,186.634C419.383,178.8 418.949,171.009 416.947,163.345C416.68,162.324 416.574,161.259 416.39,160.215C415.437,154.788 414.472,149.363 413.533,143.935C412.957,140.601 412.46,137.253 411.85,133.926C411.467,131.835 411.145,129.693 410.444,127.706C407.536,119.453 405.614,110.964 404.033,102.367C402.972,96.596 401.698,90.863 400.542,85.108C399.736,81.097 399.03,77.065 398.165,73.067C397.149,68.371 396.071,63.685 394.901,59.026C393.995,55.412 392.902,51.847 391.9,48.258C391.47,46.717 391.062,45.169 390.645,43.625C389.812,40.539 388.922,37.468 388.161,34.365C387.23,30.566 386.41,26.739 385.525,22.929C385.505,22.843 385.284,22.804 384.867,22.605C384.293,24.431 384.238,26.283 384.178,28.179C384.038,32.603 383.887,37.034 383.512,41.433C383.004,47.408 382.55,53.314 382.894,59.407C383.346,67.411 384.698,75.303 385.244,83.275C385.837,91.919 388.893,99.963 391.467,108.07C393.671,115.009 395.92,121.929 397.829,128.96C398.574,131.701 399.449,134.431 399.907,137.222C400.834,142.877 402.603,148.263 404.362,153.673C404.935,155.436 405.692,156.96 407.182,157.988C408.854,159.141 409.753,160.887 410.183,162.816C411.724,169.739 413.866,176.568 413.077,183.833C412.698,187.329 412.673,190.911 412.826,194.448C413.002,198.518 413.526,202.584 413.967,206.645C414.031,207.242 414.469,207.804 414.973,208.905M388.024,17.306C387.993,17.965 387.903,18.63 387.941,19.29C388.394,27.15 390.344,34.722 392.425,42.268C393.133,44.836 393.847,47.404 394.554,49.973C395.355,52.884 396.147,55.797 396.951,58.706C397.376,60.248 397.904,61.766 398.239,63.326C400.928,75.842 403.823,88.311 406.079,100.924C407.173,107.036 408.771,113.091 410.544,119.046C412.879,126.891 415.402,134.638 415.913,142.914C416.074,145.529 417.174,148.09 417.627,150.713C418.504,155.79 419.033,160.934 420.065,165.976C421.141,171.234 421.962,176.461 421.758,181.824C421.715,182.969 422.071,184.145 422.269,185.482C422.775,185.063 423.201,184.894 423.235,184.652C423.725,181.167 424.342,177.69 424.569,174.175C424.865,169.591 424.803,164.972 424.967,160.374C425.225,153.126 426.287,145.953 426.163,138.667C426.124,136.366 426.325,134.069 426.299,131.767C426.263,128.751 426.176,125.73 425.988,122.717C425.855,120.601 425.628,118.474 425.251,116.387C424.146,110.256 423.066,104.115 421.748,98.028C420.317,91.424 419.13,84.691 416.924,78.352C414.354,70.964 412.326,63.431 410.068,55.963C409.135,52.879 408.122,49.888 406.653,47.037C404.553,42.96 402.341,38.922 400.56,34.692C397.747,28.007 393.078,22.825 388.726,17.363C388.652,17.27 388.406,17.331 388.024,17.306M297.153,67.542C294.773,67.222 293.602,68.609 292.608,69.874C288.927,74.562 285.35,79.347 281.813,84.163C281.015,85.25 280.512,86.596 279.917,87.848C277.227,93.511 275.602,99.614 273.893,105.681C272.566,110.391 271.529,115.227 269.874,119.793C266.855,128.116 265.373,136.689 265.702,145.686C265.721,146.217 265.705,146.752 265.655,147.278C265.271,151.317 264.789,155.345 264.52,159.396C264.393,161.31 264.308,163.375 264.825,165.185C267.006,172.812 267.263,180.682 267.78,188.437C268.753,203.014 270.857,217.413 273.319,231.795C273.799,234.596 274.252,237.41 274.542,240.235C274.904,243.768 275.01,247.324 275.375,250.857C275.556,252.616 276.029,254.354 276.437,256.086C276.801,257.632 276.652,259.328 277.64,261.407C280.198,249.635 280.688,238.378 280.053,226.964C279.788,222.195 279.922,217.398 280.112,212.631C280.572,201.119 281.235,189.62 280.226,178.061C279.294,167.39 279.48,156.778 280.858,146.224C281.658,140.102 282.216,133.929 283.217,127.851C284.875,117.775 286.452,107.655 288.728,97.746C290.532,89.895 293.322,82.329 295.696,74.644C296.362,72.488 297.239,70.394 297.153,67.542M106.18,339.939C107,339.273 107.503,339.052 107.736,338.649C112.646,330.13 116.822,321.201 120.461,311.955C122.497,306.783 124.775,301.722 127.029,296.656C129.497,291.112 132.243,285.707 134.534,280.079C136.693,274.775 138.403,269.252 140.348,263.841C140.759,262.697 141.24,261.558 141.85,260.53C144.629,255.843 146.048,250.624 146.674,245.147C147.275,239.896 148.801,234.796 148.511,229.397C148.474,228.706 148.679,227.996 148.832,227.311C150.861,218.196 153.86,209.474 157.484,200.993C158.224,199.262 158.899,197.4 159.122,195.519C160.22,186.248 161.013,176.953 160.624,167.525C160.384,161.729 159.005,156.294 156.843,151.002C156.625,150.468 156.06,150.087 155.475,149.433C154.954,150.37 154.529,150.918 154.317,151.553C153.269,154.693 152.25,157.844 151.279,161.014C150.82,162.512 150.479,164.055 150.103,165.584C148.848,170.694 147.985,175.969 146.265,180.881C143.373,189.14 140.975,197.577 139.267,206.176C136.87,218.247 133.974,230.169 131.407,242.186C129.5,251.12 127.575,260.051 125.539,268.948C124.129,275.105 122.548,281.214 120.984,287.325C119.508,293.094 117.385,298.621 116.028,304.455C114.721,310.072 112.713,315.483 111.027,320.989C109.441,326.17 107.841,331.346 106.331,336.553C106.071,337.45 106.231,338.498 106.18,339.939M106.214,323.967C106.575,323.728 106.991,323.619 107.087,323.364C108.312,320.103 109.637,316.874 110.651,313.531C112.935,306.004 115.036,298.41 117.263,290.862C117.856,288.852 118.795,286.958 119.294,284.925C120.671,279.311 121.916,273.655 123.18,268.007C123.908,264.752 124.531,261.467 125.271,258.215C126.71,251.889 128.225,245.584 129.657,239.256C130.899,233.771 132.083,228.27 133.265,222.769C133.893,219.848 134.541,216.93 135.041,213.979C135.955,208.588 137.086,203.284 138.609,198.05C140.663,190.993 142.279,183.781 144.727,176.86C145.073,175.879 145.211,174.811 145.474,173.792C147.052,167.681 147.901,161.341 150.173,155.447C150.607,154.322 150.787,153.067 150.988,151.851C151.171,150.743 152.185,149.687 151.098,148.224C149.914,148.906 148.714,149.459 147.666,150.239C146.595,151.037 145.659,152.04 144.69,152.985C142.874,154.758 141.234,156.783 139.242,158.291C134.625,161.784 131.949,166.843 129.691,172.079C125.97,180.71 123.535,189.9 121.247,199.099C119.645,205.544 118.067,211.977 117.629,218.777C117.302,223.84 115.663,228.766 114.613,233.755C113.165,240.634 111.693,247.506 110.3,254.399C110.059,255.588 110.153,256.865 110.101,258.102C110.013,260.218 110.025,262.347 109.832,264.448C108.937,274.137 107.984,283.82 107.06,293.505C106.942,294.738 106.742,295.981 106.804,297.213C107.18,304.708 106.541,312.099 105.59,319.472C105.4,320.947 105.095,322.582 106.214,323.967M20.404,24.69C22.453,26.741 24.004,28.059 25.287,29.625C29.021,34.181 33.837,37.112 38.572,40.171C44.18,43.795 49.771,47.451 55.442,50.955C59.512,53.47 63.541,56.215 67.87,58.058C78.333,62.515 88.204,68.312 98.355,73.468C102.596,75.623 106.777,77.922 110.959,80.211C113.647,81.682 116.394,83.075 118.923,84.828C122.678,87.429 126.718,88.906 131.046,89.73C136.3,90.731 141.53,91.906 146.771,92.995C151.029,93.879 155.274,94.876 159.553,95.58C163.173,96.176 166.832,96.582 170.48,96.777C173.285,96.926 176.104,96.663 178.907,96.472C179.447,96.435 179.944,95.886 180.486,95.558C179.999,93.86 178.84,93.512 177.819,92.947C172.152,89.817 166.378,86.885 160.872,83.448C155.322,79.985 149.371,77.579 143.591,74.724C142.691,74.28 141.674,74.073 140.693,73.876C134.753,72.683 129.058,70.53 123.502,68.021C119.038,66.005 114.521,64.06 110.513,60.941C107.094,58.28 103.251,56.478 99.154,55.31C96.574,54.575 93.977,53.757 91.533,52.606C82.479,48.341 73.468,43.962 64.477,39.54C60.954,37.808 57.363,36.439 53.62,35.378C48.618,33.959 43.552,32.539 38.801,30.364C33.663,28.012 28.252,26.869 23.052,24.878C22.503,24.668 21.854,24.78 20.404,24.69M314.797,254.556C315.106,254.732 315.416,254.909 315.726,255.085C316.57,253.635 317.476,252.222 318.245,250.726C319.191,248.884 320.303,247.069 320.853,245.075C322.577,238.827 324.452,232.588 325.563,226.185C327.254,216.436 329.51,206.888 332.252,197.464C332.643,196.121 333.02,194.752 333.203,193.36C334.311,184.977 336.603,176.788 336.199,168.153C336.158,167.276 336.291,166.378 336.453,165.516C338.702,153.502 338.804,141.22 339.145,129.009C339.431,118.777 341.135,108.962 343.959,99.35C345.452,94.273 346.402,89.092 346.768,83.784C347.267,76.547 347.708,69.3 347.962,62.041C348.184,55.668 348.146,49.276 348.137,42.889C348.136,41.964 348.289,40.695 346.678,40.225C346.245,40.782 345.639,41.354 345.272,42.071C343.358,45.802 342.256,49.836 341.636,54.068C341.228,56.851 340.652,59.605 340.061,62.347C337.616,73.679 334.405,84.815 333.46,96.53C333.219,99.519 332.819,102.554 331.999,105.394C330.024,112.235 330.062,119.374 329.775,126.409C329.592,130.908 329.078,135.208 327.799,139.406C326.782,142.745 325.168,145.861 324.84,149.457C324.794,149.956 324.466,150.427 324.233,150.89C322.603,154.136 321.164,157.52 319.28,160.585C316.474,165.153 315.471,170.201 315.041,175.578C314.215,185.902 315.754,196.145 316.738,206.382C317.251,211.718 317.737,216.994 317.329,222.309C316.503,233.06 315.643,243.807 314.797,254.556M326.809,234.966C329.654,229.503 332.799,224.197 335.276,218.541C339.384,209.161 343.467,199.739 346.061,189.66C346.451,188.142 347.019,186.675 347.575,185.216C349.186,180.983 350.823,176.762 352.469,172.546C354.241,168.007 355.673,163.259 357.889,158.99C363.342,148.483 365.414,136.921 366.993,125.179C367.508,121.347 367.566,117.431 367.81,113.551C368.021,110.202 368.499,106.842 368.336,103.501C367.808,92.677 367.512,81.844 365.746,71.073C365.169,67.555 364.624,64.052 363.694,60.622C362.199,55.102 360.146,49.818 357.157,44.964C355.764,42.702 354.144,40.744 351.485,39.61C350.219,42.551 350.582,45.364 350.562,48.149C350.525,53.644 350.409,59.14 350.186,64.625C349.949,70.469 349.525,76.299 349.232,82.138C348.946,87.829 347.995,93.376 346.598,98.828C345.684,102.394 344.628,105.915 343.739,109.488C342.295,115.299 341.522,121.232 341.375,127.29C341.255,132.251 340.96,137.202 340.73,142.156C340.632,144.28 340.511,146.401 340.384,148.521C340.172,152.052 340.014,155.591 339.709,159.11C339.343,163.339 338.542,167.536 338.472,171.773C338.33,180.362 336.532,188.614 334.93,196.884C333.694,203.26 331.656,209.433 330.077,215.728C328.507,221.988 327.51,228.394 326.809,234.966M280.771,271.605C281.28,270.954 282.052,270.388 282.248,269.636C282.822,267.438 283.383,265.191 283.56,262.917C284.233,254.24 286.18,245.831 287.477,237.288C288.986,227.345 290.764,217.461 291.255,207.339C291.513,202.025 292.185,196.783 293.51,191.641C294.735,186.892 295.961,182.083 296.528,177.194C297.831,165.961 300.206,154.938 301.172,143.637C301.624,138.35 302.227,133.106 302.194,127.759C302.165,122.979 302.354,118.182 302.797,113.44C303.323,107.816 304.24,102.245 304.949,96.644C305.103,95.424 305.204,94.172 305.144,92.94C304.866,87.275 304.582,81.609 304.173,75.95C304.007,73.658 303.582,71.371 303.139,69.107C302.966,68.22 302.349,67.531 301.098,67.879C300.783,68.504 300.318,69.228 300.034,70.03C299.161,72.497 298.4,75.014 297.518,77.478C293.456,88.827 290.269,100.45 288.106,112.446C286.074,123.716 284.183,135.011 283.151,146.461C282.501,153.673 282.315,160.947 281.947,168.195C281.902,169.075 281.965,169.975 282.068,170.856C283.45,182.735 283.676,194.603 282.889,206.477C282.35,214.601 282.094,222.714 282.66,230.921C283.097,237.268 282.81,243.711 282.222,250.026C281.814,254.413 281.211,258.778 281.049,263.201C280.945,266.029 280.875,268.86 280.815,271.711C280.899,271.983 280.983,272.256 281.067,272.528C280.969,272.22 280.87,271.913 280.771,271.605M-34.718,66.567C-34.938,66.635 -35.157,66.704 -35.376,66.772C-35.377,66.769 -35.378,66.765 -35.379,66.762C-35.124,66.681 -34.869,66.601 -34.614,66.52C-34.337,68.272 -33.008,68.655 -31.716,69.088C-25.737,71.092 -20.204,74.302 -15.254,78.25C-9.613,82.747 -4.419,87.893 1.44,92.142C7.868,96.805 14.716,100.608 21.698,104.103C27.468,106.992 33.409,109.49 39.336,111.982C41.578,112.924 43.521,114.181 45.26,115.94C49.947,120.679 55.337,124.264 61.018,127.469C64.555,129.465 68.183,130.464 72.055,130.587C76.516,130.728 80.847,129.811 85.926,129.219C84.725,127.967 84.117,127.104 83.326,126.546C78.007,122.794 73.649,117.55 67.671,114.813C66.913,114.467 66.258,113.844 65.561,113.339C59.852,109.2 54.206,104.953 48.407,100.968C45.885,99.235 43.088,97.94 40.348,96.617C33.007,93.073 25.444,90.012 18.322,86.014C12.286,82.625 5.975,80.509 -0.47,78.653C-5.952,77.073 -11.621,76.335 -16.956,74.086C-22.877,71.59 -28.785,69.058 -34.718,66.567M471.627,-110.416C470.578,-109.604 469.327,-108.977 468.513,-107.95C463.121,-101.154 457.813,-94.28 452.513,-87.399C452.172,-86.956 451.591,-86.309 452.552,-85.449C453.362,-86.217 454.293,-86.907 455.001,-87.802C458.8,-92.602 462.646,-97.366 466.263,-102.323C468.157,-104.918 470.525,-107.208 471.516,-110.497C474.159,-112.157 475.473,-115.108 477.388,-117.471C478.566,-118.924 479.606,-120.509 480.65,-122.08C481.629,-123.553 482.969,-124.785 483.837,-127.157C482.889,-126.5 482.448,-126.285 482.115,-125.95C478.026,-121.835 475.117,-116.708 471.781,-111.948C471.534,-111.596 471.669,-110.934 471.627,-110.416M99.603,153.103C104.442,150.547 109.18,147.81 113.544,144.416C113.696,144.297 113.59,143.805 113.614,143.258C111.549,142.812 109.721,143.362 108.142,144.684C105.569,146.839 103.045,149.063 100.567,151.339C100.117,151.752 99.982,152.553 99.691,153.168C99.54,153.18 99.378,153.161 99.241,153.214C99.132,153.257 99.053,153.385 98.961,153.475C99.175,153.351 99.389,153.227 99.603,153.103M192.823,103.315C183.125,106.528 176.142,111.092 172.649,116.501C172.934,116.421 173.279,116.424 173.494,116.247C178.406,112.222 183.605,108.705 189.269,105.94C190.547,105.316 191.586,104.158 192.744,103.254C193.037,103.234 193.351,103.271 193.617,103.171C193.77,103.113 193.846,102.834 193.957,102.654C193.815,102.691 193.654,102.695 193.535,102.771C193.286,102.932 193.059,103.132 192.823,103.315M-42.344,60.734C-41.813,61.157 -41.282,61.581 -40.751,62.004C-40.661,61.781 -40.571,61.559 -40.481,61.336L-42.412,60.849C-45.095,58.974 -47.905,57.459 -51.136,57.135C-51.695,56.82 -52.065,55.824 -53.28,56.736C-52.309,56.862 -51.689,56.943 -51.068,57.024C-48.815,60.126 -45.832,61.148 -42.344,60.734M76.937,231.659C77.193,234.575 76.487,237.28 75.468,239.89C72.346,247.882 68.442,255.328 63.09,261.89C56.843,269.548 51.059,277.646 44.669,285.158C40.732,289.788 36.502,294.153 31.532,297.74C24.336,302.936 17.659,308.926 10.601,314.345C3.962,319.444 -2.22,325.323 -9.729,329.008C-13.919,331.065 -18.115,333.056 -22.028,335.649C-23.98,336.942 -25.852,338.375 -27.839,339.603C-29.54,340.654 -31.307,341.623 -33.143,342.372C-33.74,342.615 -34.752,342.235 -35.381,341.806C-36.099,341.319 -35.845,339.854 -34.799,339.111C-30.475,336.04 -27.293,331.767 -24.287,327.409C-19.73,320.803 -14.788,314.464 -11.421,306.96C-10.362,304.6 -8.922,302.429 -7.548,300.251C-4.527,295.462 -2.094,290.253 1.474,285.849C4.366,282.279 7.085,278.547 9.888,274.893C10.511,274.08 11.28,273.37 11.781,272.479C14.661,267.363 18.185,262.746 21.363,257.869C26.885,249.393 31.85,240.497 37.127,231.834C41.065,225.368 45.123,218.988 49.135,212.576C49.956,211.264 50.978,210.068 51.622,208.663C54.447,202.498 59.03,198.003 63.908,193.841C66.176,191.905 67.724,189.621 68.756,186.747C69.636,184.296 70.846,181.989 71.863,179.595C72.128,178.971 72.22,178.261 72.378,177.646C71.147,176.003 69.494,176.378 68.11,176.405C61.141,176.538 54.178,176.823 47.216,177.118C40.043,177.422 34.314,181.132 29.104,185.833C27.767,187.038 26.944,188.88 25.857,190.405C24.474,192.345 23.194,194.395 21.631,196.155C19.491,198.565 16.954,200.583 14.898,203.065C11.538,207.121 7.289,209.721 2.749,211.838C-0.103,213.167 -3.159,214.017 -6.104,215.139C-10.604,216.853 -15.022,218.828 -19.594,220.307C-25.902,222.347 -32.081,224.862 -38.627,226.093C-39.44,226.246 -40.285,226.394 -41.022,226.751C-45.742,229.039 -50.872,229.671 -55.928,230.548C-66.061,232.304 -76.217,233.932 -86.361,235.625C-92.803,236.701 -98.933,238.645 -104.327,242.612C-104.73,242.908 -105.168,243.242 -105.633,243.332C-106.242,243.449 -107.051,243.579 -107.478,243.254C-107.827,242.988 -107.918,242.019 -107.812,241.436C-107.625,240.414 -107.199,239.449 -106.787,238.199C-98.122,231.992 -89.468,225.368 -80.116,219.862C-79.828,219.693 -79.54,219.515 -79.284,219.3C-73.073,214.082 -66.205,209.929 -59.418,205.644C-58.854,205.288 -58.336,204.836 -57.745,204.539C-47.335,199.303 -37.149,193.522 -25.97,190.129C-21.804,188.865 -18.037,186.705 -14.232,184.631C-13.541,184.254 -12.648,183.62 -12.503,182.929C-12.029,180.67 -10.503,179.96 -8.742,179.244C-6.92,178.503 -5.212,177.464 -3.418,176.537C-5.228,174.185 -6.89,173.286 -9.311,173.318C-9.972,173.326 -10.633,173.443 -11.287,173.557C-17.212,174.587 -23.231,174.185 -29.202,174.071C-32.469,174.009 -35.83,173.113 -38.999,172.042C-43.324,170.581 -47.632,169.169 -52.103,168.411C-56.64,167.641 -60.753,165.762 -64.516,162.826C-69.004,159.324 -73.846,156.299 -78.082,152.488C-83.617,147.51 -88.545,141.76 -94.036,136.721C-99.592,131.621 -102.858,124.96 -106.013,118.277C-108.293,113.447 -111.002,108.932 -113.548,104.289C-115.579,100.588 -117.348,96.725 -119.127,92.88C-119.31,92.487 -118.868,91.625 -118.503,91.181C-118.354,91 -117.48,91.188 -117.208,91.488C-115.106,93.805 -113.081,96.201 -111.012,98.553C-109.036,100.8 -106.823,102.707 -104.26,104.16C-101.585,105.676 -99.035,107.471 -96.306,108.849C-89.863,112.101 -84.532,117.154 -78.636,121.286C-72.751,125.413 -66.346,127.79 -59.399,128.532C-50.975,129.431 -43.144,132.286 -35.859,137.187C-30.987,140.465 -26.617,144.401 -22.123,148.189C-20.799,149.304 -19.551,150.535 -18.164,151.548C-14.247,154.407 -11.775,158.372 -10.045,162.964C-9.49,164.437 -8.823,165.866 -8.168,167.406C-2.359,169.035 3.285,170.655 8.947,172.191C13.553,173.44 18.072,173.335 22.754,172.427C29.582,171.104 36.582,170.687 43.582,171.583C50.599,172.482 57.515,172.471 64.375,170.76C67.427,169.999 70.564,169.568 73.679,169.087C75.874,168.748 77.652,167.791 79.379,166.28C87.112,159.517 94.99,152.94 102.769,146.236C104.129,145.064 105.827,144.116 106.328,141.628C105.689,141.042 105.019,140.278 104.224,139.728C102.245,138.359 100.208,137.089 98.195,135.777C96.291,134.535 94.266,133.824 92.035,133.694C90.38,133.597 88.712,133.353 87.087,132.969C84.592,132.38 82.173,132.436 79.669,132.832C75.237,133.535 70.769,133.783 66.278,132.62C62.31,131.592 58.761,129.541 55.259,127.404C51.174,124.911 47.117,122.347 43.913,118.513C42.317,116.603 40.336,115.306 38.097,114.351C32.175,111.823 26.177,109.452 20.433,106.497C13.933,103.153 7.675,99.245 1.316,95.573C-4.812,92.035 -9.755,86.807 -15.147,82.215C-20.334,77.799 -26.149,74.567 -32.357,72.28C-41.797,68.802 -50.678,64.285 -58.325,57.179C-60.74,54.935 -63.303,52.875 -65.728,50.642C-66.147,50.257 -66.512,49.327 -66.375,48.827C-66.095,47.801 -65.137,47.805 -64.304,48.129C-61.153,49.349 -57.995,50.553 -54.882,51.884C-50.385,53.806 -45.927,55.841 -41.448,57.813C-38.441,59.136 -35.29,59.429 -32.116,59.461C-29.954,59.482 -27.794,59.358 -25.632,59.401C-22.055,59.473 -18.804,60.44 -15.863,62.978C-12.273,66.076 -8.232,67.863 -3.485,68.28C0.779,68.654 4.979,70.202 9.215,71.188C11.819,71.795 14.438,72.32 17.051,72.877C17.378,72.946 17.722,72.944 18.038,73.049C26.043,75.685 34.443,76.519 42.336,79.535C46.884,81.273 51.197,83.801 55.542,86.138C57.934,87.425 60.195,89.012 62.471,90.54C64.033,91.59 65.572,92.698 67.029,93.907C70.349,96.662 73.761,99.249 77.243,101.774C82.085,105.282 87.012,108.893 90.034,114.587C90.61,115.672 91.374,116.66 92.132,117.623C94.463,120.586 96.171,123.816 96.396,127.735C96.519,129.886 97.399,131.391 99.405,132.224C101.588,133.13 103.694,134.264 105.832,135.302C106.588,135.67 107.485,135.878 108.069,136.449C112.184,140.475 116.682,139.581 121.183,138.032C124.003,137.062 126.699,135.704 129.523,134.746C135.963,132.559 142.452,130.526 148.911,128.4C151.276,127.621 153.593,126.683 155.969,125.944C160.914,124.405 164.529,120.958 167.863,117.018C173.194,110.718 179.388,105.654 186.87,102.481C187.446,102.237 187.952,101.815 188.402,101.532C188.421,100.092 187.519,99.762 186.756,99.667C184.949,99.442 183.093,99.164 181.313,99.363C170.615,100.558 160.113,98.833 149.615,96.416C142.587,94.799 135.513,93.433 128.443,92.076C124.936,91.403 121.828,90.076 118.745,87.957C114.665,85.153 110.118,83.139 105.76,80.811C98.395,76.877 91.052,72.891 83.642,69.063C78.346,66.327 72.884,63.97 67.626,61.156C62.38,58.349 57.26,55.25 52.149,52.153C48.2,49.759 44.491,46.848 40.421,44.757C35.823,42.394 31.911,38.965 27.607,36.165C26.761,35.614 26.012,34.828 25.341,34.033C20.858,28.723 15.303,25.062 9.453,21.812C7.677,20.825 5.992,19.618 4.34,18.394C2.406,16.961 0.52,15.444 -1.315,13.866C-1.948,13.323 -2.575,12.416 -1.867,11.587C-1.536,11.198 -0.659,11.026 -0.14,11.191C2.428,12.003 4.971,12.919 7.499,13.876C12.396,15.731 17.239,17.775 22.178,19.474C25.195,20.511 28.333,21.157 31.445,21.799C39.81,23.525 48.171,25.306 56.573,26.761C61.504,27.616 66.498,28.016 71.499,27.619C75.49,27.302 79.407,27.655 83.258,29.349C87.914,31.395 92.668,33.184 97.424,34.937C99.46,35.687 101.6,36.112 103.708,36.603C109.735,38.008 115.768,39.191 121.687,41.345C128.481,43.819 134.59,47.507 140.255,51.996C148.002,58.134 156.478,62.897 164.641,68.252C166.345,69.371 167.941,70.715 169.477,72.095C171.152,73.601 172.606,75.396 174.319,76.841C178.566,80.422 181.347,85.072 183.201,90.34C184.063,92.79 185.406,94.115 187.772,94.748C190.359,95.44 192.834,96.651 195.407,97.439C196.47,97.764 197.791,97.938 198.769,97.559C204.343,95.398 209.912,93.2 215.355,90.712C219.129,88.987 222.614,86.583 226.373,84.819C233.177,81.626 239.362,77.311 245.832,73.512C249.412,71.41 253.316,69.918 257.067,68.134C259.314,67.065 261.552,65.976 263.783,64.871C264.378,64.577 264.895,64.079 265.51,63.865C272.922,61.297 279.506,56.877 286.617,53.642C288.731,52.68 290.921,51.896 293.079,51.039C300.052,48.271 306.701,44.848 312.77,40.274C313.568,39.673 314.266,38.917 314.963,38.182C315.174,37.96 315.227,37.568 315.352,37.254C312.883,36.444 310.661,36.263 308.299,37.022C304.172,38.348 299.957,39.072 295.654,39.588C292.557,39.959 289.519,40.989 286.539,41.99C281.198,43.783 275.94,45.839 270.609,47.668C263.363,50.155 255.868,51.621 248.323,52.773C237.5,54.425 226.655,55.98 215.673,56.317C201.602,56.749 188.165,53.687 175.585,46.399C168.487,42.287 161.404,38.126 154.474,33.695C150.442,31.116 146.647,28.069 142.893,25.021C140.464,23.05 138.03,21.178 135.259,19.804C134.4,19.378 133.643,18.597 132.98,17.84C132.471,17.259 133.177,15.765 133.902,15.787C134.556,15.807 135.212,15.942 135.864,16.052C145.749,17.732 155.635,19.402 165.517,21.101C175.424,22.805 185.409,23.444 195.369,24.213C203.653,24.852 211.966,25.843 220.277,24.834C222.884,24.517 225.591,24.973 228.252,25.045C230.078,25.094 231.949,25.357 233.722,25.067C240.959,23.88 248.296,24.127 255.589,23.749C261.222,23.457 266.846,23.023 272.472,22.635C273.299,22.577 274.124,22.275 274.94,22.335C283.728,22.982 292.634,22.683 301.156,25.828C304.777,27.165 308.241,29.111 311.636,31.068C313.179,31.957 314.614,32.527 316.337,32.557C317.971,32.586 319.608,32.911 321.675,33.157C323.381,32.549 324.673,30.668 326.272,29.194C331.6,24.28 336.411,18.721 342.327,14.534C344.104,13.277 345.848,11.965 347.662,10.769C352.691,7.453 357.759,4.203 362.791,0.893C370.611,-4.251 378.449,-9.383 385.351,-15.891C387.929,-18.321 390.303,-20.999 392.714,-23.621C393.117,-24.059 393.234,-24.797 393.528,-25.505C391.776,-26.604 390.435,-25.832 389.166,-25.128C386.691,-23.754 384.199,-22.389 381.844,-20.805C377.13,-17.636 372.005,-15.18 367.599,-11.46C365.685,-9.845 363.451,-8.635 361.291,-7.376C357.973,-5.442 354.703,-3.359 351.219,-1.809C341.469,2.529 331.422,5.834 320.849,7.541C313.605,8.71 306.346,9.091 299.034,9.28C295.714,9.365 292.408,9.732 289.091,9.913C286.938,10.03 284.77,10.23 282.621,10.07C274.994,9.502 267.316,9.889 259.755,8.048C259.103,7.888 258.431,7.823 257.789,7.626C249.644,5.119 241.333,4.873 233.009,4.815C232.677,4.813 232.345,4.847 232.013,4.837C231.095,4.809 230.33,4.385 230.116,3.414C229.889,2.381 230.502,1.772 231.4,1.553C232.528,1.28 233.659,0.967 234.809,0.844C244.528,-0.195 253.399,-3.926 262.142,-8.106C270.096,-11.909 278.13,-15.532 286.047,-19.419C292.52,-22.596 299.373,-23.201 306.424,-22.978C308.068,-22.927 309.757,-23.018 311.348,-23.385C323.631,-26.218 335.901,-29.085 347.999,-32.695C352.419,-34.014 357.101,-34.44 361.68,-35.178C363.968,-35.548 366.286,-35.761 368.6,-35.947C375.453,-36.495 382.188,-35.499 388.864,-33.584C390.128,-33.221 391.514,-33.099 392.806,-33.218C395.28,-33.446 397.723,-33.955 400.186,-34.295C403.075,-34.693 405.276,-36.062 407.383,-38.311C412.243,-43.499 417.492,-48.271 422.584,-53.211C422.827,-53.447 423.074,-53.678 423.307,-53.925C427.848,-58.725 432.413,-63.5 436.912,-68.346C438.279,-69.818 439.661,-71.338 440.247,-73.364C439.656,-74.603 438.714,-74.319 438.041,-74.014C436.24,-73.199 434.308,-72.478 432.805,-71.215C428.62,-67.696 424.176,-64.975 418.817,-63.803C415.438,-63.063 412.166,-61.698 408.962,-60.322C404.121,-58.243 399.078,-57.697 393.876,-57.671C388.232,-57.644 382.597,-57.319 376.955,-57.205C375.647,-57.178 374.303,-57.362 373.011,-57.653C369.906,-58.355 366.841,-59.313 363.722,-59.899C361.951,-60.232 360.063,-60.302 358.305,-60.022C353.727,-59.293 349.126,-58.591 344.737,-56.992C340.949,-55.612 337.062,-55.321 333.024,-55.238C323.837,-55.049 314.77,-56.35 305.671,-57.548C303.035,-57.895 300.356,-57.796 297.698,-57.824C296.706,-57.834 295.722,-57.557 294.728,-57.528C293.724,-57.498 292.706,-57.603 292.245,-58.853C291.914,-59.749 292.451,-60.504 293.748,-61.118C295.968,-62.171 298.14,-63.337 300.389,-64.316C302.519,-65.244 304.699,-66.067 306.899,-66.802C309.096,-67.535 311.313,-68.281 313.58,-68.707C318.806,-69.687 323.974,-70.761 328.91,-72.893C336.731,-76.269 344.889,-76.956 353.352,-75.503C358.543,-74.612 363.623,-75.651 368.528,-77.324C372.918,-78.824 377.225,-80.58 381.611,-82.092C387.604,-84.158 393.705,-85.404 400.157,-84.643C407.613,-83.764 415.094,-83.215 422.559,-82.44C426.392,-82.042 430.122,-81.16 433.523,-78.951C436.61,-76.947 439.916,-77.293 443.419,-77.749C444.769,-79.876 446.088,-82.068 447.514,-84.177C450.108,-88.011 452.736,-91.82 455.411,-95.588C456.297,-96.837 457.34,-97.965 458.37,-99.085C460.317,-101.203 462.112,-103.428 463.337,-105.912C462.728,-107.287 461.853,-107.157 461.075,-106.974C458.659,-106.406 456.288,-105.368 453.849,-105.246C451.414,-105.124 448.911,-106.174 446.448,-106.198C441.97,-106.242 437.482,-106.076 433.029,-105.691C424.902,-104.988 417.112,-106.095 409.735,-110.334C405.57,-112.728 401.109,-114.283 396.633,-115.837C392.822,-117.16 389.118,-118.888 385.409,-120.551C382.318,-121.937 379.286,-123.485 376.23,-124.969C375.161,-125.488 374.023,-125.899 373.05,-126.582C368.268,-129.942 363.546,-133.403 358.772,-136.777C355.546,-139.057 352.318,-141.346 348.987,-143.438C347.717,-144.236 346.174,-144.555 344.73,-144.983C343.119,-145.461 341.453,-145.718 339.861,-146.254C338.813,-146.607 338.202,-147.465 338.731,-149.003C339.84,-149.228 341.084,-149.742 342.323,-149.692C350.043,-149.379 357.547,-150.708 365.043,-152.178C373.074,-153.751 381.133,-154.251 389.336,-152.688C393.434,-151.906 397.613,-151.483 401.76,-151.302C406.689,-151.087 411.278,-149.446 415.843,-147.689C417.538,-147.036 419.144,-145.863 420.569,-144.633C427.111,-138.987 433.597,-133.266 440.056,-127.51C443.198,-124.71 445.912,-121.529 447.136,-117.222C447.232,-116.886 447.41,-116.565 447.589,-116.263C451.203,-110.178 452.139,-108.514 459.259,-110.109C461.684,-110.653 464.123,-111.137 466.563,-111.612C467.936,-111.879 468.967,-112.608 469.799,-113.793C471.078,-115.614 472.433,-117.373 473.78,-119.137C476.268,-122.391 478.774,-125.63 481.269,-128.878C481.89,-129.686 482.562,-130.461 483.089,-131.336C483.427,-131.898 483.544,-132.614 483.775,-133.306C482.066,-135.016 479.991,-134.935 478.051,-135.224C473.759,-135.863 469.336,-135.892 465.185,-137.11C457.304,-139.421 449.296,-141.518 442.18,-146.291C440.051,-147.719 437.646,-148.67 435.535,-150.123C432.576,-152.159 429.605,-154.251 426.945,-156.7C423.51,-159.866 420.245,-163.278 417.153,-166.827C414.461,-169.917 411.364,-172.306 407.983,-174.356C406.938,-174.989 405.902,-175.624 405.827,-177.092C405.775,-178.122 406.869,-178.907 408.906,-179.098C410.719,-179.269 412.561,-179.427 414.375,-179.275C419.19,-178.872 424.025,-178.53 428.801,-177.735C434.761,-176.742 440.506,-174.767 445.89,-171.65C447.22,-170.88 448.591,-170.192 449.92,-169.419C453.926,-167.091 457.661,-164.387 460.906,-160.881C464.459,-157.044 468.348,-153.558 471.451,-149.26C473.197,-146.843 474.918,-144.405 476.637,-141.967C479.139,-138.418 482.893,-138.005 486.497,-137.424C487.259,-137.302 488.34,-138.142 488.955,-138.855C491.725,-142.07 494.382,-145.397 497.077,-148.686C497.831,-149.605 498.533,-150.576 499.334,-151.445C501.097,-153.358 501.662,-155.589 500.81,-158.355C503.627,-161.49 506.265,-164.788 508.07,-168.791C508.76,-170.321 509.978,-171.566 510.812,-172.74C512.561,-172.663 513.079,-171.758 512.744,-170.578C511.741,-167.048 510.89,-163.414 509.446,-160.097C506.816,-154.059 504.1,-148.02 499.652,-143.181C499.233,-142.725 499.077,-141.993 498.72,-141.217C500.467,-139.135 502.491,-138.107 504.934,-138.027C507.097,-137.956 509.262,-137.854 511.421,-137.896C523.268,-138.125 533.526,-133.078 543.241,-126.204C543.657,-125.91 544.032,-125.528 544.376,-125.137C547.624,-121.446 551.052,-118.008 555.282,-115.592C555.731,-115.336 556.176,-114.398 556.092,-113.892C556.001,-113.347 555.352,-112.663 554.827,-112.531C553.884,-112.294 552.851,-112.44 551.857,-112.401C546.881,-112.204 541.902,-112.044 536.931,-111.786C529.886,-111.42 523.486,-113.701 517.356,-117.403C511.17,-121.138 506.543,-126.528 502.752,-132.795C501.224,-135.32 499.542,-137.377 496.384,-137.855C495.645,-137.07 494.745,-136.305 494.064,-135.359C487.98,-126.901 481.935,-118.411 475.946,-110.024C476.246,-108.553 476.556,-107.352 476.728,-106.133C477.51,-100.593 480.655,-96.659 484.758,-93.59C487.016,-91.901 488.858,-89.867 490.544,-87.651C493.515,-83.745 496.475,-79.814 499.183,-75.704C501.595,-72.046 503.765,-68.195 505.844,-64.312C507.45,-61.314 508.044,-57.944 508.419,-54.561C508.831,-50.854 509.329,-47.15 509.598,-43.435C509.802,-40.611 509.903,-37.748 509.699,-34.942C509.315,-29.652 508.381,-24.407 509.444,-19.049C509.547,-18.532 509.564,-17.972 509.495,-17.455C509.099,-14.477 508.757,-11.517 509.398,-8.477C509.504,-7.977 508.983,-7.041 508.521,-6.811C508.077,-6.589 507.067,-6.799 506.765,-7.204C504.88,-9.735 502.837,-12.21 501.382,-15.01C497.618,-22.251 493.501,-29.22 488.747,-35.787C485.855,-39.781 483.318,-44.023 481.494,-48.698C481.107,-49.69 480.726,-50.708 480.185,-51.609C475.903,-58.746 474.068,-66.681 473.041,-74.85C472.779,-76.937 472.988,-79.086 473.066,-81.2C473.165,-83.858 473.304,-86.514 473.512,-89.162C473.732,-91.976 473.789,-94.853 474.403,-97.564C475.006,-100.23 474.466,-102.394 473.126,-104.51C471.606,-104.814 470.848,-103.765 470.206,-102.816C465.687,-96.131 459.99,-90.474 455.474,-83.846C450.813,-77.006 445.302,-71.039 440.172,-64.682C438.782,-62.959 437.377,-61.249 436.035,-59.484C433.974,-56.774 431.962,-54.022 429.722,-51.008C429.579,-48.818 429.439,-46.196 429.232,-43.583C428.897,-39.342 429.732,-35.483 432.396,-32.076C434.664,-29.174 436.774,-26.138 439.891,-24.146C440.6,-23.693 441.259,-23.074 441.806,-22.406C447.249,-15.757 452.495,-8.972 455.346,-0.53C456.424,2.663 457.65,5.802 458.731,8.994C460.743,14.936 461.251,21.133 462.177,27.299C463.824,38.26 463.332,49.313 464.919,60.248C465.12,61.634 465.074,63.108 464.866,64.486C463.89,70.941 463.017,77.427 460.961,83.606C459.611,87.664 459.793,91.983 459.653,96.212C459.5,100.814 459.489,105.398 458.891,109.981C458.462,113.269 458.903,116.708 458.914,120.079C458.918,121.489 458.908,122.916 458.707,124.297C458.63,124.821 457.996,125.235 457.26,126.135C456.824,124.967 456.571,124.376 456.38,123.764C454.472,117.668 452.76,111.498 450.609,105.495C449.179,101.506 447.135,97.75 445.352,93.897C444.239,91.492 443.061,89.118 441.983,86.697C441.119,84.755 440.409,82.738 439.547,80.794C435.871,72.504 432.739,64.035 430.742,55.117C429.655,50.262 428.115,45.509 426.781,40.71C425.018,34.369 423.107,28.066 421.529,21.678C418.912,11.086 417.48,0.335 417.824,-10.568C417.999,-16.093 419.038,-21.467 420.384,-26.747C420.81,-28.419 421.649,-29.984 422.443,-31.509C424.489,-35.442 425.354,-39.704 425.411,-44.205C425.417,-44.673 425.126,-45.153 424.934,-45.746C424.372,-45.476 423.818,-45.39 423.533,-45.046C419.732,-40.462 414.899,-36.969 411.541,-31.895C410.425,-30.209 408.724,-28.977 407.311,-27.517C404.015,-24.112 400.763,-20.657 397.434,-17.289C393.513,-13.322 389.531,-9.424 385.134,-5.058C384.936,-3.28 384.695,-0.839 384.388,1.591C383.939,5.151 384.912,8.184 387.123,10.996C389.72,14.297 392.353,17.625 394.508,21.247C399.29,29.284 403.895,37.446 408.356,45.684C411.577,51.632 413.295,58.202 415.022,64.754C416.106,68.869 417.434,72.925 418.804,76.953C420.869,83.029 422.391,89.228 423.532,95.547C424.797,102.557 426.414,109.509 427.531,116.54C428.676,123.752 428.658,131.026 428.615,138.314C428.572,145.774 427.701,153.13 427.424,160.551C427.245,165.332 427.293,170.129 427.112,174.909C426.814,182.76 425.458,190.366 422.794,197.651C421.714,200.606 420.918,203.643 420.577,206.847C420.335,209.123 419.751,211.349 419.304,213.593C419.094,214.644 418.841,215.769 417.736,216.068C415.972,216.545 415.535,218.025 415.231,219.608C414.733,222.203 414.323,224.82 413.834,227.418C413.673,228.271 413.473,229.143 413.113,229.907C412.941,230.274 412.337,230.633 411.961,230.588C411.596,230.544 411,229.988 410.98,229.64C410.911,228.416 410.973,227.172 411.115,225.957C411.727,220.691 412.449,215.437 411.857,210.075C411.485,206.714 410.997,203.362 410.717,199.995C410.496,197.346 410.447,194.679 410.437,192.023C410.422,187.587 410.633,183.153 410.501,178.718C410.345,173.52 408.687,168.576 407.337,163.605C407.028,162.468 406.311,161.262 405.461,160.498C403.428,158.67 402.149,156.372 401.43,153.789C399.858,148.138 398.283,142.473 397.065,136.738C395.955,131.507 395.109,126.234 392.891,121.326C392.745,121.004 392.618,120.668 392.519,120.327C389.885,111.282 387.026,102.296 384.716,93.167C383.413,88.021 382.934,82.65 382.233,77.362C381.555,72.255 381.023,67.128 380.518,62.002C380.204,58.817 380.03,55.619 379.854,52.425C379.797,51.366 379.787,50.263 380,49.246C381.783,40.719 380.984,31.935 381.646,23.299C381.835,20.832 381.781,18.337 381.975,15.87C382.213,12.859 382.445,9.903 381.494,6.898C381.142,5.783 381.45,4.453 381.431,3.221C381.408,1.673 381.359,0.124 381.317,-1.567C380.533,-1.545 379.939,-1.724 379.625,-1.488C376.683,0.73 373.661,2.86 370.912,5.329C367.24,8.627 362.953,10.884 359.007,13.708C356.567,15.453 354.158,17.316 352.029,19.459C350.026,21.476 349.535,24.452 349.673,27.291C349.867,31.286 351.194,34.902 354.076,37.834C355.892,39.682 357.549,41.748 359.068,43.883C361.431,47.205 363.109,50.898 364.1,54.948C364.818,57.885 365.8,60.756 366.644,63.662C366.941,64.687 367.315,65.719 367.422,66.767C368.484,77.194 370.784,87.53 370.244,98.077C370.172,99.484 370.331,100.919 370.463,102.334C370.846,106.426 370.724,110.438 370.085,114.502C369.432,118.658 369.606,122.98 369.069,127.168C368.194,133.993 367.278,140.85 365.166,147.35C363.713,151.822 361.937,156.189 360.011,160.445C358.006,164.875 355.942,169.239 354.596,173.996C353.74,177.021 352.404,179.876 351.348,182.835C349.826,187.103 348.397,191.411 346.865,195.675C345.096,200.598 343.16,205.45 341.468,210.404C337.95,220.705 332.336,229.849 327.946,239.671C325.119,245.996 321.427,251.856 318.309,258.036C316.685,261.253 314.444,264.093 313.353,267.639C313.212,268.098 312.764,268.462 312.409,268.814C311.885,269.335 310.495,268.752 310.377,267.963C310.3,267.446 310.212,266.901 310.282,266.397C310.792,262.729 311.351,259.07 311.874,255.404C312.247,252.788 312.697,250.179 312.921,247.544C313.521,240.492 313.984,233.424 314.564,226.37C315.103,219.825 315.086,213.32 314.356,206.716C313.38,197.888 312.903,189.006 312.424,180.141C312.262,177.15 312.592,174.113 312.975,171.145C313.45,167.458 314.591,164.05 316.363,160.769C319.471,155.012 322.591,149.217 323.929,142.528C324.479,139.779 325.636,137.191 326.278,134.459C326.753,132.437 326.909,130.31 327.085,128.215C327.277,125.926 327.238,123.607 327.456,121.322C328.096,114.643 328.713,107.982 330.265,101.443C331.354,96.857 331.385,91.967 332.257,87.301C333.743,79.342 335.528,71.456 337.167,63.533C337.915,59.917 338.749,56.314 339.298,52.655C339.985,48.076 341.132,43.722 343.164,39.635C344.922,36.098 345.569,29.336 344.67,25.043C343.911,25.44 343.179,25.734 342.535,26.172C336.442,30.311 330.321,34.408 324.295,38.655C320.186,41.551 316.188,44.626 312.205,47.713C311.306,48.41 310.564,49.414 309.941,50.415C308.578,52.604 307.392,54.921 306.031,57.112C304.973,58.813 304.58,60.627 304.869,62.651C305.046,63.885 305.205,65.124 305.45,66.345C306.366,70.89 307.133,75.434 306.907,80.093C306.83,81.674 307.121,83.284 307.228,84.882C307.572,90.042 307.515,95.153 306.639,100.245C305.441,107.198 304.839,114.247 304.838,121.366C304.838,122.774 304.617,124.175 304.485,125.578C304.37,126.809 304.113,128.036 304.131,129.268C304.325,142.126 302.309,154.667 300.401,167.224C300.269,168.096 300.043,168.955 299.971,169.833C299.373,177.086 297.97,184.15 296.188,191.129C294.662,197.105 293.698,203.204 293.593,209.441C293.476,216.402 292.1,223.139 291.104,229.94C289.825,238.665 288.312,247.344 287.037,256.07C286.426,260.253 286.197,264.51 285.663,268.711C285.397,270.804 284.923,272.875 284.389,274.905C282.603,281.687 280.755,288.448 278.911,295.211C278.559,296.505 278.558,298.195 276.751,298.225C275.513,298.246 275.038,296.708 275.474,294.261C275.598,293.568 275.713,292.859 275.945,292.206C277.891,286.722 277.243,281.011 276.541,275.389C275.529,267.272 274.138,259.198 272.92,251.105C272.682,249.52 272.272,247.912 272.328,246.342C272.638,237.709 270.224,229.41 268.983,220.979C267.79,212.877 266.607,204.791 265.973,196.627C265.326,188.293 264.49,179.97 263.729,171.643C263.664,170.935 263.612,170.211 263.431,169.529C261.411,161.939 261.922,154.38 262.995,146.815C263.166,145.606 263.155,144.357 263.162,143.123C263.201,135.984 264.003,129.027 266.181,122.27C268.862,113.954 271.327,105.55 273.739,97.133C275.441,91.191 278.035,85.729 280.801,80.341C281.189,79.583 281.739,78.916 282.251,78.24C284.003,75.931 285.839,73.691 287.519,71.323C290.242,67.487 293.444,64.267 297.645,62.383C299.264,61.656 300.393,60.681 301.082,58.923C301.888,56.863 302.937,54.918 304.143,52.371C303.033,52.419 302.419,52.302 301.909,52.488C295.336,54.896 289.192,58.215 283.354,62.165C277.809,65.916 272.325,69.769 266.708,73.395C264.62,74.743 263.158,76.417 262.363,78.851C261.495,81.509 260.476,84.112 259.691,86.799C258.852,89.669 258.501,92.634 258.693,95.706C259.126,102.65 258.414,109.523 257.936,116.408C257.752,119.055 257.624,121.709 257.383,124.348C257.222,126.107 257.013,127.874 256.642,129.587C254.746,138.346 253.207,147.238 250.731,155.794C248.503,163.492 246.27,171.254 242.68,178.429C240.519,182.748 238.875,187.372 236.995,191.858C236.593,192.819 236.233,193.807 235.76,194.726C232.356,201.332 228.995,207.965 225.474,214.497C224.169,216.918 222.478,219.094 220.952,221.373C219.331,223.794 217.362,226.018 216.134,228.654C213.08,235.207 208.494,240.454 204.142,245.92C202.229,248.322 200.344,250.748 198.415,253.134C197.559,254.192 196.736,255.326 195.711,256.172C189.85,261.004 184.633,266.587 179.542,272.269C175.019,277.319 170.679,282.608 166.733,288.181C164.172,291.798 163.02,296.376 162.039,300.846C160.871,306.164 159.448,311.422 159.095,316.95C158.997,318.488 158.328,319.987 157.784,321.441C157.669,321.748 156.909,321.991 156.527,321.888C156.134,321.781 155.698,321.269 155.542,320.833C155.375,320.368 155.468,319.78 155.523,319.257C156.713,307.936 158.819,296.797 163.413,286.609C168.543,275.232 172.561,263.244 178.99,252.555C180.566,249.935 181.418,246.802 182.563,243.886C185.745,235.788 189.381,227.859 191.94,219.525C194.462,211.31 197.766,203.447 200.249,195.251C202.431,188.047 204.301,180.714 207.238,173.835C211.006,165.013 213.09,155.513 216.513,146.575C220.451,136.294 225.443,126.615 231.666,117.713C233.43,115.188 235.162,112.602 236.599,109.854C239.811,103.714 244.631,99.206 249.773,95.153C252.127,93.298 254.052,91.321 255.069,88.488C256.524,84.435 257.742,80.279 259.223,75.661C257.831,75.718 256.822,75.514 256.005,75.835C252.294,77.288 248.563,78.722 244.98,80.477C239.757,83.036 234.59,85.684 230.186,89.793C228.254,91.594 225.704,92.685 223.355,93.935C217.767,96.909 212.135,99.795 206.509,102.691C205.778,103.067 204.996,103.398 204.199,103.566C194.087,105.704 185.257,110.665 177.144,117.106C173.069,120.341 168.902,123.507 165.633,127.748C165.425,128.018 165.249,128.376 164.975,128.52C160.291,130.99 159.773,136.295 158.007,140.7C157.537,141.873 157.692,143.511 157.975,144.847C158.527,147.453 159.265,150.035 160.117,152.559C162.428,159.403 163.441,166.406 163.003,173.574C162.549,180.993 161.912,188.394 161.459,195.813C161.315,198.176 160.742,200.321 159.712,202.357C155.777,210.139 153.457,218.596 151.237,227.092C150.973,228.104 150.868,229.173 150.735,230.224C149.957,236.354 149.222,242.491 148.415,248.616C147.809,253.212 146.328,257.453 144.384,261.587C142.473,265.651 140.923,269.931 139.415,274.202C136.271,283.107 132.235,291.535 128.254,300.006C126.045,304.709 124.168,309.599 122.188,314.427C117.969,324.719 113.872,335.07 107.735,344.275C106.124,346.69 104.972,349.455 103.53,352.007C103.126,352.722 102.489,353.316 101.867,353.842C101.286,354.332 99.962,353.534 99.976,352.725C99.988,352.028 99.986,351.272 100.228,350.654C102.642,344.49 102.861,337.886 102.675,331.341C102.467,324.006 103.333,316.843 104.01,309.627C104.257,306.991 104.214,304.318 104.353,301.665C104.565,297.601 104.65,293.514 105.089,289.483C106.256,278.766 107.484,268.069 107.774,257.236C107.868,253.719 108.588,250.212 109.28,246.767C110.18,242.284 111.677,237.931 112.303,233.408C113.172,227.134 115.407,221.145 115.206,214.651C115.174,213.616 115.515,212.56 115.779,211.545C118.521,201.016 121.096,190.426 124.108,179.993C126.047,173.277 128.445,166.686 132.873,161.29C133.304,160.765 133.553,160.023 134.057,159.621C139.063,155.642 142.847,150.134 148.22,146.657C150.591,145.122 152.261,143.204 153.257,140.469C154.141,138.04 155.55,135.848 156.225,133.425C154.62,131.737 153.19,132.76 151.794,132.994C144.697,134.182 138.315,137.473 131.74,140.213C128.83,141.426 125.833,142.423 122.841,143.41C120.468,144.194 118.168,144.951 116.329,146.925C115.462,147.856 114.109,148.408 112.875,148.788C106.403,150.782 101.311,155.381 95.564,158.737C91.62,163.511 86.445,166.724 81.978,170.834C81.36,171.403 80.716,171.981 80.243,172.68C77.264,177.087 74.339,181.542 72.176,186.504C70.066,191.346 70.977,196.297 74.877,200.022C76.368,201.445 77.33,203.009 77.575,205.003C78.008,208.53 78.595,212.084 78.572,215.607C78.537,221.062 78.429,226.56 76.861,231.812C76.672,228.982 75.977,226.044 76.404,223.341C77.191,218.365 76.376,213.459 76.366,208.527C76.359,205.293 75.15,203.096 72.651,201.442C71.693,200.807 70.813,200.032 69.711,199.177C69.093,200.304 68.514,201.152 68.131,202.095C66.761,205.479 65.396,208.868 64.141,212.304C61.748,218.853 59.331,225.333 55.298,231.013C52.841,234.474 51.054,238.484 48.944,242.233C48.354,243.28 47.799,244.386 47.033,245.273C42.668,250.325 39.449,256.274 36.013,262.01C31.945,268.801 27.953,275.607 22.969,281.686C21.797,283.115 20.891,284.824 20.018,286.501C17.849,290.666 15.414,294.507 11.74,297.426C9.953,298.846 8.612,300.971 7.288,302.947C5.764,305.224 4.416,307.599 2.44,309.521C-0.339,312.223 -3.073,315.004 -5.575,317.992C-7.464,320.249 -9.559,322.117 -11.986,323.633C-12.975,324.25 -13.923,324.954 -14.835,325.694C-15.416,326.165 -16.278,326.575 -15.74,327.707C-13.082,327.887 -10.921,326.525 -8.801,325.238C-1.373,320.727 5.364,315.162 12.169,309.702C17.671,305.286 22.992,300.561 28.804,296.651C34.588,292.761 39.451,287.861 43.93,282.571C50.734,274.534 57.133,266.1 63.604,257.746C68.974,250.815 73.269,243.2 75.574,234.387C75.829,233.413 76.474,232.565 76.937,231.659" style="fill:white;fill-rule:nonzero;"/>
            </g>
        </g>
    </g>
</svg>
