<?xml version="1.0" encoding="UTF-8" standalone="no"?>
<!DOCTYPE svg PUBLIC "-//W3C//DTD SVG 1.1//EN" "http://www.w3.org/Graphics/SVG/1.1/DTD/svg11.dtd">
<svg width="100%" height="100%" viewBox="0 0 325 325" version="1.1" xmlns="http://www.w3.org/2000/svg" xmlns:xlink="http://www.w3.org/1999/xlink" xml:space="preserve" xmlns:serif="http://www.serif.com/" style="fill-rule:evenodd;clip-rule:evenodd;stroke-linejoin:round;stroke-miterlimit:2;">
    <g transform="matrix(8.33333,0,0,8.33333,-2466.13,-18674.5)">
        <g opacity="0.4">
            <g transform="matrix(1,0,0,1,322.182,2259.16)">
                <path d="M0,2.921C-2.248,5.144 -4.462,7.4 -6.709,9.623C-8.11,11.011 -9.119,10.096 -10.145,9.034C-11.135,8.009 -12.225,7.033 -10.778,5.615C-9.446,4.309 -8.058,3.06 -6.231,1.353C-7.92,-0.182 -9.297,-1.43 -10.67,-2.681C-12.144,-4.022 -11.326,-5.054 -10.231,-6.082C-9.172,-7.075 -8.213,-8.344 -6.654,-6.772C-4.427,-4.529 -2.173,-2.313 0.056,-0.071C1.049,0.928 1.012,1.919 0,2.921M-6.448,-13.558C-14.796,-13.633 -21.658,-6.819 -21.613,1.5C-21.568,9.613 -14.871,16.328 -6.712,16.441C1.503,16.554 8.341,9.812 8.387,1.551C8.434,-6.788 1.861,-13.482 -6.448,-13.558" style="fill:white;fill-rule:nonzero;"/>
            </g>
        </g>
    </g>
</svg>
