<?xml version="1.0" encoding="UTF-8" standalone="no"?>
<!DOCTYPE svg PUBLIC "-//W3C//DTD SVG 1.1//EN" "http://www.w3.org/Graphics/SVG/1.1/DTD/svg11.dtd">
<svg width="100%" height="100%" viewBox="0 0 200 200" version="1.1" xmlns="http://www.w3.org/2000/svg" xmlns:xlink="http://www.w3.org/1999/xlink" xml:space="preserve" xmlns:serif="http://www.serif.com/" style="fill-rule:evenodd;clip-rule:evenodd;stroke-linejoin:round;stroke-miterlimit:2;">
    <g transform="matrix(-8.33333,0,0,8.33333,140.162,109.043)">
        <path d="M0,-2.141C1.648,-3.772 3.272,-5.426 4.92,-7.057C5.948,-8.075 6.687,-7.404 7.44,-6.624C8.167,-5.872 8.965,-5.158 7.904,-4.118C6.927,-3.16 5.909,-2.244 4.569,-0.992C5.809,0.133 6.818,1.048 7.825,1.965C8.906,2.95 8.306,3.707 7.503,4.461C6.727,5.189 6.023,6.119 4.879,4.966C3.247,3.322 1.593,1.697 -0.041,0.052C-0.769,-0.68 -0.742,-1.407 0,-2.141M4.729,9.942C10.851,9.998 15.883,5.002 15.85,-1.1C15.817,-7.049 10.906,-11.974 4.922,-12.056C-1.102,-12.139 -6.116,-7.195 -6.15,-1.137C-6.185,4.978 -1.364,9.887 4.729,9.942" style="fill:rgb(234,123,68);fill-rule:nonzero;"/>
    </g>
</svg>
