<?xml version="1.0" encoding="UTF-8" standalone="no"?>
<!DOCTYPE svg PUBLIC "-//W3C//DTD SVG 1.1//EN" "http://www.w3.org/Graphics/SVG/1.1/DTD/svg11.dtd">
<svg width="100%" height="100%" viewBox="0 0 100 100" version="1.1" xmlns="http://www.w3.org/2000/svg" xmlns:xlink="http://www.w3.org/1999/xlink" xml:space="preserve" xmlns:serif="http://www.serif.com/" style="fill-rule:evenodd;clip-rule:evenodd;stroke-linejoin:round;stroke-miterlimit:2;">
    <g transform="matrix(3.12671,0,0,3.12671,89.224,94.6525)">
        <path d="M0,-28.451L-25.307,-28.451C-26.175,-28.451 -26.879,-27.747 -26.879,-26.879L-26.879,-1.572C-26.879,-0.704 -26.175,0 -25.307,0L-11.685,0L-11.685,-11.015L-15.391,-11.015L-15.391,-15.313L-11.685,-15.313L-11.685,-18.475C-11.685,-22.151 -9.438,-24.153 -6.162,-24.153C-5.054,-24.155 -3.947,-24.099 -2.845,-23.986L-2.845,-20.142L-5.122,-20.142C-6.915,-20.142 -7.25,-19.294 -7.25,-18.051L-7.25,-15.313L-2.995,-15.313L-3.55,-11.015L-7.25,-11.015L-7.25,0L0,0C0.868,0 1.572,-0.704 1.572,-1.572L1.572,-26.879C1.572,-27.747 0.868,-28.451 0,-28.451" style="fill:white;fill-rule:nonzero;"/>
    </g>
</svg>
